<svg width="25" height="25" viewBox="0 0 25 25" fill="none" xmlns="http://www.w3.org/2000/svg">
<g opacity="0.5" clip-path="url(#clip0_121_5884)">
<path fill-rule="evenodd" clip-rule="evenodd" d="M7.26077 2.57327C7.33334 2.50052 7.41955 2.44279 7.51447 2.40341C7.60938 2.36402 7.71113 2.34375 7.8139 2.34375C7.91666 2.34375 8.01841 2.36402 8.11332 2.40341C8.20824 2.44279 8.29445 2.50052 8.36702 2.57327L17.742 11.9483C17.8148 12.0208 17.8725 12.1071 17.9119 12.202C17.9513 12.2969 17.9715 12.3986 17.9715 12.5014C17.9715 12.6042 17.9513 12.7059 17.9119 12.8008C17.8725 12.8957 17.8148 12.9819 17.742 13.0545L8.36702 22.4295C8.22032 22.5762 8.02136 22.6586 7.8139 22.6586C7.60643 22.6586 7.40747 22.5762 7.26077 22.4295C7.11407 22.2828 7.03166 22.0839 7.03166 21.8764C7.03166 21.6689 7.11407 21.47 7.26077 21.3233L16.0842 12.5014L7.26077 3.67952C7.18802 3.60695 7.13029 3.52074 7.09091 3.42582C7.05152 3.33091 7.03125 3.22916 7.03125 3.1264C7.03125 3.02364 7.05152 2.92188 7.09091 2.82697C7.13029 2.73205 7.18802 2.64584 7.26077 2.57327Z" fill="black" fill-opacity="0.5"/>
</g>
<defs>
<clipPath id="clip0_121_5884">
<rect width="25" height="25" fill="white"/>
</clipPath>
</defs>
</svg>
