<svg width="377" height="1479" viewBox="0 0 377 1479" fill="none" xmlns="http://www.w3.org/2000/svg">
<circle cx="7" cy="7" r="7" transform="matrix(-0.999993 0.0037889 0.0037889 0.999993 22.4688 1464.24)" fill="#F4F4F4"/>
<circle cx="7" cy="7" r="7" transform="matrix(-0.999993 0.0037889 0.0037889 0.999993 22.2188 1421.24)" fill="#F4F4F4"/>
<circle cx="7" cy="7" r="7" transform="matrix(-0.999993 0.0037889 0.0037889 0.999993 21.7266 1335.24)" fill="#F4F4F4"/>
<circle cx="7" cy="7" r="7" transform="matrix(-0.999993 0.0037889 0.0037889 0.999993 21.9766 1378.24)" fill="#F4F4F4"/>
<circle cx="7" cy="7" r="7" transform="matrix(-0.999993 0.0037889 0.0037889 0.999993 21.4766 1292.24)" fill="#F4F4F4"/>
<circle cx="7" cy="7" r="7" transform="matrix(-0.999993 0.0037889 0.0037889 0.999993 21.2266 1249.24)" fill="#F4F4F4"/>
<circle opacity="0.5" cx="7" cy="7" r="7" transform="matrix(-0.999993 0.0037889 0.0037889 0.999993 20.9766 1206.24)" fill="#F4F4F4"/>
<circle cx="7" cy="7" r="7" transform="matrix(-0.999993 0.0037889 0.0037889 0.999993 20.7344 1163.24)" fill="#F4F4F4"/>
<circle cx="7" cy="7" r="7" transform="matrix(-0.999993 0.0037889 0.0037889 0.999993 20.4844 1120.24)" fill="#F4F4F4"/>
<circle cx="7" cy="7" r="7" transform="matrix(-0.999993 0.0037889 0.0037889 0.999993 20.2344 1077.24)" fill="#F4F4F4"/>
<circle cx="7" cy="7" r="7" transform="matrix(-0.999993 0.0037889 0.0037889 0.999993 19.9844 1034.25)" fill="#F4F4F4"/>
<circle cx="7" cy="7" r="7" transform="matrix(-0.999993 0.0037889 0.0037889 0.999993 19.7422 991.25)" fill="#F4F4F4"/>
<circle cx="7" cy="7" r="7" transform="matrix(-0.999993 0.0037889 0.0037889 0.999993 19.4922 948.25)" fill="#F4F4F4"/>
<circle cx="7" cy="7" r="7" transform="matrix(-0.999993 0.0037889 0.0037889 0.999993 19.2422 905.25)" fill="#F4F4F4"/>
<circle cx="7" cy="7" r="7" transform="matrix(-0.999993 0.0037889 0.0037889 0.999993 18.9922 862.25)" fill="#F4F4F4"/>
<circle cx="7" cy="7" r="7" transform="matrix(-0.999993 0.0037889 0.0037889 0.999993 18.5 776.25)" fill="#F4F4F4"/>
<circle cx="7" cy="7" r="7" transform="matrix(-0.999993 0.0037889 0.0037889 0.999993 18.7422 819.25)" fill="#F4F4F4"/>
<circle cx="7" cy="7" r="7" transform="matrix(-0.999993 0.0037889 0.0037889 0.999993 18.25 733.25)" fill="#F4F4F4"/>
<circle cx="7" cy="7" r="7" transform="matrix(-0.999993 0.0037889 0.0037889 0.999993 18 690.25)" fill="#F4F4F4"/>
<circle cx="7" cy="7" r="7" transform="matrix(-0.999993 0.0037889 0.0037889 0.999993 17.75 647.25)" fill="#F4F4F4"/>
<circle cx="7" cy="7" r="7" transform="matrix(-0.999993 0.0037889 0.0037889 0.999993 17.5 604.25)" fill="#F4F4F4"/>
<circle cx="7" cy="7" r="7" transform="matrix(-0.999993 0.0037889 0.0037889 0.999993 17.2578 561.258)" fill="#F4F4F4"/>
<circle cx="7" cy="7" r="7" transform="matrix(-0.999993 0.0037889 0.0037889 0.999993 17.0078 518.258)" fill="#F4F4F4"/>
<circle cx="7" cy="7" r="7" transform="matrix(-0.999993 0.0037889 0.0037889 0.999993 16.7578 475.258)" fill="#F4F4F4"/>
<circle cx="7" cy="7" r="7" transform="matrix(-0.999993 0.0037889 0.0037889 0.999993 16.5078 432.258)" fill="#F4F4F4"/>
<circle cx="7" cy="7" r="7" transform="matrix(-0.999993 0.0037889 0.0037889 0.999993 16.2656 389.258)" fill="#F4F4F4"/>
<circle cx="7" cy="7" r="7" transform="matrix(-0.999993 0.0037889 0.0037889 0.999993 16.0156 346.258)" fill="#F4F4F4"/>
<circle cx="7" cy="7" r="7" transform="matrix(-0.999993 0.0037889 0.0037889 0.999993 15.7656 303.258)" fill="#F4F4F4"/>
<circle cx="7" cy="7" r="7" transform="matrix(-0.999993 0.0037889 0.0037889 0.999993 15.5156 260.258)" fill="#F4F4F4"/>
<circle opacity="0.5" cx="7" cy="7" r="7" transform="matrix(-0.999993 0.0037889 0.0037889 0.999993 15.2656 217.258)" fill="#F4F4F4" fill-opacity="0.5"/>
<circle opacity="0.5" cx="7" cy="7" r="7" transform="matrix(-0.999993 0.0037889 0.0037889 0.999993 15.0234 174.258)" fill="#F4F4F4" fill-opacity="0.5"/>
<circle opacity="0.5" cx="7" cy="7" r="7" transform="matrix(-0.999993 0.0037889 0.0037889 0.999993 14.7734 131.266)" fill="#F4F4F4" fill-opacity="0.5"/>
<circle cx="7" cy="7" r="7" transform="matrix(-0.999993 0.0037889 0.0037889 0.999993 14.5234 88.2656)" fill="#F4F4F4"/>
<circle cx="7" cy="7" r="7" transform="matrix(-0.999993 0.0037889 0.0037889 0.999993 14.2734 45.2656)" fill="#F4F4F4"/>
<circle cx="7" cy="7" r="7" transform="matrix(-0.999993 0.0037889 0.0037889 0.999993 14.0234 2.26562)" fill="#F4F4F4"/>
<circle cx="7" cy="7" r="7" transform="matrix(-0.999993 0.0037889 0.0037889 0.999993 65.4688 1463.99)" fill="#F4F4F4"/>
<circle cx="7" cy="7" r="7" transform="matrix(-0.999993 0.0037889 0.0037889 0.999993 65.2188 1420.99)" fill="#F4F4F4"/>
<circle cx="7" cy="7" r="7" transform="matrix(-0.999993 0.0037889 0.0037889 0.999993 64.7266 1334.99)" fill="#F4F4F4"/>
<circle cx="7" cy="7" r="7" transform="matrix(-0.999993 0.0037889 0.0037889 0.999993 64.9766 1377.99)" fill="#F4F4F4"/>
<circle cx="7" cy="7" r="7" transform="matrix(-0.999993 0.0037889 0.0037889 0.999993 64.4766 1291.99)" fill="#F4F4F4"/>
<circle cx="7" cy="7" r="7" transform="matrix(-0.999993 0.0037889 0.0037889 0.999993 64.2266 1248.99)" fill="#F4F4F4"/>
<circle opacity="0.5" cx="7" cy="7" r="7" transform="matrix(-0.999993 0.0037889 0.0037889 0.999993 63.9766 1205.99)" fill="#F4F4F4"/>
<circle cx="7" cy="7" r="7" transform="matrix(-0.999993 0.0037889 0.0037889 0.999993 63.7344 1162.99)" fill="#F4F4F4"/>
<circle cx="7" cy="7" r="7" transform="matrix(-0.999993 0.0037889 0.0037889 0.999993 63.4844 1119.99)" fill="#F4F4F4"/>
<circle cx="7" cy="7" r="7" transform="matrix(-0.999993 0.0037889 0.0037889 0.999993 63.2344 1076.99)" fill="#F4F4F4"/>
<circle cx="7" cy="7" r="7" transform="matrix(-0.999993 0.0037889 0.0037889 0.999993 62.9844 1034)" fill="#F4F4F4"/>
<circle cx="7" cy="7" r="7" transform="matrix(-0.999993 0.0037889 0.0037889 0.999993 62.7422 991)" fill="#F4F4F4"/>
<circle cx="7" cy="7" r="7" transform="matrix(-0.999993 0.0037889 0.0037889 0.999993 62.4922 948)" fill="#F4F4F4"/>
<circle cx="7" cy="7" r="7" transform="matrix(-0.999993 0.0037889 0.0037889 0.999993 62.2422 905)" fill="#F4F4F4"/>
<circle cx="7" cy="7" r="7" transform="matrix(-0.999993 0.0037889 0.0037889 0.999993 61.9922 862)" fill="#F4F4F4"/>
<circle cx="7" cy="7" r="7" transform="matrix(-0.999993 0.0037889 0.0037889 0.999993 61.5 776)" fill="#F4F4F4"/>
<circle cx="7" cy="7" r="7" transform="matrix(-0.999993 0.0037889 0.0037889 0.999993 61.7422 819)" fill="#F4F4F4"/>
<circle cx="7" cy="7" r="7" transform="matrix(-0.999993 0.0037889 0.0037889 0.999993 61.25 733)" fill="#F4F4F4"/>
<circle cx="7" cy="7" r="7" transform="matrix(-0.999993 0.0037889 0.0037889 0.999993 61 690)" fill="#F4F4F4"/>
<circle cx="7" cy="7" r="7" transform="matrix(-0.999993 0.0037889 0.0037889 0.999993 60.75 647)" fill="#F4F4F4"/>
<circle cx="7" cy="7" r="7" transform="matrix(-0.999993 0.0037889 0.0037889 0.999993 60.5 604)" fill="#F4F4F4"/>
<circle cx="7" cy="7" r="7" transform="matrix(-0.999993 0.0037889 0.0037889 0.999993 60.2578 561.008)" fill="#F4F4F4"/>
<circle cx="7" cy="7" r="7" transform="matrix(-0.999993 0.0037889 0.0037889 0.999993 60.0078 518.008)" fill="#F4F4F4"/>
<circle cx="7" cy="7" r="7" transform="matrix(-0.999993 0.0037889 0.0037889 0.999993 59.7578 475.008)" fill="#F4F4F4"/>
<circle cx="7" cy="7" r="7" transform="matrix(-0.999993 0.0037889 0.0037889 0.999993 59.5078 432.008)" fill="#F4F4F4"/>
<circle cx="7" cy="7" r="7" transform="matrix(-0.999993 0.0037889 0.0037889 0.999993 59.2656 389.008)" fill="#F4F4F4"/>
<circle cx="7" cy="7" r="7" transform="matrix(-0.999993 0.0037889 0.0037889 0.999993 59.0156 346.008)" fill="#F4F4F4"/>
<circle cx="7" cy="7" r="7" transform="matrix(-0.999993 0.0037889 0.0037889 0.999993 58.7656 303.008)" fill="#F4F4F4"/>
<circle cx="7" cy="7" r="7" transform="matrix(-0.999993 0.0037889 0.0037889 0.999993 58.5156 260.008)" fill="#F4F4F4"/>
<circle opacity="0.5" cx="7" cy="7" r="7" transform="matrix(-0.999993 0.0037889 0.0037889 0.999993 58.2656 217.008)" fill="#F4F4F4" fill-opacity="0.5"/>
<circle opacity="0.5" cx="7" cy="7" r="7" transform="matrix(-0.999993 0.0037889 0.0037889 0.999993 58.0234 174.008)" fill="#F4F4F4" fill-opacity="0.5"/>
<circle opacity="0.5" cx="7" cy="7" r="7" transform="matrix(-0.999993 0.0037889 0.0037889 0.999993 57.7734 131.016)" fill="#F4F4F4" fill-opacity="0.5"/>
<circle cx="7" cy="7" r="7" transform="matrix(-0.999993 0.0037889 0.0037889 0.999993 57.5234 88.0156)" fill="#F4F4F4"/>
<circle cx="7" cy="7" r="7" transform="matrix(-0.999993 0.0037889 0.0037889 0.999993 57.2734 45.0156)" fill="#F4F4F4"/>
<circle cx="7" cy="7" r="7" transform="matrix(-0.999993 0.0037889 0.0037889 0.999993 57.0234 2.01562)" fill="#F4F4F4"/>
<circle cx="7" cy="7" r="7" transform="matrix(-0.999993 0.0037889 0.0037889 0.999993 108.469 1463.74)" fill="#F4F4F4"/>
<circle cx="7" cy="7" r="7" transform="matrix(-0.999993 0.0037889 0.0037889 0.999993 108.219 1420.74)" fill="#F4F4F4"/>
<circle cx="7" cy="7" r="7" transform="matrix(-0.999993 0.0037889 0.0037889 0.999993 107.727 1334.74)" fill="#F4F4F4"/>
<circle cx="7" cy="7" r="7" transform="matrix(-0.999993 0.0037889 0.0037889 0.999993 107.977 1377.74)" fill="#F4F4F4"/>
<circle cx="7" cy="7" r="7" transform="matrix(-0.999993 0.0037889 0.0037889 0.999993 107.477 1291.74)" fill="#F4F4F4"/>
<circle cx="7" cy="7" r="7" transform="matrix(-0.999993 0.0037889 0.0037889 0.999993 107.227 1248.74)" fill="#F4F4F4"/>
<circle opacity="0.5" cx="7" cy="7" r="7" transform="matrix(-0.999993 0.0037889 0.0037889 0.999993 106.977 1205.74)" fill="#F4F4F4"/>
<circle cx="7" cy="7" r="7" transform="matrix(-0.999993 0.0037889 0.0037889 0.999993 106.734 1162.74)" fill="#F4F4F4"/>
<circle cx="7" cy="7" r="7" transform="matrix(-0.999993 0.0037889 0.0037889 0.999993 106.484 1119.74)" fill="#F4F4F4"/>
<circle cx="7" cy="7" r="7" transform="matrix(-0.999993 0.0037889 0.0037889 0.999993 106.234 1076.74)" fill="#F4F4F4"/>
<circle cx="7" cy="7" r="7" transform="matrix(-0.999993 0.0037889 0.0037889 0.999993 105.984 1033.75)" fill="#F4F4F4"/>
<circle cx="7" cy="7" r="7" transform="matrix(-0.999993 0.0037889 0.0037889 0.999993 105.742 990.75)" fill="#F4F4F4"/>
<circle cx="7" cy="7" r="7" transform="matrix(-0.999993 0.0037889 0.0037889 0.999993 105.492 947.75)" fill="#F4F4F4"/>
<circle cx="7" cy="7" r="7" transform="matrix(-0.999993 0.0037889 0.0037889 0.999993 105.242 904.75)" fill="#F4F4F4"/>
<circle cx="7" cy="7" r="7" transform="matrix(-0.999993 0.0037889 0.0037889 0.999993 104.992 861.75)" fill="#F4F4F4"/>
<circle cx="7" cy="7" r="7" transform="matrix(-0.999993 0.0037889 0.0037889 0.999993 104.5 775.75)" fill="#F4F4F4"/>
<circle cx="7" cy="7" r="7" transform="matrix(-0.999993 0.0037889 0.0037889 0.999993 104.742 818.75)" fill="#F4F4F4"/>
<circle cx="7" cy="7" r="7" transform="matrix(-0.999993 0.0037889 0.0037889 0.999993 104.25 732.75)" fill="#F4F4F4"/>
<circle cx="7" cy="7" r="7" transform="matrix(-0.999993 0.0037889 0.0037889 0.999993 104 689.75)" fill="#F4F4F4"/>
<circle cx="7" cy="7" r="7" transform="matrix(-0.999993 0.0037889 0.0037889 0.999993 103.75 646.75)" fill="#F4F4F4"/>
<circle cx="7" cy="7" r="7" transform="matrix(-0.999993 0.0037889 0.0037889 0.999993 103.5 603.75)" fill="#F4F4F4"/>
<circle cx="7" cy="7" r="7" transform="matrix(-0.999993 0.0037889 0.0037889 0.999993 103.258 560.758)" fill="#F4F4F4"/>
<circle cx="7" cy="7" r="7" transform="matrix(-0.999993 0.0037889 0.0037889 0.999993 103.008 517.758)" fill="#F4F4F4"/>
<circle cx="7" cy="7" r="7" transform="matrix(-0.999993 0.0037889 0.0037889 0.999993 102.758 474.758)" fill="#F4F4F4"/>
<circle cx="7" cy="7" r="7" transform="matrix(-0.999993 0.0037889 0.0037889 0.999993 102.508 431.758)" fill="#F4F4F4"/>
<circle cx="7" cy="7" r="7" transform="matrix(-0.999993 0.0037889 0.0037889 0.999993 102.266 388.758)" fill="#F4F4F4"/>
<circle cx="7" cy="7" r="7" transform="matrix(-0.999993 0.0037889 0.0037889 0.999993 102.016 345.758)" fill="#F4F4F4" fill-opacity="0.5"/>
<circle cx="7" cy="7" r="7" transform="matrix(-0.999993 0.0037889 0.0037889 0.999993 101.766 302.758)" fill="#F4F4F4" fill-opacity="0.5"/>
<circle cx="7" cy="7" r="7" transform="matrix(-0.999993 0.0037889 0.0037889 0.999993 101.516 259.758)" fill="#F4F4F4"/>
<circle opacity="0.5" cx="7" cy="7" r="7" transform="matrix(-0.999993 0.0037889 0.0037889 0.999993 101.266 216.758)" fill="#F4F4F4" fill-opacity="0.5"/>
<circle opacity="0.5" cx="7" cy="7" r="7" transform="matrix(-0.999993 0.0037889 0.0037889 0.999993 101.023 173.758)" fill="#F4F4F4" fill-opacity="0.5"/>
<circle opacity="0.5" cx="7" cy="7" r="7" transform="matrix(-0.999993 0.0037889 0.0037889 0.999993 100.773 130.766)" fill="#F4F4F4" fill-opacity="0.5"/>
<circle cx="7" cy="7" r="7" transform="matrix(-0.999993 0.0037889 0.0037889 0.999993 100.523 87.7656)" fill="#F4F4F4"/>
<circle cx="7" cy="7" r="7" transform="matrix(-0.999993 0.0037889 0.0037889 0.999993 100.273 44.7656)" fill="#F4F4F4"/>
<circle cx="7" cy="7" r="7" transform="matrix(-0.999993 0.0037889 0.0037889 0.999993 100.023 1.76562)" fill="#F4F4F4"/>
<circle cx="7" cy="7" r="7" transform="matrix(-0.999993 0.0037889 0.0037889 0.999993 151.469 1463.5)" fill="#F4F4F4"/>
<circle cx="7" cy="7" r="7" transform="matrix(-0.999993 0.0037889 0.0037889 0.999993 151.219 1420.5)" fill="#F4F4F4"/>
<circle cx="7" cy="7" r="7" transform="matrix(-0.999993 0.0037889 0.0037889 0.999993 150.727 1334.5)" fill="#F4F4F4"/>
<circle cx="7" cy="7" r="7" transform="matrix(-0.999993 0.0037889 0.0037889 0.999993 150.977 1377.5)" fill="#F4F4F4"/>
<circle cx="7" cy="7" r="7" transform="matrix(-0.999993 0.0037889 0.0037889 0.999993 150.477 1291.5)" fill="#F4F4F4"/>
<circle cx="7" cy="7" r="7" transform="matrix(-0.999993 0.0037889 0.0037889 0.999993 150.227 1248.5)" fill="#F4F4F4"/>
<circle opacity="0.5" cx="7" cy="7" r="7" transform="matrix(-0.999993 0.0037889 0.0037889 0.999993 149.977 1205.5)" fill="#F4F4F4"/>
<circle cx="7" cy="7" r="7" transform="matrix(-0.999993 0.0037889 0.0037889 0.999993 149.734 1162.5)" fill="#F4F4F4"/>
<circle cx="7" cy="7" r="7" transform="matrix(-0.999993 0.0037889 0.0037889 0.999993 149.484 1119.5)" fill="#F4F4F4"/>
<circle cx="7" cy="7" r="7" transform="matrix(-0.999993 0.0037889 0.0037889 0.999993 149.234 1076.5)" fill="#F4F4F4"/>
<circle cx="7" cy="7" r="7" transform="matrix(-0.999993 0.0037889 0.0037889 0.999993 148.984 1033.51)" fill="#F4F4F4"/>
<circle cx="7" cy="7" r="7" transform="matrix(-0.999993 0.0037889 0.0037889 0.999993 148.742 990.508)" fill="#F4F4F4"/>
<circle cx="7" cy="7" r="7" transform="matrix(-0.999993 0.0037889 0.0037889 0.999993 148.492 947.508)" fill="#F4F4F4"/>
<circle cx="7" cy="7" r="7" transform="matrix(-0.999993 0.0037889 0.0037889 0.999993 148.242 904.508)" fill="#F4F4F4"/>
<circle cx="7" cy="7" r="7" transform="matrix(-0.999993 0.0037889 0.0037889 0.999993 147.992 861.508)" fill="#F4F4F4"/>
<circle cx="7" cy="7" r="7" transform="matrix(-0.999993 0.0037889 0.0037889 0.999993 147.5 775.508)" fill="#F4F4F4"/>
<circle cx="7" cy="7" r="7" transform="matrix(-0.999993 0.0037889 0.0037889 0.999993 147.742 818.508)" fill="#F4F4F4"/>
<circle cx="7" cy="7" r="7" transform="matrix(-0.999993 0.0037889 0.0037889 0.999993 147.25 732.508)" fill="#F4F4F4"/>
<circle cx="7" cy="7" r="7" transform="matrix(-0.999993 0.0037889 0.0037889 0.999993 147 689.508)" fill="#F4F4F4"/>
<circle cx="7" cy="7" r="7" transform="matrix(-0.999993 0.0037889 0.0037889 0.999993 146.75 646.508)" fill="#F4F4F4"/>
<circle cx="7" cy="7" r="7" transform="matrix(-0.999993 0.0037889 0.0037889 0.999993 146.5 603.508)" fill="#F4F4F4"/>
<circle cx="7" cy="7" r="7" transform="matrix(-0.999993 0.0037889 0.0037889 0.999993 146.258 560.516)" fill="#F4F4F4"/>
<circle cx="7" cy="7" r="7" transform="matrix(-0.999993 0.0037889 0.0037889 0.999993 146.008 517.516)" fill="#F4F4F4"/>
<circle cx="7" cy="7" r="7" transform="matrix(-0.999993 0.0037889 0.0037889 0.999993 145.758 474.516)" fill="#F4F4F4"/>
<circle cx="7" cy="7" r="7" transform="matrix(-0.999993 0.0037889 0.0037889 0.999993 145.508 431.516)" fill="#F4F4F4"/>
<circle cx="7" cy="7" r="7" transform="matrix(-0.999993 0.0037889 0.0037889 0.999993 145.266 388.516)" fill="#F4F4F4"/>
<circle cx="7" cy="7" r="7" transform="matrix(-0.999993 0.0037889 0.0037889 0.999993 145.016 345.516)" fill="#F4F4F4" fill-opacity="0.5"/>
<circle cx="7" cy="7" r="7" transform="matrix(-0.999993 0.0037889 0.0037889 0.999993 144.766 302.516)" fill="#F4F4F4" fill-opacity="0.5"/>
<circle cx="7" cy="7" r="7" transform="matrix(-0.999993 0.0037889 0.0037889 0.999993 144.516 259.516)" fill="#F4F4F4"/>
<circle opacity="0.5" cx="7" cy="7" r="7" transform="matrix(-0.999993 0.0037889 0.0037889 0.999993 144.266 216.516)" fill="#F4F4F4" fill-opacity="0.5"/>
<circle cx="7" cy="7" r="7" transform="matrix(-0.999993 0.0037889 0.0037889 0.999993 144.023 173.516)" fill="#F4F4F4" fill-opacity="0.5"/>
<circle opacity="0.5" cx="7" cy="7" r="7" transform="matrix(-0.999993 0.0037889 0.0037889 0.999993 143.773 130.523)" fill="#F4F4F4" fill-opacity="0.5"/>
<circle cx="7" cy="7" r="7" transform="matrix(-0.999993 0.0037889 0.0037889 0.999993 143.523 87.5234)" fill="#F4F4F4"/>
<circle cx="7" cy="7" r="7" transform="matrix(-0.999993 0.0037889 0.0037889 0.999993 143.273 44.5234)" fill="#F4F4F4"/>
<circle cx="7" cy="7" r="7" transform="matrix(-0.999993 0.0037889 0.0037889 0.999993 143.023 1.52344)" fill="#F4F4F4"/>
<circle cx="7" cy="7" r="7" transform="matrix(-0.999993 0.0037889 0.0037889 0.999993 194.5 1463.25)" fill="#F4F4F4"/>
<circle cx="7" cy="7" r="7" transform="matrix(-0.999993 0.0037889 0.0037889 0.999993 194.25 1420.25)" fill="#F4F4F4"/>
<circle cx="7" cy="7" r="7" transform="matrix(-0.999993 0.0037889 0.0037889 0.999993 193.758 1334.25)" fill="#F4F4F4"/>
<circle cx="7" cy="7" r="7" transform="matrix(-0.999993 0.0037889 0.0037889 0.999993 194.008 1377.25)" fill="#F4F4F4"/>
<circle cx="7" cy="7" r="7" transform="matrix(-0.999993 0.0037889 0.0037889 0.999993 193.508 1291.25)" fill="#F4F4F4"/>
<circle cx="7" cy="7" r="7" transform="matrix(-0.999993 0.0037889 0.0037889 0.999993 193.258 1248.25)" fill="#F4F4F4"/>
<circle opacity="0.5" cx="7" cy="7" r="7" transform="matrix(-0.999993 0.0037889 0.0037889 0.999993 193.008 1205.25)" fill="#F4F4F4"/>
<circle cx="7" cy="7" r="7" transform="matrix(-0.999993 0.0037889 0.0037889 0.999993 192.766 1162.25)" fill="#F4F4F4"/>
<circle cx="7" cy="7" r="7" transform="matrix(-0.999993 0.0037889 0.0037889 0.999993 192.516 1119.25)" fill="#F4F4F4"/>
<circle cx="7" cy="7" r="7" transform="matrix(-0.999993 0.0037889 0.0037889 0.999993 192.266 1076.25)" fill="#F4F4F4"/>
<circle cx="7" cy="7" r="7" transform="matrix(-0.999993 0.0037889 0.0037889 0.999993 192.016 1033.26)" fill="#F4F4F4"/>
<circle cx="7" cy="7" r="7" transform="matrix(-0.999993 0.0037889 0.0037889 0.999993 191.773 990.258)" fill="#F4F4F4"/>
<circle cx="7" cy="7" r="7" transform="matrix(-0.999993 0.0037889 0.0037889 0.999993 191.523 947.258)" fill="#F4F4F4"/>
<circle cx="7" cy="7" r="7" transform="matrix(-0.999993 0.0037889 0.0037889 0.999993 191.273 904.258)" fill="#F4F4F4"/>
<circle cx="7" cy="7" r="7" transform="matrix(-0.999993 0.0037889 0.0037889 0.999993 191.023 861.258)" fill="#F4F4F4"/>
<circle cx="7" cy="7" r="7" transform="matrix(-0.999993 0.0037889 0.0037889 0.999993 190.531 775.258)" fill="#F4F4F4"/>
<circle cx="7" cy="7" r="7" transform="matrix(-0.999993 0.0037889 0.0037889 0.999993 190.773 818.258)" fill="#F4F4F4"/>
<circle cx="7" cy="7" r="7" transform="matrix(-0.999993 0.0037889 0.0037889 0.999993 190.281 732.258)" fill="#F4F4F4"/>
<circle cx="7" cy="7" r="7" transform="matrix(-0.999993 0.0037889 0.0037889 0.999993 190.031 689.258)" fill="#F4F4F4"/>
<circle cx="7" cy="7" r="7" transform="matrix(-0.999993 0.0037889 0.0037889 0.999993 189.781 646.258)" fill="#F4F4F4"/>
<circle cx="7" cy="7" r="7" transform="matrix(-0.999993 0.0037889 0.0037889 0.999993 189.531 603.258)" fill="#F4F4F4"/>
<circle cx="7" cy="7" r="7" transform="matrix(-0.999993 0.0037889 0.0037889 0.999993 189.289 560.266)" fill="#F4F4F4"/>
<circle cx="7" cy="7" r="7" transform="matrix(-0.999993 0.0037889 0.0037889 0.999993 189.039 517.266)" fill="#F4F4F4"/>
<circle cx="7" cy="7" r="7" transform="matrix(-0.999993 0.0037889 0.0037889 0.999993 188.789 474.266)" fill="#F4F4F4"/>
<circle cx="7" cy="7" r="7" transform="matrix(-0.999993 0.0037889 0.0037889 0.999993 188.539 431.266)" fill="#F4F4F4"/>
<circle cx="7" cy="7" r="7" transform="matrix(-0.999993 0.0037889 0.0037889 0.999993 188.297 388.266)" fill="#F4F4F4"/>
<circle cx="7" cy="7" r="7" transform="matrix(-0.999993 0.0037889 0.0037889 0.999993 188.047 345.266)" fill="#F4F4F4" fill-opacity="0.5"/>
<circle cx="7" cy="7" r="7" transform="matrix(-0.999993 0.0037889 0.0037889 0.999993 187.797 302.266)" fill="#F4F4F4" fill-opacity="0.5"/>
<circle cx="7" cy="7" r="7" transform="matrix(-0.999993 0.0037889 0.0037889 0.999993 187.547 259.266)" fill="#F4F4F4"/>
<circle opacity="0.5" cx="7" cy="7" r="7" transform="matrix(-0.999993 0.0037889 0.0037889 0.999993 187.297 216.266)" fill="#F4F4F4" fill-opacity="0.5"/>
<circle cx="7" cy="7" r="7" transform="matrix(-0.999993 0.0037889 0.0037889 0.999993 187.055 173.266)" fill="#F4F4F4" fill-opacity="0.5"/>
<circle cx="7" cy="7" r="7" transform="matrix(-0.999993 0.0037889 0.0037889 0.999993 186.805 130.273)" fill="#F4F4F4" fill-opacity="0.5"/>
<circle cx="7" cy="7" r="7" transform="matrix(-0.999993 0.0037889 0.0037889 0.999993 186.555 87.2734)" fill="#F4F4F4"/>
<circle cx="7" cy="7" r="7" transform="matrix(-0.999993 0.0037889 0.0037889 0.999993 186.305 44.2734)" fill="#F4F4F4"/>
<circle cx="7" cy="7" r="7" transform="matrix(-0.999993 0.0037889 0.0037889 0.999993 186.055 1.27344)" fill="#F4F4F4"/>
<circle cx="7" cy="7" r="7" transform="matrix(-0.999993 0.0037889 0.0037889 0.999993 237.469 1463)" fill="#F4F4F4"/>
<circle cx="7" cy="7" r="7" transform="matrix(-0.999993 0.0037889 0.0037889 0.999993 237.219 1420)" fill="#F4F4F4"/>
<circle cx="7" cy="7" r="7" transform="matrix(-0.999993 0.0037889 0.0037889 0.999993 236.727 1334)" fill="#F4F4F4"/>
<circle cx="7" cy="7" r="7" transform="matrix(-0.999993 0.0037889 0.0037889 0.999993 236.977 1377)" fill="#F4F4F4"/>
<circle cx="7" cy="7" r="7" transform="matrix(-0.999993 0.0037889 0.0037889 0.999993 236.477 1291)" fill="#F4F4F4"/>
<circle cx="7" cy="7" r="7" transform="matrix(-0.999993 0.0037889 0.0037889 0.999993 236.227 1248)" fill="#F4F4F4"/>
<circle opacity="0.5" cx="7" cy="7" r="7" transform="matrix(-0.999993 0.0037889 0.0037889 0.999993 235.977 1205)" fill="#F4F4F4"/>
<circle cx="7" cy="7" r="7" transform="matrix(-0.999993 0.0037889 0.0037889 0.999993 235.734 1162)" fill="#F4F4F4"/>
<circle cx="7" cy="7" r="7" transform="matrix(-0.999993 0.0037889 0.0037889 0.999993 235.484 1119)" fill="#F4F4F4"/>
<circle cx="7" cy="7" r="7" transform="matrix(-0.999993 0.0037889 0.0037889 0.999993 235.234 1076)" fill="#F4F4F4"/>
<circle cx="7" cy="7" r="7" transform="matrix(-0.999993 0.0037889 0.0037889 0.999993 234.984 1033.01)" fill="#F4F4F4"/>
<circle cx="7" cy="7" r="7" transform="matrix(-0.999993 0.0037889 0.0037889 0.999993 234.742 990.008)" fill="#F4F4F4"/>
<circle cx="7" cy="7" r="7" transform="matrix(-0.999993 0.0037889 0.0037889 0.999993 234.492 947.008)" fill="#F4F4F4"/>
<circle cx="7" cy="7" r="7" transform="matrix(-0.999993 0.0037889 0.0037889 0.999993 234.242 904.008)" fill="#F4F4F4"/>
<circle cx="7" cy="7" r="7" transform="matrix(-0.999993 0.0037889 0.0037889 0.999993 233.992 861.008)" fill="#F4F4F4"/>
<circle cx="7" cy="7" r="7" transform="matrix(-0.999993 0.0037889 0.0037889 0.999993 233.5 775.008)" fill="#F4F4F4"/>
<circle cx="7" cy="7" r="7" transform="matrix(-0.999993 0.0037889 0.0037889 0.999993 233.742 818.008)" fill="#F4F4F4"/>
<circle cx="7" cy="7" r="7" transform="matrix(-0.999993 0.0037889 0.0037889 0.999993 233.25 732.008)" fill="#F4F4F4"/>
<circle cx="7" cy="7" r="7" transform="matrix(-0.999993 0.0037889 0.0037889 0.999993 233 689.008)" fill="#F4F4F4"/>
<circle cx="7" cy="7" r="7" transform="matrix(-0.999993 0.0037889 0.0037889 0.999993 232.75 646.008)" fill="#F4F4F4"/>
<circle cx="7" cy="7" r="7" transform="matrix(-0.999993 0.0037889 0.0037889 0.999993 232.5 603.008)" fill="#F4F4F4"/>
<circle cx="7" cy="7" r="7" transform="matrix(-0.999993 0.0037889 0.0037889 0.999993 232.258 560.016)" fill="#F4F4F4"/>
<circle cx="7" cy="7" r="7" transform="matrix(-0.999993 0.0037889 0.0037889 0.999993 232.008 517.016)" fill="#F4F4F4"/>
<circle cx="7" cy="7" r="7" transform="matrix(-0.999993 0.0037889 0.0037889 0.999993 231.758 474.016)" fill="#F4F4F4"/>
<circle cx="7" cy="7" r="7" transform="matrix(-0.999993 0.0037889 0.0037889 0.999993 231.508 431.016)" fill="#F4F4F4"/>
<circle cx="7" cy="7" r="7" transform="matrix(-0.999993 0.0037889 0.0037889 0.999993 231.266 388.016)" fill="#F4F4F4"/>
<circle cx="7" cy="7" r="7" transform="matrix(-0.999993 0.0037889 0.0037889 0.999993 231.016 345.016)" fill="#F4F4F4" fill-opacity="0.5"/>
<circle cx="7" cy="7" r="7" transform="matrix(-0.999993 0.0037889 0.0037889 0.999993 230.766 302.016)" fill="#F4F4F4" fill-opacity="0.5"/>
<circle cx="7" cy="7" r="7" transform="matrix(-0.999993 0.0037889 0.0037889 0.999993 230.516 259.016)" fill="#F4F4F4"/>
<circle cx="7" cy="7" r="7" transform="matrix(-0.999993 0.0037889 0.0037889 0.999993 230.266 216.016)" fill="#F4F4F4" fill-opacity="0.5"/>
<circle cx="7" cy="7" r="7" transform="matrix(-0.999993 0.0037889 0.0037889 0.999993 230.023 173.016)" fill="#F4F4F4" fill-opacity="0.5"/>
<circle cx="7" cy="7" r="7" transform="matrix(-0.999993 0.0037889 0.0037889 0.999993 229.773 130.023)" fill="#F4F4F4" fill-opacity="0.5"/>
<circle cx="7" cy="7" r="7" transform="matrix(-0.999993 0.0037889 0.0037889 0.999993 229.523 87.0234)" fill="#F4F4F4"/>
<circle cx="7" cy="7" r="7" transform="matrix(-0.999993 0.0037889 0.0037889 0.999993 229.273 44.0234)" fill="#F4F4F4"/>
<circle cx="7" cy="7" r="7" transform="matrix(-0.999993 0.0037889 0.0037889 0.999993 229.023 1.02344)" fill="#F4F4F4"/>
<circle cx="7" cy="7" r="7" transform="matrix(-0.999993 0.0037889 0.0037889 0.999993 280.461 1462.75)" fill="#F4F4F4"/>
<circle cx="7" cy="7" r="7" transform="matrix(-0.999993 0.0037889 0.0037889 0.999993 280.211 1419.75)" fill="#F4F4F4"/>
<circle cx="7" cy="7" r="7" transform="matrix(-0.999993 0.0037889 0.0037889 0.999993 279.719 1333.75)" fill="#F4F4F4"/>
<circle cx="7" cy="7" r="7" transform="matrix(-0.999993 0.0037889 0.0037889 0.999993 279.969 1376.75)" fill="#F4F4F4"/>
<circle cx="7" cy="7" r="7" transform="matrix(-0.999993 0.0037889 0.0037889 0.999993 279.469 1290.75)" fill="#F4F4F4"/>
<circle cx="7" cy="7" r="7" transform="matrix(-0.999993 0.0037889 0.0037889 0.999993 279.219 1247.75)" fill="#F4F4F4"/>
<circle cx="7" cy="7" r="7" transform="matrix(-0.999993 0.0037889 0.0037889 0.999993 278.969 1204.75)" fill="#F4F4F4"/>
<circle cx="7" cy="7" r="7" transform="matrix(-0.999993 0.0037889 0.0037889 0.999993 278.727 1161.75)" fill="#F4F4F4"/>
<circle cx="7" cy="7" r="7" transform="matrix(-0.999993 0.0037889 0.0037889 0.999993 278.477 1118.75)" fill="#F4F4F4"/>
<circle cx="7" cy="7" r="7" transform="matrix(-0.999993 0.0037889 0.0037889 0.999993 278.227 1075.75)" fill="#F4F4F4"/>
<circle cx="7" cy="7" r="7" transform="matrix(-0.999993 0.0037889 0.0037889 0.999993 277.977 1032.76)" fill="#F4F4F4"/>
<circle cx="7" cy="7" r="7" transform="matrix(-0.999993 0.0037889 0.0037889 0.999993 277.734 989.758)" fill="#F4F4F4"/>
<circle cx="7" cy="7" r="7" transform="matrix(-0.999993 0.0037889 0.0037889 0.999993 277.484 946.758)" fill="#F4F4F4"/>
<circle cx="7" cy="7" r="7" transform="matrix(-0.999993 0.0037889 0.0037889 0.999993 277.234 903.758)" fill="#F4F4F4"/>
<circle cx="7" cy="7" r="7" transform="matrix(-0.999993 0.0037889 0.0037889 0.999993 276.984 860.758)" fill="#F4F4F4"/>
<circle cx="7" cy="7" r="7" transform="matrix(-0.999993 0.0037889 0.0037889 0.999993 276.492 774.758)" fill="#F4F4F4"/>
<circle cx="7" cy="7" r="7" transform="matrix(-0.999993 0.0037889 0.0037889 0.999993 276.734 817.758)" fill="#F4F4F4"/>
<circle cx="7" cy="7" r="7" transform="matrix(-0.999993 0.0037889 0.0037889 0.999993 276.242 731.758)" fill="#F4F4F4"/>
<circle cx="7" cy="7" r="7" transform="matrix(-0.999993 0.0037889 0.0037889 0.999993 275.992 688.758)" fill="#F4F4F4"/>
<circle cx="7" cy="7" r="7" transform="matrix(-0.999993 0.0037889 0.0037889 0.999993 275.742 645.758)" fill="#F4F4F4"/>
<circle cx="7" cy="7" r="7" transform="matrix(-0.999993 0.0037889 0.0037889 0.999993 275.492 602.758)" fill="#F4F4F4"/>
<circle cx="7" cy="7" r="7" transform="matrix(-0.999993 0.0037889 0.0037889 0.999993 275.25 559.766)" fill="#F4F4F4"/>
<circle cx="7" cy="7" r="7" transform="matrix(-0.999993 0.0037889 0.0037889 0.999993 275 516.766)" fill="#F4F4F4"/>
<circle cx="7" cy="7" r="7" transform="matrix(-0.999993 0.0037889 0.0037889 0.999993 274.75 473.766)" fill="#F4F4F4"/>
<circle cx="7" cy="7" r="7" transform="matrix(-0.999993 0.0037889 0.0037889 0.999993 274.5 430.766)" fill="#F4F4F4"/>
<circle cx="7" cy="7" r="7" transform="matrix(-0.999993 0.0037889 0.0037889 0.999993 274.258 387.766)" fill="#F4F4F4"/>
<circle cx="7" cy="7" r="7" transform="matrix(-0.999993 0.0037889 0.0037889 0.999993 274.008 344.766)" fill="#F4F4F4"/>
<circle cx="7" cy="7" r="7" transform="matrix(-0.999993 0.0037889 0.0037889 0.999993 273.758 301.766)" fill="#F4F4F4"/>
<circle cx="7" cy="7" r="7" transform="matrix(-0.999993 0.0037889 0.0037889 0.999993 273.508 258.766)" fill="#F4F4F4"/>
<circle cx="7" cy="7" r="7" transform="matrix(-0.999993 0.0037889 0.0037889 0.999993 273.258 215.766)" fill="#F4F4F4"/>
<circle cx="7" cy="7" r="7" transform="matrix(-0.999993 0.0037889 0.0037889 0.999993 273.016 172.766)" fill="#F4F4F4"/>
<circle cx="7" cy="7" r="7" transform="matrix(-0.999993 0.0037889 0.0037889 0.999993 272.766 129.773)" fill="#F4F4F4"/>
<circle cx="7" cy="7" r="7" transform="matrix(-0.999993 0.0037889 0.0037889 0.999993 272.516 86.7734)" fill="#F4F4F4"/>
<circle cx="7" cy="7" r="7" transform="matrix(-0.999993 0.0037889 0.0037889 0.999993 272.266 43.7734)" fill="#F4F4F4"/>
<circle cx="7" cy="7" r="7" transform="matrix(-0.999993 0.0037889 0.0037889 0.999993 272.016 0.773438)" fill="#F4F4F4"/>
<circle cx="7" cy="7" r="7" transform="matrix(-0.999993 0.0037889 0.0037889 0.999993 323.461 1462.51)" fill="#F4F4F4"/>
<circle cx="7" cy="7" r="7" transform="matrix(-0.999993 0.0037889 0.0037889 0.999993 323.211 1419.51)" fill="#F4F4F4"/>
<circle cx="7" cy="7" r="7" transform="matrix(-0.999993 0.0037889 0.0037889 0.999993 322.719 1333.51)" fill="#F4F4F4"/>
<circle cx="7" cy="7" r="7" transform="matrix(-0.999993 0.0037889 0.0037889 0.999993 322.969 1376.51)" fill="#F4F4F4"/>
<circle cx="7" cy="7" r="7" transform="matrix(-0.999993 0.0037889 0.0037889 0.999993 322.469 1290.51)" fill="#F4F4F4"/>
<circle cx="7" cy="7" r="7" transform="matrix(-0.999993 0.0037889 0.0037889 0.999993 322.219 1247.51)" fill="#F4F4F4"/>
<circle cx="7" cy="7" r="7" transform="matrix(-0.999993 0.0037889 0.0037889 0.999993 321.969 1204.51)" fill="#F4F4F4"/>
<circle cx="7" cy="7" r="7" transform="matrix(-0.999993 0.0037889 0.0037889 0.999993 321.727 1161.51)" fill="#F4F4F4"/>
<circle cx="7" cy="7" r="7" transform="matrix(-0.999993 0.0037889 0.0037889 0.999993 321.477 1118.51)" fill="#F4F4F4"/>
<circle cx="7" cy="7" r="7" transform="matrix(-0.999993 0.0037889 0.0037889 0.999993 321.227 1075.51)" fill="#F4F4F4"/>
<circle cx="7" cy="7" r="7" transform="matrix(-0.999993 0.0037889 0.0037889 0.999993 320.977 1032.52)" fill="#F4F4F4"/>
<circle cx="7" cy="7" r="7" transform="matrix(-0.999993 0.0037889 0.0037889 0.999993 320.734 989.516)" fill="#F4F4F4"/>
<circle cx="7" cy="7" r="7" transform="matrix(-0.999993 0.0037889 0.0037889 0.999993 320.484 946.516)" fill="#F4F4F4"/>
<circle cx="7" cy="7" r="7" transform="matrix(-0.999993 0.0037889 0.0037889 0.999993 320.234 903.516)" fill="#F4F4F4"/>
<circle cx="7" cy="7" r="7" transform="matrix(-0.999993 0.0037889 0.0037889 0.999993 319.984 860.516)" fill="#F4F4F4"/>
<circle cx="7" cy="7" r="7" transform="matrix(-0.999993 0.0037889 0.0037889 0.999993 319.492 774.516)" fill="#F4F4F4"/>
<circle cx="7" cy="7" r="7" transform="matrix(-0.999993 0.0037889 0.0037889 0.999993 319.734 817.516)" fill="#F4F4F4"/>
<circle cx="7" cy="7" r="7" transform="matrix(-0.999993 0.0037889 0.0037889 0.999993 319.242 731.516)" fill="#F4F4F4"/>
<circle cx="7" cy="7" r="7" transform="matrix(-0.999993 0.0037889 0.0037889 0.999993 318.992 688.516)" fill="#F4F4F4"/>
<circle cx="7" cy="7" r="7" transform="matrix(-0.999993 0.0037889 0.0037889 0.999993 318.742 645.516)" fill="#F4F4F4"/>
<circle cx="7" cy="7" r="7" transform="matrix(-0.999993 0.0037889 0.0037889 0.999993 318.492 602.516)" fill="#F4F4F4"/>
<circle cx="7" cy="7" r="7" transform="matrix(-0.999993 0.0037889 0.0037889 0.999993 318.25 559.523)" fill="#F4F4F4"/>
<circle cx="7" cy="7" r="7" transform="matrix(-0.999993 0.0037889 0.0037889 0.999993 318 516.523)" fill="#F4F4F4"/>
<circle cx="7" cy="7" r="7" transform="matrix(-0.999993 0.0037889 0.0037889 0.999993 317.75 473.523)" fill="#F4F4F4"/>
<circle cx="7" cy="7" r="7" transform="matrix(-0.999993 0.0037889 0.0037889 0.999993 317.5 430.523)" fill="#F4F4F4"/>
<circle cx="7" cy="7" r="7" transform="matrix(-0.999993 0.0037889 0.0037889 0.999993 317.258 387.523)" fill="#F4F4F4"/>
<circle cx="7" cy="7" r="7" transform="matrix(-0.999993 0.0037889 0.0037889 0.999993 317.008 344.523)" fill="#F4F4F4"/>
<circle cx="7" cy="7" r="7" transform="matrix(-0.999993 0.0037889 0.0037889 0.999993 316.758 301.523)" fill="#F4F4F4"/>
<circle cx="7" cy="7" r="7" transform="matrix(-0.999993 0.0037889 0.0037889 0.999993 316.508 258.523)" fill="#F4F4F4"/>
<circle cx="7" cy="7" r="7" transform="matrix(-0.999993 0.0037889 0.0037889 0.999993 316.258 215.523)" fill="#F4F4F4"/>
<circle cx="7" cy="7" r="7" transform="matrix(-0.999993 0.0037889 0.0037889 0.999993 316.016 172.523)" fill="#F4F4F4"/>
<circle cx="7" cy="7" r="7" transform="matrix(-0.999993 0.0037889 0.0037889 0.999993 315.766 129.531)" fill="#F4F4F4"/>
<circle cx="7" cy="7" r="7" transform="matrix(-0.999993 0.0037889 0.0037889 0.999993 315.516 86.5312)" fill="#F4F4F4"/>
<circle cx="7" cy="7" r="7" transform="matrix(-0.999993 0.0037889 0.0037889 0.999993 315.266 43.5312)" fill="#F4F4F4"/>
<circle cx="7" cy="7" r="7" transform="matrix(-0.999993 0.0037889 0.0037889 0.999993 315.016 0.53125)" fill="#F4F4F4"/>
<circle cx="7" cy="7" r="7" transform="matrix(-0.999993 0.0037889 0.0037889 0.999993 366.461 1462.26)" fill="#F4F4F4"/>
<circle cx="7" cy="7" r="7" transform="matrix(-0.999993 0.0037889 0.0037889 0.999993 366.211 1419.26)" fill="#F4F4F4"/>
<circle cx="7" cy="7" r="7" transform="matrix(-0.999993 0.0037889 0.0037889 0.999993 365.719 1333.26)" fill="#F4F4F4"/>
<circle cx="7" cy="7" r="7" transform="matrix(-0.999993 0.0037889 0.0037889 0.999993 365.969 1376.26)" fill="#F4F4F4"/>
<circle cx="7" cy="7" r="7" transform="matrix(-0.999993 0.0037889 0.0037889 0.999993 365.469 1290.26)" fill="#F4F4F4"/>
<circle cx="7" cy="7" r="7" transform="matrix(-0.999993 0.0037889 0.0037889 0.999993 365.219 1247.26)" fill="#F4F4F4"/>
<circle cx="7" cy="7" r="7" transform="matrix(-0.999993 0.0037889 0.0037889 0.999993 364.969 1204.26)" fill="#F4F4F4"/>
<circle cx="7" cy="7" r="7" transform="matrix(-0.999993 0.0037889 0.0037889 0.999993 364.727 1161.26)" fill="#F4F4F4"/>
<circle cx="7" cy="7" r="7" transform="matrix(-0.999993 0.0037889 0.0037889 0.999993 364.477 1118.26)" fill="#F4F4F4"/>
<circle cx="7" cy="7" r="7" transform="matrix(-0.999993 0.0037889 0.0037889 0.999993 364.227 1075.26)" fill="#F4F4F4"/>
<circle cx="7" cy="7" r="7" transform="matrix(-0.999993 0.0037889 0.0037889 0.999993 363.977 1032.27)" fill="#F4F4F4"/>
<circle cx="7" cy="7" r="7" transform="matrix(-0.999993 0.0037889 0.0037889 0.999993 363.734 989.266)" fill="#F4F4F4"/>
<circle cx="7" cy="7" r="7" transform="matrix(-0.999993 0.0037889 0.0037889 0.999993 363.484 946.266)" fill="#F4F4F4"/>
<circle cx="7" cy="7" r="7" transform="matrix(-0.999993 0.0037889 0.0037889 0.999993 363.234 903.266)" fill="#F4F4F4"/>
<circle cx="7" cy="7" r="7" transform="matrix(-0.999993 0.0037889 0.0037889 0.999993 362.984 860.266)" fill="#F4F4F4"/>
<circle cx="7" cy="7" r="7" transform="matrix(-0.999993 0.0037889 0.0037889 0.999993 362.492 774.266)" fill="#F4F4F4"/>
<circle cx="7" cy="7" r="7" transform="matrix(-0.999993 0.0037889 0.0037889 0.999993 362.734 817.266)" fill="#F4F4F4"/>
<circle cx="7" cy="7" r="7" transform="matrix(-0.999993 0.0037889 0.0037889 0.999993 362.242 731.266)" fill="#F4F4F4"/>
<circle cx="7" cy="7" r="7" transform="matrix(-0.999993 0.0037889 0.0037889 0.999993 361.992 688.266)" fill="#F4F4F4"/>
<circle cx="7" cy="7" r="7" transform="matrix(-0.999993 0.0037889 0.0037889 0.999993 361.742 645.266)" fill="#F4F4F4"/>
<circle cx="7" cy="7" r="7" transform="matrix(-0.999993 0.0037889 0.0037889 0.999993 361.492 602.266)" fill="#F4F4F4"/>
<circle cx="7" cy="7" r="7" transform="matrix(-0.999993 0.0037889 0.0037889 0.999993 361.25 559.273)" fill="#F4F4F4"/>
<circle cx="7" cy="7" r="7" transform="matrix(-0.999993 0.0037889 0.0037889 0.999993 361 516.273)" fill="#F4F4F4"/>
<circle cx="7" cy="7" r="7" transform="matrix(-0.999993 0.0037889 0.0037889 0.999993 360.75 473.273)" fill="#F4F4F4"/>
<circle cx="7" cy="7" r="7" transform="matrix(-0.999993 0.0037889 0.0037889 0.999993 360.5 430.273)" fill="#F4F4F4"/>
<circle cx="7" cy="7" r="7" transform="matrix(-0.999993 0.0037889 0.0037889 0.999993 360.258 387.273)" fill="#F4F4F4"/>
<circle cx="7" cy="7" r="7" transform="matrix(-0.999993 0.0037889 0.0037889 0.999993 360.008 344.273)" fill="#F4F4F4"/>
<circle cx="7" cy="7" r="7" transform="matrix(-0.999993 0.0037889 0.0037889 0.999993 359.758 301.273)" fill="#F4F4F4"/>
<circle cx="7" cy="7" r="7" transform="matrix(-0.999993 0.0037889 0.0037889 0.999993 359.508 258.273)" fill="#F4F4F4"/>
<circle cx="7" cy="7" r="7" transform="matrix(-0.999993 0.0037889 0.0037889 0.999993 359.258 215.273)" fill="#F4F4F4"/>
<circle cx="7" cy="7" r="7" transform="matrix(-0.999993 0.0037889 0.0037889 0.999993 359.016 172.273)" fill="#F4F4F4"/>
<circle cx="7" cy="7" r="7" transform="matrix(-0.999993 0.0037889 0.0037889 0.999993 358.766 129.281)" fill="#F4F4F4"/>
<circle cx="7" cy="7" r="7" transform="matrix(-0.999993 0.0037889 0.0037889 0.999993 358.516 86.2812)" fill="#F4F4F4"/>
<circle cx="7" cy="7" r="7" transform="matrix(-0.999993 0.0037889 0.0037889 0.999993 358.266 43.2812)" fill="#F4F4F4"/>
<circle cx="7" cy="7" r="7" transform="matrix(-0.999993 0.0037889 0.0037889 0.999993 358.016 0.28125)" fill="#F4F4F4"/>
</svg>
