<svg width="377" height="1460" viewBox="0 0 377 1460" fill="none" xmlns="http://www.w3.org/2000/svg">
<circle cx="7" cy="7" r="7" transform="matrix(-0.999993 0.0037889 0.0037889 0.999993 32.2188 1420.99)" fill="#F4F4F4"/>
<circle cx="7" cy="7" r="7" transform="matrix(-0.999993 0.0037889 0.0037889 0.999993 31.7266 1334.99)" fill="#F4F4F4"/>
<circle cx="7" cy="7" r="7" transform="matrix(-0.999993 0.0037889 0.0037889 0.999993 31.9766 1377.99)" fill="#F4F4F4"/>
<circle cx="7" cy="7" r="7" transform="matrix(-0.999993 0.0037889 0.0037889 0.999993 31.4766 1291.99)" fill="#F4F4F4"/>
<circle cx="7" cy="7" r="7" transform="matrix(-0.999993 0.0037889 0.0037889 0.999993 31.2266 1248.99)" fill="#F4F4F4"/>
<circle cx="7" cy="7" r="7" transform="matrix(-0.999993 0.0037889 0.0037889 0.999993 30.9766 1205.99)" fill="#F4F4F4"/>
<circle cx="7" cy="7" r="7" transform="matrix(-0.999993 0.0037889 0.0037889 0.999993 30.7344 1162.99)" fill="#F4F4F4"/>
<circle cx="7" cy="7" r="7" transform="matrix(-0.999993 0.0037889 0.0037889 0.999993 30.4844 1119.99)" fill="#F4F4F4"/>
<circle cx="7" cy="7" r="7" transform="matrix(-0.999993 0.0037889 0.0037889 0.999993 30.2344 1076.99)" fill="#F4F4F4"/>
<circle cx="7" cy="7" r="7" transform="matrix(-0.999993 0.0037889 0.0037889 0.999993 29.9844 1034)" fill="#F4F4F4"/>
<circle cx="7" cy="7" r="7" transform="matrix(-0.999993 0.0037889 0.0037889 0.999993 29.7422 991)" fill="#F4F4F4"/>
<circle cx="7" cy="7" r="7" transform="matrix(-0.999993 0.0037889 0.0037889 0.999993 29.4922 948)" fill="#F4F4F4"/>
<circle cx="7" cy="7" r="7" transform="matrix(-0.999993 0.0037889 0.0037889 0.999993 29.2422 905)" fill="#F4F4F4"/>
<circle cx="7" cy="7" r="7" transform="matrix(-0.999993 0.0037889 0.0037889 0.999993 28.9922 862)" fill="#F4F4F4"/>
<circle cx="7" cy="7" r="7" transform="matrix(-0.999993 0.0037889 0.0037889 0.999993 28.5 776)" fill="#F4F4F4"/>
<circle cx="7" cy="7" r="7" transform="matrix(-0.999993 0.0037889 0.0037889 0.999993 28.7422 819)" fill="#F4F4F4"/>
<circle cx="7" cy="7" r="7" transform="matrix(-0.999993 0.0037889 0.0037889 0.999993 28.25 733)" fill="#F4F4F4"/>
<circle cx="7" cy="7" r="7" transform="matrix(-0.999993 0.0037889 0.0037889 0.999993 28 690)" fill="#F4F4F4"/>
<circle cx="7" cy="7" r="7" transform="matrix(-0.999993 0.0037889 0.0037889 0.999993 27.75 647)" fill="#F4F4F4"/>
<circle cx="7" cy="7" r="7" transform="matrix(-0.999993 0.0037889 0.0037889 0.999993 27.5 604)" fill="#F4F4F4"/>
<circle cx="7" cy="7" r="7" transform="matrix(-0.999993 0.0037889 0.0037889 0.999993 27.2578 561.008)" fill="#F4F4F4"/>
<circle cx="7" cy="7" r="7" transform="matrix(-0.999993 0.0037889 0.0037889 0.999993 27.0078 518.008)" fill="#F4F4F4"/>
<circle cx="7" cy="7" r="7" transform="matrix(-0.999993 0.0037889 0.0037889 0.999993 26.7578 475.008)" fill="#F4F4F4"/>
<circle cx="7" cy="7" r="7" transform="matrix(-0.999993 0.0037889 0.0037889 0.999993 26.5078 432.008)" fill="#F4F4F4"/>
<circle cx="7" cy="7" r="7" transform="matrix(-0.999993 0.0037889 0.0037889 0.999993 26.2656 389.008)" fill="#F4F4F4"/>
<circle cx="7" cy="7" r="7" transform="matrix(-0.999993 0.0037889 0.0037889 0.999993 26.0156 346.008)" fill="#F4F4F4"/>
<circle cx="7" cy="7" r="7" transform="matrix(-0.999993 0.0037889 0.0037889 0.999993 25.7656 303.008)" fill="#F4F4F4"/>
<circle cx="7" cy="7" r="7" transform="matrix(-0.999993 0.0037889 0.0037889 0.999993 25.5156 260.008)" fill="#F4F4F4"/>
<circle cx="7" cy="7" r="7" transform="matrix(-0.999993 0.0037889 0.0037889 0.999993 25.2656 217.008)" fill="#F4F4F4"/>
<circle cx="7" cy="7" r="7" transform="matrix(-0.999993 0.0037889 0.0037889 0.999993 25.0234 174.008)" fill="#F4F4F4"/>
<circle cx="7" cy="7" r="7" transform="matrix(-0.999993 0.0037889 0.0037889 0.999993 24.7734 131.016)" fill="#F4F4F4"/>
<circle cx="7" cy="7" r="7" transform="matrix(-0.999993 0.0037889 0.0037889 0.999993 24.5234 88.0156)" fill="#F4F4F4"/>
<circle cx="7" cy="7" r="7" transform="matrix(-0.999993 0.0037889 0.0037889 0.999993 24.2734 45.0156)" fill="#F4F4F4"/>
<circle cx="7" cy="7" r="7" transform="matrix(-0.999993 0.0037889 0.0037889 0.999993 24.0234 2.01562)" fill="#F4F4F4"/>
<circle cx="7" cy="7" r="7" transform="matrix(-0.999993 0.0037889 0.0037889 0.999993 75.2188 1420.74)" fill="#F4F4F4"/>
<circle cx="7" cy="7" r="7" transform="matrix(-0.999993 0.0037889 0.0037889 0.999993 74.7266 1334.74)" fill="#F4F4F4"/>
<circle cx="7" cy="7" r="7" transform="matrix(-0.999993 0.0037889 0.0037889 0.999993 74.9766 1377.74)" fill="#F4F4F4"/>
<circle cx="7" cy="7" r="7" transform="matrix(-0.999993 0.0037889 0.0037889 0.999993 74.4766 1291.74)" fill="#F4F4F4"/>
<circle cx="7" cy="7" r="7" transform="matrix(-0.999993 0.0037889 0.0037889 0.999993 74.2266 1248.74)" fill="#F4F4F4"/>
<circle cx="7" cy="7" r="7" transform="matrix(-0.999993 0.0037889 0.0037889 0.999993 73.9766 1205.74)" fill="#F4F4F4"/>
<circle cx="7" cy="7" r="7" transform="matrix(-0.999993 0.0037889 0.0037889 0.999993 73.7344 1162.74)" fill="#F4F4F4"/>
<circle cx="7" cy="7" r="7" transform="matrix(-0.999993 0.0037889 0.0037889 0.999993 73.4844 1119.74)" fill="#F4F4F4"/>
<circle cx="7" cy="7" r="7" transform="matrix(-0.999993 0.0037889 0.0037889 0.999993 73.2344 1076.74)" fill="#F4F4F4"/>
<circle cx="7" cy="7" r="7" transform="matrix(-0.999993 0.0037889 0.0037889 0.999993 72.9844 1033.75)" fill="#F4F4F4"/>
<circle cx="7" cy="7" r="7" transform="matrix(-0.999993 0.0037889 0.0037889 0.999993 72.7422 990.75)" fill="#F4F4F4"/>
<circle cx="7" cy="7" r="7" transform="matrix(-0.999993 0.0037889 0.0037889 0.999993 72.4922 947.75)" fill="#F4F4F4"/>
<circle cx="7" cy="7" r="7" transform="matrix(-0.999993 0.0037889 0.0037889 0.999993 72.2422 904.75)" fill="#F4F4F4"/>
<circle cx="7" cy="7" r="7" transform="matrix(-0.999993 0.0037889 0.0037889 0.999993 71.9922 861.75)" fill="#F4F4F4"/>
<circle cx="7" cy="7" r="7" transform="matrix(-0.999993 0.0037889 0.0037889 0.999993 71.5 775.75)" fill="#F4F4F4"/>
<circle cx="7" cy="7" r="7" transform="matrix(-0.999993 0.0037889 0.0037889 0.999993 71.7422 818.75)" fill="#F4F4F4"/>
<circle cx="7" cy="7" r="7" transform="matrix(-0.999993 0.0037889 0.0037889 0.999993 71.25 732.75)" fill="#F4F4F4"/>
<circle cx="7" cy="7" r="7" transform="matrix(-0.999993 0.0037889 0.0037889 0.999993 71 689.75)" fill="#F4F4F4"/>
<circle cx="7" cy="7" r="7" transform="matrix(-0.999993 0.0037889 0.0037889 0.999993 70.75 646.75)" fill="#F4F4F4"/>
<circle cx="7" cy="7" r="7" transform="matrix(-0.999993 0.0037889 0.0037889 0.999993 70.5 603.75)" fill="#F4F4F4"/>
<circle cx="7" cy="7" r="7" transform="matrix(-0.999993 0.0037889 0.0037889 0.999993 70.2578 560.758)" fill="#F4F4F4"/>
<circle cx="7" cy="7" r="7" transform="matrix(-0.999993 0.0037889 0.0037889 0.999993 70.0078 517.758)" fill="#F4F4F4"/>
<circle cx="7" cy="7" r="7" transform="matrix(-0.999993 0.0037889 0.0037889 0.999993 69.7578 474.758)" fill="#F4F4F4"/>
<circle cx="7" cy="7" r="7" transform="matrix(-0.999993 0.0037889 0.0037889 0.999993 69.5078 431.758)" fill="#F4F4F4"/>
<circle cx="7" cy="7" r="7" transform="matrix(-0.999993 0.0037889 0.0037889 0.999993 69.2656 388.758)" fill="#F4F4F4"/>
<circle cx="7" cy="7" r="7" transform="matrix(-0.999993 0.0037889 0.0037889 0.999993 69.0156 345.758)" fill="#F4F4F4"/>
<circle cx="7" cy="7" r="7" transform="matrix(-0.999993 0.0037889 0.0037889 0.999993 68.7656 302.758)" fill="#F4F4F4"/>
<circle cx="7" cy="7" r="7" transform="matrix(-0.999993 0.0037889 0.0037889 0.999993 68.5156 259.758)" fill="#F4F4F4"/>
<circle cx="7" cy="7" r="7" transform="matrix(-0.999993 0.0037889 0.0037889 0.999993 68.2656 216.758)" fill="#F4F4F4"/>
<circle cx="7" cy="7" r="7" transform="matrix(-0.999993 0.0037889 0.0037889 0.999993 68.0234 173.758)" fill="#F4F4F4"/>
<circle cx="7" cy="7" r="7" transform="matrix(-0.999993 0.0037889 0.0037889 0.999993 67.7734 130.766)" fill="#F4F4F4"/>
<circle cx="7" cy="7" r="7" transform="matrix(-0.999993 0.0037889 0.0037889 0.999993 67.5234 87.7656)" fill="#F4F4F4"/>
<circle cx="7" cy="7" r="7" transform="matrix(-0.999993 0.0037889 0.0037889 0.999993 67.2734 44.7656)" fill="#F4F4F4"/>
<circle cx="7" cy="7" r="7" transform="matrix(-0.999993 0.0037889 0.0037889 0.999993 67.0234 1.76562)" fill="#F4F4F4"/>
<circle cx="7" cy="7" r="7" transform="matrix(-0.999993 0.0037889 0.0037889 0.999993 118.219 1420.5)" fill="#F4F4F4"/>
<circle cx="7" cy="7" r="7" transform="matrix(-0.999993 0.0037889 0.0037889 0.999993 117.727 1334.5)" fill="#F4F4F4"/>
<circle cx="7" cy="7" r="7" transform="matrix(-0.999993 0.0037889 0.0037889 0.999993 117.977 1377.5)" fill="#F4F4F4"/>
<circle cx="7" cy="7" r="7" transform="matrix(-0.999993 0.0037889 0.0037889 0.999993 117.477 1291.5)" fill="#F4F4F4"/>
<circle cx="7" cy="7" r="7" transform="matrix(-0.999993 0.0037889 0.0037889 0.999993 117.227 1248.5)" fill="#F4F4F4"/>
<circle cx="7" cy="7" r="7" transform="matrix(-0.999993 0.0037889 0.0037889 0.999993 116.977 1205.5)" fill="#F4F4F4"/>
<circle cx="7" cy="7" r="7" transform="matrix(-0.999993 0.0037889 0.0037889 0.999993 116.734 1162.5)" fill="#F4F4F4"/>
<circle cx="7" cy="7" r="7" transform="matrix(-0.999993 0.0037889 0.0037889 0.999993 116.484 1119.5)" fill="#F4F4F4"/>
<circle cx="7" cy="7" r="7" transform="matrix(-0.999993 0.0037889 0.0037889 0.999993 116.234 1076.5)" fill="#F4F4F4"/>
<circle cx="7" cy="7" r="7" transform="matrix(-0.999993 0.0037889 0.0037889 0.999993 115.984 1033.51)" fill="#F4F4F4"/>
<circle cx="7" cy="7" r="7" transform="matrix(-0.999993 0.0037889 0.0037889 0.999993 115.742 990.508)" fill="#F4F4F4"/>
<circle cx="7" cy="7" r="7" transform="matrix(-0.999993 0.0037889 0.0037889 0.999993 115.492 947.508)" fill="#F4F4F4"/>
<circle cx="7" cy="7" r="7" transform="matrix(-0.999993 0.0037889 0.0037889 0.999993 115.242 904.508)" fill="#F4F4F4"/>
<circle cx="7" cy="7" r="7" transform="matrix(-0.999993 0.0037889 0.0037889 0.999993 114.992 861.508)" fill="#F4F4F4"/>
<circle cx="7" cy="7" r="7" transform="matrix(-0.999993 0.0037889 0.0037889 0.999993 114.5 775.508)" fill="#F4F4F4"/>
<circle cx="7" cy="7" r="7" transform="matrix(-0.999993 0.0037889 0.0037889 0.999993 114.742 818.508)" fill="#F4F4F4"/>
<circle cx="7" cy="7" r="7" transform="matrix(-0.999993 0.0037889 0.0037889 0.999993 114.25 732.508)" fill="#F4F4F4"/>
<circle cx="7" cy="7" r="7" transform="matrix(-0.999993 0.0037889 0.0037889 0.999993 114 689.508)" fill="#F4F4F4"/>
<circle cx="7" cy="7" r="7" transform="matrix(-0.999993 0.0037889 0.0037889 0.999993 113.75 646.508)" fill="#F4F4F4"/>
<circle cx="7" cy="7" r="7" transform="matrix(-0.999993 0.0037889 0.0037889 0.999993 113.5 603.508)" fill="#F4F4F4"/>
<circle cx="7" cy="7" r="7" transform="matrix(-0.999993 0.0037889 0.0037889 0.999993 113.258 560.516)" fill="#F4F4F4"/>
<circle cx="7" cy="7" r="7" transform="matrix(-0.999993 0.0037889 0.0037889 0.999993 113.008 517.516)" fill="#F4F4F4"/>
<circle cx="7" cy="7" r="7" transform="matrix(-0.999993 0.0037889 0.0037889 0.999993 112.758 474.516)" fill="#F4F4F4"/>
<circle cx="7" cy="7" r="7" transform="matrix(-0.999993 0.0037889 0.0037889 0.999993 112.508 431.516)" fill="#F4F4F4"/>
<circle cx="7" cy="7" r="7" transform="matrix(-0.999993 0.0037889 0.0037889 0.999993 112.266 388.516)" fill="#F4F4F4"/>
<circle cx="7" cy="7" r="7" transform="matrix(-0.999993 0.0037889 0.0037889 0.999993 112.016 345.516)" fill="#F4F4F4"/>
<circle cx="7" cy="7" r="7" transform="matrix(-0.999993 0.0037889 0.0037889 0.999993 111.766 302.516)" fill="#F4F4F4"/>
<circle cx="7" cy="7" r="7" transform="matrix(-0.999993 0.0037889 0.0037889 0.999993 111.516 259.516)" fill="#F4F4F4"/>
<circle cx="7" cy="7" r="7" transform="matrix(-0.999993 0.0037889 0.0037889 0.999993 111.266 216.516)" fill="#F4F4F4"/>
<circle cx="7" cy="7" r="7" transform="matrix(-0.999993 0.0037889 0.0037889 0.999993 111.023 173.516)" fill="#F4F4F4"/>
<circle cx="7" cy="7" r="7" transform="matrix(-0.999993 0.0037889 0.0037889 0.999993 110.773 130.523)" fill="#F4F4F4"/>
<circle cx="7" cy="7" r="7" transform="matrix(-0.999993 0.0037889 0.0037889 0.999993 110.523 87.5234)" fill="#F4F4F4"/>
<circle cx="7" cy="7" r="7" transform="matrix(-0.999993 0.0037889 0.0037889 0.999993 110.273 44.5234)" fill="#F4F4F4"/>
<circle cx="7" cy="7" r="7" transform="matrix(-0.999993 0.0037889 0.0037889 0.999993 110.023 1.52344)" fill="#F4F4F4"/>
<circle cx="7" cy="7" r="7" transform="matrix(-0.999993 0.0037889 0.0037889 0.999993 161.25 1420.25)" fill="#F4F4F4"/>
<circle cx="7" cy="7" r="7" transform="matrix(-0.999993 0.0037889 0.0037889 0.999993 160.758 1334.25)" fill="#F4F4F4"/>
<circle cx="7" cy="7" r="7" transform="matrix(-0.999993 0.0037889 0.0037889 0.999993 161.008 1377.25)" fill="#F4F4F4"/>
<circle cx="7" cy="7" r="7" transform="matrix(-0.999993 0.0037889 0.0037889 0.999993 160.508 1291.25)" fill="#F4F4F4"/>
<circle cx="7" cy="7" r="7" transform="matrix(-0.999993 0.0037889 0.0037889 0.999993 160.258 1248.25)" fill="#F4F4F4"/>
<circle cx="7" cy="7" r="7" transform="matrix(-0.999993 0.0037889 0.0037889 0.999993 160.008 1205.25)" fill="#F4F4F4"/>
<circle cx="7" cy="7" r="7" transform="matrix(-0.999993 0.0037889 0.0037889 0.999993 159.766 1162.25)" fill="#F4F4F4"/>
<circle cx="7" cy="7" r="7" transform="matrix(-0.999993 0.0037889 0.0037889 0.999993 159.516 1119.25)" fill="#F4F4F4"/>
<circle cx="7" cy="7" r="7" transform="matrix(-0.999993 0.0037889 0.0037889 0.999993 159.266 1076.25)" fill="#F4F4F4"/>
<circle cx="7" cy="7" r="7" transform="matrix(-0.999993 0.0037889 0.0037889 0.999993 159.016 1033.26)" fill="#F4F4F4"/>
<circle cx="7" cy="7" r="7" transform="matrix(-0.999993 0.0037889 0.0037889 0.999993 158.773 990.258)" fill="#F4F4F4"/>
<circle cx="7" cy="7" r="7" transform="matrix(-0.999993 0.0037889 0.0037889 0.999993 158.523 947.258)" fill="#F4F4F4"/>
<circle cx="7" cy="7" r="7" transform="matrix(-0.999993 0.0037889 0.0037889 0.999993 158.273 904.258)" fill="#F4F4F4"/>
<circle cx="7" cy="7" r="7" transform="matrix(-0.999993 0.0037889 0.0037889 0.999993 158.023 861.258)" fill="#F4F4F4"/>
<circle cx="7" cy="7" r="7" transform="matrix(-0.999993 0.0037889 0.0037889 0.999993 157.531 775.258)" fill="#F4F4F4"/>
<circle cx="7" cy="7" r="7" transform="matrix(-0.999993 0.0037889 0.0037889 0.999993 157.773 818.258)" fill="#F4F4F4"/>
<circle cx="7" cy="7" r="7" transform="matrix(-0.999993 0.0037889 0.0037889 0.999993 157.281 732.258)" fill="#F4F4F4"/>
<circle cx="7" cy="7" r="7" transform="matrix(-0.999993 0.0037889 0.0037889 0.999993 157.031 689.258)" fill="#F4F4F4"/>
<circle cx="7" cy="7" r="7" transform="matrix(-0.999993 0.0037889 0.0037889 0.999993 156.781 646.258)" fill="#F4F4F4"/>
<circle cx="7" cy="7" r="7" transform="matrix(-0.999993 0.0037889 0.0037889 0.999993 156.531 603.258)" fill="#F4F4F4"/>
<circle cx="7" cy="7" r="7" transform="matrix(-0.999993 0.0037889 0.0037889 0.999993 156.289 560.266)" fill="#F4F4F4"/>
<circle cx="7" cy="7" r="7" transform="matrix(-0.999993 0.0037889 0.0037889 0.999993 156.039 517.266)" fill="#F4F4F4"/>
<circle cx="7" cy="7" r="7" transform="matrix(-0.999993 0.0037889 0.0037889 0.999993 155.789 474.266)" fill="#F4F4F4"/>
<circle cx="7" cy="7" r="7" transform="matrix(-0.999993 0.0037889 0.0037889 0.999993 155.539 431.266)" fill="#F4F4F4"/>
<circle cx="7" cy="7" r="7" transform="matrix(-0.999993 0.0037889 0.0037889 0.999993 155.297 388.266)" fill="#F4F4F4"/>
<circle cx="7" cy="7" r="7" transform="matrix(-0.999993 0.0037889 0.0037889 0.999993 155.047 345.266)" fill="#F4F4F4"/>
<circle cx="7" cy="7" r="7" transform="matrix(-0.999993 0.0037889 0.0037889 0.999993 154.797 302.266)" fill="#F4F4F4"/>
<circle cx="7" cy="7" r="7" transform="matrix(-0.999993 0.0037889 0.0037889 0.999993 154.547 259.266)" fill="#F4F4F4"/>
<circle cx="7" cy="7" r="7" transform="matrix(-0.999993 0.0037889 0.0037889 0.999993 154.297 216.266)" fill="#F4F4F4"/>
<circle cx="7" cy="7" r="7" transform="matrix(-0.999993 0.0037889 0.0037889 0.999993 154.055 173.266)" fill="#F4F4F4"/>
<circle cx="7" cy="7" r="7" transform="matrix(-0.999993 0.0037889 0.0037889 0.999993 153.805 130.273)" fill="#F4F4F4"/>
<circle cx="7" cy="7" r="7" transform="matrix(-0.999993 0.0037889 0.0037889 0.999993 153.555 87.2734)" fill="#F4F4F4"/>
<circle cx="7" cy="7" r="7" transform="matrix(-0.999993 0.0037889 0.0037889 0.999993 153.305 44.2734)" fill="#F4F4F4"/>
<circle cx="7" cy="7" r="7" transform="matrix(-0.999993 0.0037889 0.0037889 0.999993 153.055 1.27344)" fill="#F4F4F4"/>
<circle cx="7" cy="7" r="7" transform="matrix(-0.999993 0.0037889 0.0037889 0.999993 204.219 1420)" fill="#F4F4F4"/>
<circle cx="7" cy="7" r="7" transform="matrix(-0.999993 0.0037889 0.0037889 0.999993 203.727 1334)" fill="#F4F4F4"/>
<circle cx="7" cy="7" r="7" transform="matrix(-0.999993 0.0037889 0.0037889 0.999993 203.977 1377)" fill="#F4F4F4"/>
<circle cx="7" cy="7" r="7" transform="matrix(-0.999993 0.0037889 0.0037889 0.999993 203.477 1291)" fill="#F4F4F4"/>
<circle cx="7" cy="7" r="7" transform="matrix(-0.999993 0.0037889 0.0037889 0.999993 203.227 1248)" fill="#F4F4F4"/>
<circle cx="7" cy="7" r="7" transform="matrix(-0.999993 0.0037889 0.0037889 0.999993 202.977 1205)" fill="#F4F4F4"/>
<circle cx="7" cy="7" r="7" transform="matrix(-0.999993 0.0037889 0.0037889 0.999993 202.734 1162)" fill="#F4F4F4"/>
<circle cx="7" cy="7" r="7" transform="matrix(-0.999993 0.0037889 0.0037889 0.999993 202.484 1119)" fill="#F4F4F4"/>
<circle cx="7" cy="7" r="7" transform="matrix(-0.999993 0.0037889 0.0037889 0.999993 202.234 1076)" fill="#F4F4F4"/>
<circle cx="7" cy="7" r="7" transform="matrix(-0.999993 0.0037889 0.0037889 0.999993 201.984 1033.01)" fill="#F4F4F4"/>
<circle cx="7" cy="7" r="7" transform="matrix(-0.999993 0.0037889 0.0037889 0.999993 201.742 990.008)" fill="#F4F4F4"/>
<circle cx="7" cy="7" r="7" transform="matrix(-0.999993 0.0037889 0.0037889 0.999993 201.492 947.008)" fill="#F4F4F4"/>
<circle cx="7" cy="7" r="7" transform="matrix(-0.999993 0.0037889 0.0037889 0.999993 201.242 904.008)" fill="#F4F4F4"/>
<circle cx="7" cy="7" r="7" transform="matrix(-0.999993 0.0037889 0.0037889 0.999993 200.992 861.008)" fill="#F4F4F4"/>
<circle cx="7" cy="7" r="7" transform="matrix(-0.999993 0.0037889 0.0037889 0.999993 200.5 775.008)" fill="#F4F4F4"/>
<circle cx="7" cy="7" r="7" transform="matrix(-0.999993 0.0037889 0.0037889 0.999993 200.742 818.008)" fill="#F4F4F4"/>
<circle cx="7" cy="7" r="7" transform="matrix(-0.999993 0.0037889 0.0037889 0.999993 200.25 732.008)" fill="#F4F4F4"/>
<circle cx="7" cy="7" r="7" transform="matrix(-0.999993 0.0037889 0.0037889 0.999993 200 689.008)" fill="#F4F4F4"/>
<circle cx="7" cy="7" r="7" transform="matrix(-0.999993 0.0037889 0.0037889 0.999993 199.75 646.008)" fill="#F4F4F4"/>
<circle cx="7" cy="7" r="7" transform="matrix(-0.999993 0.0037889 0.0037889 0.999993 199.5 603.008)" fill="#F4F4F4"/>
<circle cx="7" cy="7" r="7" transform="matrix(-0.999993 0.0037889 0.0037889 0.999993 199.258 560.016)" fill="#F4F4F4"/>
<circle cx="7" cy="7" r="7" transform="matrix(-0.999993 0.0037889 0.0037889 0.999993 199.008 517.016)" fill="#F4F4F4"/>
<circle cx="7" cy="7" r="7" transform="matrix(-0.999993 0.0037889 0.0037889 0.999993 198.758 474.016)" fill="#F4F4F4"/>
<circle cx="7" cy="7" r="7" transform="matrix(-0.999993 0.0037889 0.0037889 0.999993 198.508 431.016)" fill="#F4F4F4"/>
<circle cx="7" cy="7" r="7" transform="matrix(-0.999993 0.0037889 0.0037889 0.999993 198.266 388.016)" fill="#F4F4F4"/>
<circle cx="7" cy="7" r="7" transform="matrix(-0.999993 0.0037889 0.0037889 0.999993 198.016 345.016)" fill="#F4F4F4"/>
<circle cx="7" cy="7" r="7" transform="matrix(-0.999993 0.0037889 0.0037889 0.999993 197.766 302.016)" fill="#F4F4F4"/>
<circle cx="7" cy="7" r="7" transform="matrix(-0.999993 0.0037889 0.0037889 0.999993 197.516 259.016)" fill="#F4F4F4"/>
<circle cx="7" cy="7" r="7" transform="matrix(-0.999993 0.0037889 0.0037889 0.999993 197.266 216.016)" fill="#F4F4F4"/>
<circle cx="7" cy="7" r="7" transform="matrix(-0.999993 0.0037889 0.0037889 0.999993 197.023 173.016)" fill="#F4F4F4"/>
<circle cx="7" cy="7" r="7" transform="matrix(-0.999993 0.0037889 0.0037889 0.999993 196.773 130.023)" fill="#F4F4F4"/>
<circle cx="7" cy="7" r="7" transform="matrix(-0.999993 0.0037889 0.0037889 0.999993 196.523 87.0234)" fill="#F4F4F4"/>
<circle cx="7" cy="7" r="7" transform="matrix(-0.999993 0.0037889 0.0037889 0.999993 196.273 44.0234)" fill="#F4F4F4"/>
<circle cx="7" cy="7" r="7" transform="matrix(-0.999993 0.0037889 0.0037889 0.999993 196.023 1.02344)" fill="#F4F4F4"/>
<circle cx="7" cy="7" r="7" transform="matrix(-0.999993 0.0037889 0.0037889 0.999993 247.211 1419.75)" fill="#F4F4F4"/>
<circle cx="7" cy="7" r="7" transform="matrix(-0.999993 0.0037889 0.0037889 0.999993 246.719 1333.75)" fill="#F4F4F4"/>
<circle cx="7" cy="7" r="7" transform="matrix(-0.999993 0.0037889 0.0037889 0.999993 246.969 1376.75)" fill="#F4F4F4"/>
<circle cx="7" cy="7" r="7" transform="matrix(-0.999993 0.0037889 0.0037889 0.999993 246.469 1290.75)" fill="#F4F4F4"/>
<circle cx="7" cy="7" r="7" transform="matrix(-0.999993 0.0037889 0.0037889 0.999993 246.219 1247.75)" fill="#F4F4F4"/>
<circle cx="7" cy="7" r="7" transform="matrix(-0.999993 0.0037889 0.0037889 0.999993 245.969 1204.75)" fill="#F4F4F4"/>
<circle cx="7" cy="7" r="7" transform="matrix(-0.999993 0.0037889 0.0037889 0.999993 245.727 1161.75)" fill="#F4F4F4"/>
<circle cx="7" cy="7" r="7" transform="matrix(-0.999993 0.0037889 0.0037889 0.999993 245.477 1118.75)" fill="#F4F4F4"/>
<circle cx="7" cy="7" r="7" transform="matrix(-0.999993 0.0037889 0.0037889 0.999993 245.227 1075.75)" fill="#F4F4F4"/>
<circle cx="7" cy="7" r="7" transform="matrix(-0.999993 0.0037889 0.0037889 0.999993 244.977 1032.76)" fill="#F4F4F4"/>
<circle cx="7" cy="7" r="7" transform="matrix(-0.999993 0.0037889 0.0037889 0.999993 244.734 989.758)" fill="#F4F4F4"/>
<circle cx="7" cy="7" r="7" transform="matrix(-0.999993 0.0037889 0.0037889 0.999993 244.484 946.758)" fill="#F4F4F4"/>
<circle cx="7" cy="7" r="7" transform="matrix(-0.999993 0.0037889 0.0037889 0.999993 244.234 903.758)" fill="#F4F4F4"/>
<circle cx="7" cy="7" r="7" transform="matrix(-0.999993 0.0037889 0.0037889 0.999993 243.984 860.758)" fill="#F4F4F4"/>
<circle cx="7" cy="7" r="7" transform="matrix(-0.999993 0.0037889 0.0037889 0.999993 243.492 774.758)" fill="#F4F4F4"/>
<circle cx="7" cy="7" r="7" transform="matrix(-0.999993 0.0037889 0.0037889 0.999993 243.734 817.758)" fill="#F4F4F4"/>
<circle cx="7" cy="7" r="7" transform="matrix(-0.999993 0.0037889 0.0037889 0.999993 243.242 731.758)" fill="#F4F4F4"/>
<circle cx="7" cy="7" r="7" transform="matrix(-0.999993 0.0037889 0.0037889 0.999993 242.992 688.758)" fill="#F4F4F4"/>
<circle cx="7" cy="7" r="7" transform="matrix(-0.999993 0.0037889 0.0037889 0.999993 242.742 645.758)" fill="#F4F4F4"/>
<circle cx="7" cy="7" r="7" transform="matrix(-0.999993 0.0037889 0.0037889 0.999993 242.492 602.758)" fill="#F4F4F4"/>
<circle cx="7" cy="7" r="7" transform="matrix(-0.999993 0.0037889 0.0037889 0.999993 242.25 559.766)" fill="#F4F4F4"/>
<circle cx="7" cy="7" r="7" transform="matrix(-0.999993 0.0037889 0.0037889 0.999993 242 516.766)" fill="#F4F4F4"/>
<circle cx="7" cy="7" r="7" transform="matrix(-0.999993 0.0037889 0.0037889 0.999993 241.75 473.766)" fill="#F4F4F4"/>
<circle cx="7" cy="7" r="7" transform="matrix(-0.999993 0.0037889 0.0037889 0.999993 241.5 430.766)" fill="#F4F4F4"/>
<circle cx="7" cy="7" r="7" transform="matrix(-0.999993 0.0037889 0.0037889 0.999993 241.258 387.766)" fill="#F4F4F4"/>
<circle cx="7" cy="7" r="7" transform="matrix(-0.999993 0.0037889 0.0037889 0.999993 241.008 344.766)" fill="#F4F4F4"/>
<circle cx="7" cy="7" r="7" transform="matrix(-0.999993 0.0037889 0.0037889 0.999993 240.758 301.766)" fill="#F4F4F4"/>
<circle cx="7" cy="7" r="7" transform="matrix(-0.999993 0.0037889 0.0037889 0.999993 240.508 258.766)" fill="#F4F4F4"/>
<circle cx="7" cy="7" r="7" transform="matrix(-0.999993 0.0037889 0.0037889 0.999993 240.258 215.766)" fill="#F4F4F4"/>
<circle cx="7" cy="7" r="7" transform="matrix(-0.999993 0.0037889 0.0037889 0.999993 240.016 172.766)" fill="#F4F4F4"/>
<circle cx="7" cy="7" r="7" transform="matrix(-0.999993 0.0037889 0.0037889 0.999993 239.766 129.773)" fill="#F4F4F4"/>
<circle cx="7" cy="7" r="7" transform="matrix(-0.999993 0.0037889 0.0037889 0.999993 239.516 86.7734)" fill="#F4F4F4"/>
<circle cx="7" cy="7" r="7" transform="matrix(-0.999993 0.0037889 0.0037889 0.999993 239.266 43.7734)" fill="#F4F4F4"/>
<circle cx="7" cy="7" r="7" transform="matrix(-0.999993 0.0037889 0.0037889 0.999993 239.016 0.773438)" fill="#F4F4F4"/>
<circle cx="7" cy="7" r="7" transform="matrix(-0.999993 0.0037889 0.0037889 0.999993 290.211 1419.51)" fill="#F4F4F4"/>
<circle cx="7" cy="7" r="7" transform="matrix(-0.999993 0.0037889 0.0037889 0.999993 289.719 1333.51)" fill="#F4F4F4"/>
<circle cx="7" cy="7" r="7" transform="matrix(-0.999993 0.0037889 0.0037889 0.999993 289.969 1376.51)" fill="#F4F4F4"/>
<circle cx="7" cy="7" r="7" transform="matrix(-0.999993 0.0037889 0.0037889 0.999993 289.469 1290.51)" fill="#F4F4F4"/>
<circle cx="7" cy="7" r="7" transform="matrix(-0.999993 0.0037889 0.0037889 0.999993 289.219 1247.51)" fill="#F4F4F4"/>
<circle cx="7" cy="7" r="7" transform="matrix(-0.999993 0.0037889 0.0037889 0.999993 288.969 1204.51)" fill="#F4F4F4"/>
<circle cx="7" cy="7" r="7" transform="matrix(-0.999993 0.0037889 0.0037889 0.999993 288.727 1161.51)" fill="#F4F4F4"/>
<circle cx="7" cy="7" r="7" transform="matrix(-0.999993 0.0037889 0.0037889 0.999993 288.477 1118.51)" fill="#F4F4F4"/>
<circle cx="7" cy="7" r="7" transform="matrix(-0.999993 0.0037889 0.0037889 0.999993 288.227 1075.51)" fill="#F4F4F4"/>
<circle cx="7" cy="7" r="7" transform="matrix(-0.999993 0.0037889 0.0037889 0.999993 287.977 1032.52)" fill="#F4F4F4"/>
<circle cx="7" cy="7" r="7" transform="matrix(-0.999993 0.0037889 0.0037889 0.999993 287.734 989.516)" fill="#F4F4F4"/>
<circle cx="7" cy="7" r="7" transform="matrix(-0.999993 0.0037889 0.0037889 0.999993 287.484 946.516)" fill="#F4F4F4"/>
<circle cx="7" cy="7" r="7" transform="matrix(-0.999993 0.0037889 0.0037889 0.999993 287.234 903.516)" fill="#F4F4F4"/>
<circle cx="7" cy="7" r="7" transform="matrix(-0.999993 0.0037889 0.0037889 0.999993 286.984 860.516)" fill="#F4F4F4"/>
<circle cx="7" cy="7" r="7" transform="matrix(-0.999993 0.0037889 0.0037889 0.999993 286.492 774.516)" fill="#F4F4F4"/>
<circle cx="7" cy="7" r="7" transform="matrix(-0.999993 0.0037889 0.0037889 0.999993 286.734 817.516)" fill="#F4F4F4"/>
<circle cx="7" cy="7" r="7" transform="matrix(-0.999993 0.0037889 0.0037889 0.999993 286.242 731.516)" fill="#F4F4F4"/>
<circle cx="7" cy="7" r="7" transform="matrix(-0.999993 0.0037889 0.0037889 0.999993 285.992 688.516)" fill="#F4F4F4"/>
<circle cx="7" cy="7" r="7" transform="matrix(-0.999993 0.0037889 0.0037889 0.999993 285.742 645.516)" fill="#F4F4F4"/>
<circle cx="7" cy="7" r="7" transform="matrix(-0.999993 0.0037889 0.0037889 0.999993 285.492 602.516)" fill="#F4F4F4"/>
<circle cx="7" cy="7" r="7" transform="matrix(-0.999993 0.0037889 0.0037889 0.999993 285.25 559.523)" fill="#F4F4F4"/>
<circle cx="7" cy="7" r="7" transform="matrix(-0.999993 0.0037889 0.0037889 0.999993 285 516.523)" fill="#F4F4F4"/>
<circle cx="7" cy="7" r="7" transform="matrix(-0.999993 0.0037889 0.0037889 0.999993 284.75 473.523)" fill="#F4F4F4"/>
<circle cx="7" cy="7" r="7" transform="matrix(-0.999993 0.0037889 0.0037889 0.999993 284.5 430.523)" fill="#F4F4F4"/>
<circle cx="7" cy="7" r="7" transform="matrix(-0.999993 0.0037889 0.0037889 0.999993 284.258 387.523)" fill="#F4F4F4"/>
<circle cx="7" cy="7" r="7" transform="matrix(-0.999993 0.0037889 0.0037889 0.999993 284.008 344.523)" fill="#F4F4F4"/>
<circle cx="7" cy="7" r="7" transform="matrix(-0.999993 0.0037889 0.0037889 0.999993 283.758 301.523)" fill="#F4F4F4"/>
<circle cx="7" cy="7" r="7" transform="matrix(-0.999993 0.0037889 0.0037889 0.999993 283.508 258.523)" fill="#F4F4F4"/>
<circle cx="7" cy="7" r="7" transform="matrix(-0.999993 0.0037889 0.0037889 0.999993 283.258 215.523)" fill="#F4F4F4"/>
<circle cx="7" cy="7" r="7" transform="matrix(-0.999993 0.0037889 0.0037889 0.999993 283.016 172.523)" fill="#F4F4F4"/>
<circle cx="7" cy="7" r="7" transform="matrix(-0.999993 0.0037889 0.0037889 0.999993 282.766 129.531)" fill="#F4F4F4"/>
<circle cx="7" cy="7" r="7" transform="matrix(-0.999993 0.0037889 0.0037889 0.999993 282.516 86.5312)" fill="#F4F4F4"/>
<circle cx="7" cy="7" r="7" transform="matrix(-0.999993 0.0037889 0.0037889 0.999993 282.266 43.5312)" fill="#F4F4F4"/>
<circle cx="7" cy="7" r="7" transform="matrix(-0.999993 0.0037889 0.0037889 0.999993 282.016 0.53125)" fill="#F4F4F4"/>
<circle cx="7" cy="7" r="7" transform="matrix(-0.999993 0.0037889 0.0037889 0.999993 333.211 1419.26)" fill="#F4F4F4"/>
<circle cx="7" cy="7" r="7" transform="matrix(-0.999993 0.0037889 0.0037889 0.999993 332.719 1333.26)" fill="#F4F4F4"/>
<circle cx="7" cy="7" r="7" transform="matrix(-0.999993 0.0037889 0.0037889 0.999993 332.969 1376.26)" fill="#F4F4F4"/>
<circle cx="7" cy="7" r="7" transform="matrix(-0.999993 0.0037889 0.0037889 0.999993 332.469 1290.26)" fill="#F4F4F4"/>
<circle cx="7" cy="7" r="7" transform="matrix(-0.999993 0.0037889 0.0037889 0.999993 332.219 1247.26)" fill="#F4F4F4"/>
<circle cx="7" cy="7" r="7" transform="matrix(-0.999993 0.0037889 0.0037889 0.999993 331.969 1204.26)" fill="#F4F4F4"/>
<circle cx="7" cy="7" r="7" transform="matrix(-0.999993 0.0037889 0.0037889 0.999993 331.727 1161.26)" fill="#F4F4F4"/>
<circle cx="7" cy="7" r="7" transform="matrix(-0.999993 0.0037889 0.0037889 0.999993 331.477 1118.26)" fill="#F4F4F4"/>
<circle cx="7" cy="7" r="7" transform="matrix(-0.999993 0.0037889 0.0037889 0.999993 331.227 1075.26)" fill="#F4F4F4"/>
<circle cx="7" cy="7" r="7" transform="matrix(-0.999993 0.0037889 0.0037889 0.999993 330.977 1032.27)" fill="#F4F4F4"/>
<circle cx="7" cy="7" r="7" transform="matrix(-0.999993 0.0037889 0.0037889 0.999993 330.734 989.266)" fill="#F4F4F4"/>
<circle cx="7" cy="7" r="7" transform="matrix(-0.999993 0.0037889 0.0037889 0.999993 330.484 946.266)" fill="#F4F4F4"/>
<circle cx="7" cy="7" r="7" transform="matrix(-0.999993 0.0037889 0.0037889 0.999993 330.234 903.266)" fill="#F4F4F4"/>
<circle cx="7" cy="7" r="7" transform="matrix(-0.999993 0.0037889 0.0037889 0.999993 329.984 860.266)" fill="#F4F4F4"/>
<circle cx="7" cy="7" r="7" transform="matrix(-0.999993 0.0037889 0.0037889 0.999993 329.492 774.266)" fill="#F4F4F4"/>
<circle cx="7" cy="7" r="7" transform="matrix(-0.999993 0.0037889 0.0037889 0.999993 329.734 817.266)" fill="#F4F4F4"/>
<circle cx="7" cy="7" r="7" transform="matrix(-0.999993 0.0037889 0.0037889 0.999993 329.242 731.266)" fill="#F4F4F4"/>
<circle cx="7" cy="7" r="7" transform="matrix(-0.999993 0.0037889 0.0037889 0.999993 328.992 688.266)" fill="#F4F4F4"/>
<circle cx="7" cy="7" r="7" transform="matrix(-0.999993 0.0037889 0.0037889 0.999993 328.742 645.266)" fill="#F4F4F4"/>
<circle cx="7" cy="7" r="7" transform="matrix(-0.999993 0.0037889 0.0037889 0.999993 328.492 602.266)" fill="#F4F4F4"/>
<circle cx="7" cy="7" r="7" transform="matrix(-0.999993 0.0037889 0.0037889 0.999993 328.25 559.273)" fill="#F4F4F4"/>
<circle cx="7" cy="7" r="7" transform="matrix(-0.999993 0.0037889 0.0037889 0.999993 328 516.273)" fill="#F4F4F4"/>
<circle cx="7" cy="7" r="7" transform="matrix(-0.999993 0.0037889 0.0037889 0.999993 327.75 473.273)" fill="#F4F4F4"/>
<circle cx="7" cy="7" r="7" transform="matrix(-0.999993 0.0037889 0.0037889 0.999993 327.5 430.273)" fill="#F4F4F4"/>
<circle cx="7" cy="7" r="7" transform="matrix(-0.999993 0.0037889 0.0037889 0.999993 327.258 387.273)" fill="#F4F4F4"/>
<circle cx="7" cy="7" r="7" transform="matrix(-0.999993 0.0037889 0.0037889 0.999993 327.008 344.273)" fill="#F4F4F4"/>
<circle cx="7" cy="7" r="7" transform="matrix(-0.999993 0.0037889 0.0037889 0.999993 326.758 301.273)" fill="#F4F4F4"/>
<circle cx="7" cy="7" r="7" transform="matrix(-0.999993 0.0037889 0.0037889 0.999993 326.508 258.273)" fill="#F4F4F4"/>
<circle cx="7" cy="7" r="7" transform="matrix(-0.999993 0.0037889 0.0037889 0.999993 326.258 215.273)" fill="#F4F4F4"/>
<circle cx="7" cy="7" r="7" transform="matrix(-0.999993 0.0037889 0.0037889 0.999993 326.016 172.273)" fill="#F4F4F4"/>
<circle cx="7" cy="7" r="7" transform="matrix(-0.999993 0.0037889 0.0037889 0.999993 325.766 129.281)" fill="#F4F4F4"/>
<circle cx="7" cy="7" r="7" transform="matrix(-0.999993 0.0037889 0.0037889 0.999993 325.516 86.2812)" fill="#F4F4F4"/>
<circle cx="7" cy="7" r="7" transform="matrix(-0.999993 0.0037889 0.0037889 0.999993 325.266 43.2812)" fill="#F4F4F4"/>
<circle cx="7" cy="7" r="7" transform="matrix(-0.999993 0.0037889 0.0037889 0.999993 325.016 0.28125)" fill="#F4F4F4"/>
<circle cx="7" cy="7" r="7" transform="matrix(-0.999993 0.0037889 0.0037889 0.999993 376.242 1419.01)" fill="#F4F4F4"/>
<circle cx="7" cy="7" r="7" transform="matrix(-0.999993 0.0037889 0.0037889 0.999993 375.75 1333.01)" fill="#F4F4F4"/>
<circle cx="7" cy="7" r="7" transform="matrix(-0.999993 0.0037889 0.0037889 0.999993 376 1376.01)" fill="#F4F4F4"/>
<circle cx="7" cy="7" r="7" transform="matrix(-0.999993 0.0037889 0.0037889 0.999993 375.5 1290.01)" fill="#F4F4F4"/>
<circle cx="7" cy="7" r="7" transform="matrix(-0.999993 0.0037889 0.0037889 0.999993 375.25 1247.01)" fill="#F4F4F4"/>
<circle cx="7" cy="7" r="7" transform="matrix(-0.999993 0.0037889 0.0037889 0.999993 375 1204.01)" fill="#F4F4F4"/>
<circle cx="7" cy="7" r="7" transform="matrix(-0.999993 0.0037889 0.0037889 0.999993 374.758 1161.01)" fill="#F4F4F4"/>
<circle cx="7" cy="7" r="7" transform="matrix(-0.999993 0.0037889 0.0037889 0.999993 374.508 1118.01)" fill="#F4F4F4"/>
<circle cx="7" cy="7" r="7" transform="matrix(-0.999993 0.0037889 0.0037889 0.999993 374.258 1075.01)" fill="#F4F4F4"/>
<circle cx="7" cy="7" r="7" transform="matrix(-0.999993 0.0037889 0.0037889 0.999993 374.008 1032.02)" fill="#F4F4F4"/>
<circle cx="7" cy="7" r="7" transform="matrix(-0.999993 0.0037889 0.0037889 0.999993 373.766 989.016)" fill="#F4F4F4"/>
<circle cx="7" cy="7" r="7" transform="matrix(-0.999993 0.0037889 0.0037889 0.999993 373.516 946.016)" fill="#F4F4F4"/>
<circle cx="7" cy="7" r="7" transform="matrix(-0.999993 0.0037889 0.0037889 0.999993 373.266 903.016)" fill="#F4F4F4"/>
<circle cx="7" cy="7" r="7" transform="matrix(-0.999993 0.0037889 0.0037889 0.999993 373.016 860.016)" fill="#F4F4F4"/>
<circle cx="7" cy="7" r="7" transform="matrix(-0.999993 0.0037889 0.0037889 0.999993 372.523 774.016)" fill="#F4F4F4"/>
<circle cx="7" cy="7" r="7" transform="matrix(-0.999993 0.0037889 0.0037889 0.999993 372.766 817.016)" fill="#F4F4F4"/>
<circle cx="7" cy="7" r="7" transform="matrix(-0.999993 0.0037889 0.0037889 0.999993 372.273 731.016)" fill="#F4F4F4"/>
<circle cx="7" cy="7" r="7" transform="matrix(-0.999993 0.0037889 0.0037889 0.999993 372.023 688.016)" fill="#F4F4F4"/>
<circle cx="7" cy="7" r="7" transform="matrix(-0.999993 0.0037889 0.0037889 0.999993 371.773 645.016)" fill="#F4F4F4"/>
<circle cx="7" cy="7" r="7" transform="matrix(-0.999993 0.0037889 0.0037889 0.999993 371.523 602.016)" fill="#F4F4F4"/>
<circle cx="7" cy="7" r="7" transform="matrix(-0.999993 0.0037889 0.0037889 0.999993 371.281 559.023)" fill="#F4F4F4"/>
<circle cx="7" cy="7" r="7" transform="matrix(-0.999993 0.0037889 0.0037889 0.999993 371.031 516.023)" fill="#F4F4F4"/>
<circle cx="7" cy="7" r="7" transform="matrix(-0.999993 0.0037889 0.0037889 0.999993 370.781 473.023)" fill="#F4F4F4"/>
<circle cx="7" cy="7" r="7" transform="matrix(-0.999993 0.0037889 0.0037889 0.999993 370.531 430.023)" fill="#F4F4F4"/>
<circle cx="7" cy="7" r="7" transform="matrix(-0.999993 0.0037889 0.0037889 0.999993 370.289 387.023)" fill="#F4F4F4"/>
<circle cx="7" cy="7" r="7" transform="matrix(-0.999993 0.0037889 0.0037889 0.999993 370.039 344.023)" fill="#F4F4F4"/>
<circle cx="7" cy="7" r="7" transform="matrix(-0.999993 0.0037889 0.0037889 0.999993 369.789 301.023)" fill="#F4F4F4"/>
<circle cx="7" cy="7" r="7" transform="matrix(-0.999993 0.0037889 0.0037889 0.999993 369.539 258.023)" fill="#F4F4F4"/>
<circle cx="7" cy="7" r="7" transform="matrix(-0.999993 0.0037889 0.0037889 0.999993 369.289 215.023)" fill="#F4F4F4"/>
<circle cx="7" cy="7" r="7" transform="matrix(-0.999993 0.0037889 0.0037889 0.999993 369.047 172.023)" fill="#F4F4F4"/>
<circle cx="7" cy="7" r="7" transform="matrix(-0.999993 0.0037889 0.0037889 0.999993 368.797 129.031)" fill="#F4F4F4"/>
<circle cx="7" cy="7" r="7" transform="matrix(-0.999993 0.0037889 0.0037889 0.999993 368.547 86.0312)" fill="#F4F4F4"/>
<circle cx="7" cy="7" r="7" transform="matrix(-0.999993 0.0037889 0.0037889 0.999993 368.297 43.0312)" fill="#F4F4F4"/>
<circle cx="7" cy="7" r="7" transform="matrix(-0.999993 0.0037889 0.0037889 0.999993 368.047 0.03125)" fill="#F4F4F4"/>
</svg>
