<svg width="1440" height="402" viewBox="0 0 1440 402" fill="none" xmlns="http://www.w3.org/2000/svg">
<circle cx="7" cy="7" r="7" transform="matrix(0.00198598 -0.999998 -0.999998 -0.00198598 39 14.0312)" fill="#F4F4F4"/>
<circle cx="7" cy="7" r="7" transform="matrix(0.00198598 -0.999998 -0.999998 -0.00198598 125 14.0312)" fill="#F4F4F4"/>
<circle cx="7" cy="7" r="7" transform="matrix(0.00198598 -0.999998 -0.999998 -0.00198598 82 14.0312)" fill="#F4F4F4"/>
<circle cx="7" cy="7" r="7" transform="matrix(0.00198598 -0.999998 -0.999998 -0.00198598 168 14.0312)" fill="#F4F4F4"/>
<circle cx="7" cy="7" r="7" transform="matrix(0.00198598 -0.999998 -0.999998 -0.00198598 211 14.0312)" fill="#F4F4F4"/>
<circle cx="7" cy="7" r="7" transform="matrix(0.00198598 -0.999998 -0.999998 -0.00198598 254 14.0312)" fill="#F4F4F4"/>
<circle cx="7" cy="7" r="7" transform="matrix(0.00198598 -0.999998 -0.999998 -0.00198598 297 14.0312)" fill="#F4F4F4"/>
<circle cx="7" cy="7" r="7" transform="matrix(0.00198598 -0.999998 -0.999998 -0.00198598 340 14.0312)" fill="#F4F4F4"/>
<circle cx="7" cy="7" r="7" transform="matrix(0.00198598 -0.999998 -0.999998 -0.00198598 383 14.0312)" fill="#F4F4F4"/>
<circle cx="7" cy="7" r="7" transform="matrix(0.00198598 -0.999998 -0.999998 -0.00198598 426 14.0312)" fill="#F4F4F4"/>
<circle cx="7" cy="7" r="7" transform="matrix(0.00198598 -0.999998 -0.999998 -0.00198598 469 14.0312)" fill="#F4F4F4"/>
<circle cx="7" cy="7" r="7" transform="matrix(0.00198598 -0.999998 -0.999998 -0.00198598 512 14.0312)" fill="#F4F4F4"/>
<circle cx="7" cy="7" r="7" transform="matrix(0.00198598 -0.999998 -0.999998 -0.00198598 555 14.0312)" fill="#F4F4F4"/>
<circle cx="7" cy="7" r="7" transform="matrix(0.00198598 -0.999998 -0.999998 -0.00198598 598 14.0312)" fill="#F4F4F4"/>
<circle cx="7" cy="7" r="7" transform="matrix(0.00198598 -0.999998 -0.999998 -0.00198598 684 14.0312)" fill="#F4F4F4"/>
<circle cx="7" cy="7" r="7" transform="matrix(0.00198598 -0.999998 -0.999998 -0.00198598 641 14.0312)" fill="#F4F4F4"/>
<circle cx="7" cy="7" r="7" transform="matrix(0.00198598 -0.999998 -0.999998 -0.00198598 727 14.0312)" fill="#F4F4F4"/>
<circle cx="7" cy="7" r="7" transform="matrix(0.00198598 -0.999998 -0.999998 -0.00198598 770 14.0312)" fill="#F4F4F4"/>
<circle cx="7" cy="7" r="7" transform="matrix(0.00198598 -0.999998 -0.999998 -0.00198598 813 14.0312)" fill="#F4F4F4"/>
<circle cx="7" cy="7" r="7" transform="matrix(0.00198598 -0.999998 -0.999998 -0.00198598 856 14.0312)" fill="#F4F4F4"/>
<circle cx="7" cy="7" r="7" transform="matrix(0.00198598 -0.999998 -0.999998 -0.00198598 899 14.0312)" fill="#F4F4F4"/>
<circle cx="7" cy="7" r="7" transform="matrix(0.00198598 -0.999998 -0.999998 -0.00198598 942 14.0312)" fill="#F4F4F4"/>
<circle cx="7" cy="7" r="7" transform="matrix(0.00198598 -0.999998 -0.999998 -0.00198598 985 14.0312)" fill="#F4F4F4"/>
<circle cx="7" cy="7" r="7" transform="matrix(0.00198598 -0.999998 -0.999998 -0.00198598 1028 14.0312)" fill="#F4F4F4"/>
<circle cx="7" cy="7" r="7" transform="matrix(0.00198598 -0.999998 -0.999998 -0.00198598 1071 14.0312)" fill="#F4F4F4"/>
<circle cx="7" cy="7" r="7" transform="matrix(0.00198598 -0.999998 -0.999998 -0.00198598 1114 14.0312)" fill="#F4F4F4"/>
<circle cx="7" cy="7" r="7" transform="matrix(0.00198598 -0.999998 -0.999998 -0.00198598 1157 14.0312)" fill="#F4F4F4"/>
<circle cx="7" cy="7" r="7" transform="matrix(0.00198598 -0.999998 -0.999998 -0.00198598 1200 14.0312)" fill="#F4F4F4"/>
<circle cx="7" cy="7" r="7" transform="matrix(0.00198598 -0.999998 -0.999998 -0.00198598 1243 14.0312)" fill="#F4F4F4"/>
<circle cx="7" cy="7" r="7" transform="matrix(0.00198598 -0.999998 -0.999998 -0.00198598 1286 14.0312)" fill="#F4F4F4"/>
<circle cx="7" cy="7" r="7" transform="matrix(0.00198598 -0.999998 -0.999998 -0.00198598 1329 14.0312)" fill="#F4F4F4"/>
<circle cx="7" cy="7" r="7" transform="matrix(0.00198598 -0.999998 -0.999998 -0.00198598 1372 14.0312)" fill="#F4F4F4"/>
<circle cx="7" cy="7" r="7" transform="matrix(0.00198598 -0.999998 -0.999998 -0.00198598 1415 14.0312)" fill="#F4F4F4"/>
<circle cx="7" cy="7" r="7" transform="matrix(0.00198598 -0.999998 -0.999998 -0.00198598 39 57.0312)" fill="#F4F4F4"/>
<circle cx="7" cy="7" r="7" transform="matrix(0.00198598 -0.999998 -0.999998 -0.00198598 125 57.0312)" fill="#F4F4F4"/>
<circle cx="7" cy="7" r="7" transform="matrix(0.00198598 -0.999998 -0.999998 -0.00198598 82 57.0312)" fill="#F4F4F4"/>
<circle cx="7" cy="7" r="7" transform="matrix(0.00198598 -0.999998 -0.999998 -0.00198598 168 57.0312)" fill="#F4F4F4"/>
<circle cx="7" cy="7" r="7" transform="matrix(0.00198598 -0.999998 -0.999998 -0.00198598 211 57.0312)" fill="#F4F4F4"/>
<circle cx="7" cy="7" r="7" transform="matrix(0.00198598 -0.999998 -0.999998 -0.00198598 254 57.0312)" fill="#F4F4F4"/>
<circle cx="7" cy="7" r="7" transform="matrix(0.00198598 -0.999998 -0.999998 -0.00198598 297 57.0312)" fill="#F4F4F4"/>
<circle cx="7" cy="7" r="7" transform="matrix(0.00198598 -0.999998 -0.999998 -0.00198598 340 57.0312)" fill="#F4F4F4"/>
<circle cx="7" cy="7" r="7" transform="matrix(0.00198598 -0.999998 -0.999998 -0.00198598 383 57.0312)" fill="#F4F4F4"/>
<circle cx="7" cy="7" r="7" transform="matrix(0.00198598 -0.999998 -0.999998 -0.00198598 426 57.0312)" fill="#F4F4F4"/>
<circle cx="7" cy="7" r="7" transform="matrix(0.00198598 -0.999998 -0.999998 -0.00198598 469 57.0312)" fill="#F4F4F4"/>
<circle cx="7" cy="7" r="7" transform="matrix(0.00198598 -0.999998 -0.999998 -0.00198598 512 57.0312)" fill="#F4F4F4"/>
<circle cx="7" cy="7" r="7" transform="matrix(0.00198598 -0.999998 -0.999998 -0.00198598 555 57.0312)" fill="#F4F4F4"/>
<circle cx="7" cy="7" r="7" transform="matrix(0.00198598 -0.999998 -0.999998 -0.00198598 598 57.0312)" fill="#F4F4F4"/>
<circle cx="7" cy="7" r="7" transform="matrix(0.00198598 -0.999998 -0.999998 -0.00198598 684 57.0312)" fill="#F4F4F4"/>
<circle cx="7" cy="7" r="7" transform="matrix(0.00198598 -0.999998 -0.999998 -0.00198598 641 57.0312)" fill="#F4F4F4"/>
<circle cx="7" cy="7" r="7" transform="matrix(0.00198598 -0.999998 -0.999998 -0.00198598 727 57.0312)" fill="#F4F4F4"/>
<circle cx="7" cy="7" r="7" transform="matrix(0.00198598 -0.999998 -0.999998 -0.00198598 770 57.0312)" fill="#F4F4F4"/>
<circle cx="7" cy="7" r="7" transform="matrix(0.00198598 -0.999998 -0.999998 -0.00198598 813 57.0312)" fill="#F4F4F4"/>
<circle cx="7" cy="7" r="7" transform="matrix(0.00198598 -0.999998 -0.999998 -0.00198598 856 57.0312)" fill="#F4F4F4"/>
<circle cx="7" cy="7" r="7" transform="matrix(0.00198598 -0.999998 -0.999998 -0.00198598 899 57.0312)" fill="#F4F4F4"/>
<circle cx="7" cy="7" r="7" transform="matrix(0.00198598 -0.999998 -0.999998 -0.00198598 942 57.0312)" fill="#F4F4F4"/>
<circle cx="7" cy="7" r="7" transform="matrix(0.00198598 -0.999998 -0.999998 -0.00198598 985 57.0312)" fill="#F4F4F4"/>
<circle cx="7" cy="7" r="7" transform="matrix(0.00198598 -0.999998 -0.999998 -0.00198598 1028 57.0312)" fill="#F4F4F4"/>
<circle cx="7" cy="7" r="7" transform="matrix(0.00198598 -0.999998 -0.999998 -0.00198598 1071 57.0312)" fill="#F4F4F4"/>
<circle cx="7" cy="7" r="7" transform="matrix(0.00198598 -0.999998 -0.999998 -0.00198598 1114 57.0312)" fill="#F4F4F4"/>
<circle cx="7" cy="7" r="7" transform="matrix(0.00198598 -0.999998 -0.999998 -0.00198598 1157 57.0312)" fill="#F4F4F4"/>
<circle cx="7" cy="7" r="7" transform="matrix(0.00198598 -0.999998 -0.999998 -0.00198598 1200 57.0312)" fill="#F4F4F4"/>
<circle cx="7" cy="7" r="7" transform="matrix(0.00198598 -0.999998 -0.999998 -0.00198598 1243 57.0312)" fill="#F4F4F4"/>
<circle cx="7" cy="7" r="7" transform="matrix(0.00198598 -0.999998 -0.999998 -0.00198598 1286 57.0312)" fill="#F4F4F4"/>
<circle cx="7" cy="7" r="7" transform="matrix(0.00198598 -0.999998 -0.999998 -0.00198598 1329 57.0312)" fill="#F4F4F4"/>
<circle cx="7" cy="7" r="7" transform="matrix(0.00198598 -0.999998 -0.999998 -0.00198598 1372 57.0312)" fill="#F4F4F4"/>
<circle cx="7" cy="7" r="7" transform="matrix(0.00198598 -0.999998 -0.999998 -0.00198598 1415 57.0312)" fill="#F4F4F4"/>
<circle cx="7" cy="7" r="7" transform="matrix(0.00198598 -0.999998 -0.999998 -0.00198598 39 100.031)" fill="#F4F4F4"/>
<circle cx="7" cy="7" r="7" transform="matrix(0.00198598 -0.999998 -0.999998 -0.00198598 125 100.031)" fill="#F4F4F4"/>
<circle cx="7" cy="7" r="7" transform="matrix(0.00198598 -0.999998 -0.999998 -0.00198598 82 100.031)" fill="#F4F4F4"/>
<circle cx="7" cy="7" r="7" transform="matrix(0.00198598 -0.999998 -0.999998 -0.00198598 168 100.031)" fill="#F4F4F4"/>
<circle cx="7" cy="7" r="7" transform="matrix(0.00198598 -0.999998 -0.999998 -0.00198598 211 100.031)" fill="#F4F4F4"/>
<circle cx="7" cy="7" r="7" transform="matrix(0.00198598 -0.999998 -0.999998 -0.00198598 254 100.031)" fill="#F4F4F4"/>
<circle cx="7" cy="7" r="7" transform="matrix(0.00198598 -0.999998 -0.999998 -0.00198598 297 100.031)" fill="#F4F4F4"/>
<circle cx="7" cy="7" r="7" transform="matrix(0.00198598 -0.999998 -0.999998 -0.00198598 340 100.031)" fill="#F4F4F4"/>
<circle cx="7" cy="7" r="7" transform="matrix(0.00198598 -0.999998 -0.999998 -0.00198598 383 100.031)" fill="#F4F4F4"/>
<circle cx="7" cy="7" r="7" transform="matrix(0.00198598 -0.999998 -0.999998 -0.00198598 426 100.031)" fill="#F4F4F4"/>
<circle cx="7" cy="7" r="7" transform="matrix(0.00198598 -0.999998 -0.999998 -0.00198598 469 100.031)" fill="#F4F4F4"/>
<circle cx="7" cy="7" r="7" transform="matrix(0.00198598 -0.999998 -0.999998 -0.00198598 512 100.031)" fill="#F4F4F4"/>
<circle cx="7" cy="7" r="7" transform="matrix(0.00198598 -0.999998 -0.999998 -0.00198598 555 100.031)" fill="#F4F4F4"/>
<circle cx="7" cy="7" r="7" transform="matrix(0.00198598 -0.999998 -0.999998 -0.00198598 598 100.031)" fill="#F4F4F4"/>
<circle cx="7" cy="7" r="7" transform="matrix(0.00198598 -0.999998 -0.999998 -0.00198598 684 100.031)" fill="#F4F4F4"/>
<circle cx="7" cy="7" r="7" transform="matrix(0.00198598 -0.999998 -0.999998 -0.00198598 641 100.031)" fill="#F4F4F4"/>
<circle cx="7" cy="7" r="7" transform="matrix(0.00198598 -0.999998 -0.999998 -0.00198598 727 100.031)" fill="#F4F4F4"/>
<circle cx="7" cy="7" r="7" transform="matrix(0.00198598 -0.999998 -0.999998 -0.00198598 770 100.031)" fill="#F4F4F4"/>
<circle cx="7" cy="7" r="7" transform="matrix(0.00198598 -0.999998 -0.999998 -0.00198598 813 100.031)" fill="#F4F4F4"/>
<circle cx="7" cy="7" r="7" transform="matrix(0.00198598 -0.999998 -0.999998 -0.00198598 856 100.031)" fill="#F4F4F4"/>
<circle cx="7" cy="7" r="7" transform="matrix(0.00198598 -0.999998 -0.999998 -0.00198598 899 100.031)" fill="#F4F4F4"/>
<circle cx="7" cy="7" r="7" transform="matrix(0.00198598 -0.999998 -0.999998 -0.00198598 942 100.031)" fill="#F4F4F4"/>
<circle cx="7" cy="7" r="7" transform="matrix(0.00198598 -0.999998 -0.999998 -0.00198598 985 100.031)" fill="#F4F4F4"/>
<circle cx="7" cy="7" r="7" transform="matrix(0.00198598 -0.999998 -0.999998 -0.00198598 1028 100.031)" fill="#F4F4F4"/>
<circle cx="7" cy="7" r="7" transform="matrix(0.00198598 -0.999998 -0.999998 -0.00198598 1071 100.031)" fill="#F4F4F4"/>
<circle cx="7" cy="7" r="7" transform="matrix(0.00198598 -0.999998 -0.999998 -0.00198598 1114 100.031)" fill="#F4F4F4"/>
<circle cx="7" cy="7" r="7" transform="matrix(0.00198598 -0.999998 -0.999998 -0.00198598 1157 100.031)" fill="#F4F4F4"/>
<circle cx="7" cy="7" r="7" transform="matrix(0.00198598 -0.999998 -0.999998 -0.00198598 1200 100.031)" fill="#F4F4F4"/>
<circle cx="7" cy="7" r="7" transform="matrix(0.00198598 -0.999998 -0.999998 -0.00198598 1243 100.031)" fill="#F4F4F4"/>
<circle cx="7" cy="7" r="7" transform="matrix(0.00198598 -0.999998 -0.999998 -0.00198598 1286 100.031)" fill="#F4F4F4"/>
<circle cx="7" cy="7" r="7" transform="matrix(0.00198598 -0.999998 -0.999998 -0.00198598 1329 100.031)" fill="#F4F4F4"/>
<circle cx="7" cy="7" r="7" transform="matrix(0.00198598 -0.999998 -0.999998 -0.00198598 1372 100.031)" fill="#F4F4F4"/>
<circle cx="7" cy="7" r="7" transform="matrix(0.00198598 -0.999998 -0.999998 -0.00198598 1415 100.031)" fill="#F4F4F4"/>
<circle cx="7" cy="7" r="7" transform="matrix(0.00198598 -0.999998 -0.999998 -0.00198598 39 143.031)" fill="#F4F4F4"/>
<circle cx="7" cy="7" r="7" transform="matrix(0.00198598 -0.999998 -0.999998 -0.00198598 125 143.031)" fill="#F4F4F4"/>
<circle cx="7" cy="7" r="7" transform="matrix(0.00198598 -0.999998 -0.999998 -0.00198598 82 143.031)" fill="#F4F4F4"/>
<circle cx="7" cy="7" r="7" transform="matrix(0.00198598 -0.999998 -0.999998 -0.00198598 168 143.031)" fill="#F4F4F4"/>
<circle cx="7" cy="7" r="7" transform="matrix(0.00198598 -0.999998 -0.999998 -0.00198598 211 143.031)" fill="#F4F4F4"/>
<circle cx="7" cy="7" r="7" transform="matrix(0.00198598 -0.999998 -0.999998 -0.00198598 254 143.031)" fill="#F4F4F4"/>
<circle cx="7" cy="7" r="7" transform="matrix(0.00198598 -0.999998 -0.999998 -0.00198598 297 143.031)" fill="#F4F4F4"/>
<circle cx="7" cy="7" r="7" transform="matrix(0.00198598 -0.999998 -0.999998 -0.00198598 340 143.031)" fill="#F4F4F4"/>
<circle cx="7" cy="7" r="7" transform="matrix(0.00198598 -0.999998 -0.999998 -0.00198598 383 143.031)" fill="#F4F4F4"/>
<circle cx="7" cy="7" r="7" transform="matrix(0.00198598 -0.999998 -0.999998 -0.00198598 426 143.031)" fill="#F4F4F4"/>
<circle cx="7" cy="7" r="7" transform="matrix(0.00198598 -0.999998 -0.999998 -0.00198598 469 143.031)" fill="#F4F4F4"/>
<circle cx="7" cy="7" r="7" transform="matrix(0.00198598 -0.999998 -0.999998 -0.00198598 512 143.031)" fill="#F4F4F4"/>
<circle cx="7" cy="7" r="7" transform="matrix(0.00198598 -0.999998 -0.999998 -0.00198598 555 143.031)" fill="#F4F4F4"/>
<circle cx="7" cy="7" r="7" transform="matrix(0.00198598 -0.999998 -0.999998 -0.00198598 598 143.031)" fill="#F4F4F4"/>
<circle cx="7" cy="7" r="7" transform="matrix(0.00198598 -0.999998 -0.999998 -0.00198598 684 143.031)" fill="#F4F4F4"/>
<circle cx="7" cy="7" r="7" transform="matrix(0.00198598 -0.999998 -0.999998 -0.00198598 641 143.031)" fill="#F4F4F4"/>
<circle cx="7" cy="7" r="7" transform="matrix(0.00198598 -0.999998 -0.999998 -0.00198598 727 143.031)" fill="#F4F4F4"/>
<circle cx="7" cy="7" r="7" transform="matrix(0.00198598 -0.999998 -0.999998 -0.00198598 770 143.031)" fill="#F4F4F4"/>
<circle cx="7" cy="7" r="7" transform="matrix(0.00198598 -0.999998 -0.999998 -0.00198598 813 143.031)" fill="#F4F4F4"/>
<circle cx="7" cy="7" r="7" transform="matrix(0.00198598 -0.999998 -0.999998 -0.00198598 856 143.031)" fill="#F4F4F4"/>
<circle cx="7" cy="7" r="7" transform="matrix(0.00198598 -0.999998 -0.999998 -0.00198598 899 143.031)" fill="#F4F4F4"/>
<circle cx="7" cy="7" r="7" transform="matrix(0.00198598 -0.999998 -0.999998 -0.00198598 942 143.031)" fill="#F4F4F4"/>
<circle cx="7" cy="7" r="7" transform="matrix(0.00198598 -0.999998 -0.999998 -0.00198598 985 143.031)" fill="#F4F4F4"/>
<circle cx="7" cy="7" r="7" transform="matrix(0.00198598 -0.999998 -0.999998 -0.00198598 1028 143.031)" fill="#F4F4F4"/>
<circle cx="7" cy="7" r="7" transform="matrix(0.00198598 -0.999998 -0.999998 -0.00198598 1071 143.031)" fill="#F4F4F4"/>
<circle cx="7" cy="7" r="7" transform="matrix(0.00198598 -0.999998 -0.999998 -0.00198598 1114 143.031)" fill="#F4F4F4"/>
<circle cx="7" cy="7" r="7" transform="matrix(0.00198598 -0.999998 -0.999998 -0.00198598 1157 143.031)" fill="#F4F4F4"/>
<circle cx="7" cy="7" r="7" transform="matrix(0.00198598 -0.999998 -0.999998 -0.00198598 1200 143.031)" fill="#F4F4F4"/>
<circle cx="7" cy="7" r="7" transform="matrix(0.00198598 -0.999998 -0.999998 -0.00198598 1243 143.031)" fill="#F4F4F4"/>
<circle cx="7" cy="7" r="7" transform="matrix(0.00198598 -0.999998 -0.999998 -0.00198598 1286 143.031)" fill="#F4F4F4"/>
<circle cx="7" cy="7" r="7" transform="matrix(0.00198598 -0.999998 -0.999998 -0.00198598 1329 143.031)" fill="#F4F4F4"/>
<circle cx="7" cy="7" r="7" transform="matrix(0.00198598 -0.999998 -0.999998 -0.00198598 1372 143.031)" fill="#F4F4F4"/>
<circle cx="7" cy="7" r="7" transform="matrix(0.00198598 -0.999998 -0.999998 -0.00198598 1415 143.031)" fill="#F4F4F4"/>
<circle cx="7" cy="7" r="7" transform="matrix(0.00198598 -0.999998 -0.999998 -0.00198598 39 186.062)" fill="#F4F4F4"/>
<circle cx="7" cy="7" r="7" transform="matrix(0.00198598 -0.999998 -0.999998 -0.00198598 125 186.062)" fill="#F4F4F4"/>
<circle cx="7" cy="7" r="7" transform="matrix(0.00198598 -0.999998 -0.999998 -0.00198598 82 186.062)" fill="#F4F4F4"/>
<circle cx="7" cy="7" r="7" transform="matrix(0.00198598 -0.999998 -0.999998 -0.00198598 168 186.062)" fill="#F4F4F4"/>
<circle cx="7" cy="7" r="7" transform="matrix(0.00198598 -0.999998 -0.999998 -0.00198598 211 186.062)" fill="#F4F4F4"/>
<circle cx="7" cy="7" r="7" transform="matrix(0.00198598 -0.999998 -0.999998 -0.00198598 254 186.062)" fill="#F4F4F4"/>
<circle cx="7" cy="7" r="7" transform="matrix(0.00198598 -0.999998 -0.999998 -0.00198598 297 186.062)" fill="#F4F4F4"/>
<circle cx="7" cy="7" r="7" transform="matrix(0.00198598 -0.999998 -0.999998 -0.00198598 340 186.062)" fill="#F4F4F4"/>
<circle cx="7" cy="7" r="7" transform="matrix(0.00198598 -0.999998 -0.999998 -0.00198598 383 186.062)" fill="#F4F4F4"/>
<circle cx="7" cy="7" r="7" transform="matrix(0.00198598 -0.999998 -0.999998 -0.00198598 426 186.062)" fill="#F4F4F4"/>
<circle cx="7" cy="7" r="7" transform="matrix(0.00198598 -0.999998 -0.999998 -0.00198598 469 186.062)" fill="#F4F4F4"/>
<circle cx="7" cy="7" r="7" transform="matrix(0.00198598 -0.999998 -0.999998 -0.00198598 512 186.062)" fill="#F4F4F4"/>
<circle cx="7" cy="7" r="7" transform="matrix(0.00198598 -0.999998 -0.999998 -0.00198598 555 186.062)" fill="#F4F4F4"/>
<circle cx="7" cy="7" r="7" transform="matrix(0.00198598 -0.999998 -0.999998 -0.00198598 598 186.062)" fill="#F4F4F4"/>
<circle cx="7" cy="7" r="7" transform="matrix(0.00198598 -0.999998 -0.999998 -0.00198598 684 186.062)" fill="#F4F4F4"/>
<circle cx="7" cy="7" r="7" transform="matrix(0.00198598 -0.999998 -0.999998 -0.00198598 641 186.062)" fill="#F4F4F4"/>
<circle cx="7" cy="7" r="7" transform="matrix(0.00198598 -0.999998 -0.999998 -0.00198598 727 186.062)" fill="#F4F4F4"/>
<circle cx="7" cy="7" r="7" transform="matrix(0.00198598 -0.999998 -0.999998 -0.00198598 770 186.062)" fill="#F4F4F4"/>
<circle cx="7" cy="7" r="7" transform="matrix(0.00198598 -0.999998 -0.999998 -0.00198598 813 186.062)" fill="#F4F4F4"/>
<circle cx="7" cy="7" r="7" transform="matrix(0.00198598 -0.999998 -0.999998 -0.00198598 856 186.062)" fill="#F4F4F4"/>
<circle cx="7" cy="7" r="7" transform="matrix(0.00198598 -0.999998 -0.999998 -0.00198598 899 186.062)" fill="#F4F4F4"/>
<circle cx="7" cy="7" r="7" transform="matrix(0.00198598 -0.999998 -0.999998 -0.00198598 942 186.062)" fill="#F4F4F4"/>
<circle cx="7" cy="7" r="7" transform="matrix(0.00198598 -0.999998 -0.999998 -0.00198598 985 186.062)" fill="#F4F4F4"/>
<circle cx="7" cy="7" r="7" transform="matrix(0.00198598 -0.999998 -0.999998 -0.00198598 1028 186.062)" fill="#F4F4F4"/>
<circle cx="7" cy="7" r="7" transform="matrix(0.00198598 -0.999998 -0.999998 -0.00198598 1071 186.062)" fill="#F4F4F4"/>
<circle cx="7" cy="7" r="7" transform="matrix(0.00198598 -0.999998 -0.999998 -0.00198598 1114 186.062)" fill="#F4F4F4"/>
<circle cx="7" cy="7" r="7" transform="matrix(0.00198598 -0.999998 -0.999998 -0.00198598 1157 186.062)" fill="#F4F4F4"/>
<circle cx="7" cy="7" r="7" transform="matrix(0.00198598 -0.999998 -0.999998 -0.00198598 1200 186.062)" fill="#F4F4F4"/>
<circle cx="7" cy="7" r="7" transform="matrix(0.00198598 -0.999998 -0.999998 -0.00198598 1243 186.062)" fill="#F4F4F4"/>
<circle cx="7" cy="7" r="7" transform="matrix(0.00198598 -0.999998 -0.999998 -0.00198598 1286 186.062)" fill="#F4F4F4"/>
<circle cx="7" cy="7" r="7" transform="matrix(0.00198598 -0.999998 -0.999998 -0.00198598 1329 186.062)" fill="#F4F4F4"/>
<circle cx="7" cy="7" r="7" transform="matrix(0.00198598 -0.999998 -0.999998 -0.00198598 1372 186.062)" fill="#F4F4F4"/>
<circle cx="7" cy="7" r="7" transform="matrix(0.00198598 -0.999998 -0.999998 -0.00198598 1415 186.062)" fill="#F4F4F4"/>
<circle cx="7" cy="7" r="7" transform="matrix(0.00198598 -0.999998 -0.999998 -0.00198598 39 229.031)" fill="#F4F4F4"/>
<circle cx="7" cy="7" r="7" transform="matrix(0.00198598 -0.999998 -0.999998 -0.00198598 125 229.031)" fill="#F4F4F4"/>
<circle cx="7" cy="7" r="7" transform="matrix(0.00198598 -0.999998 -0.999998 -0.00198598 82 229.031)" fill="#F4F4F4"/>
<circle cx="7" cy="7" r="7" transform="matrix(0.00198598 -0.999998 -0.999998 -0.00198598 168 229.031)" fill="#F4F4F4"/>
<circle cx="7" cy="7" r="7" transform="matrix(0.00198598 -0.999998 -0.999998 -0.00198598 211 229.031)" fill="#F4F4F4"/>
<circle cx="7" cy="7" r="7" transform="matrix(0.00198598 -0.999998 -0.999998 -0.00198598 254 229.031)" fill="#F4F4F4"/>
<circle cx="7" cy="7" r="7" transform="matrix(0.00198598 -0.999998 -0.999998 -0.00198598 297 229.031)" fill="#F4F4F4"/>
<circle cx="7" cy="7" r="7" transform="matrix(0.00198598 -0.999998 -0.999998 -0.00198598 340 229.031)" fill="#F4F4F4"/>
<circle cx="7" cy="7" r="7" transform="matrix(0.00198598 -0.999998 -0.999998 -0.00198598 383 229.031)" fill="#F4F4F4"/>
<circle cx="7" cy="7" r="7" transform="matrix(0.00198598 -0.999998 -0.999998 -0.00198598 426 229.031)" fill="#F4F4F4"/>
<circle cx="7" cy="7" r="7" transform="matrix(0.00198598 -0.999998 -0.999998 -0.00198598 469 229.031)" fill="#F4F4F4"/>
<circle cx="7" cy="7" r="7" transform="matrix(0.00198598 -0.999998 -0.999998 -0.00198598 512 229.031)" fill="#F4F4F4"/>
<circle cx="7" cy="7" r="7" transform="matrix(0.00198598 -0.999998 -0.999998 -0.00198598 555 229.031)" fill="#F4F4F4"/>
<circle cx="7" cy="7" r="7" transform="matrix(0.00198598 -0.999998 -0.999998 -0.00198598 598 229.031)" fill="#F4F4F4"/>
<circle cx="7" cy="7" r="7" transform="matrix(0.00198598 -0.999998 -0.999998 -0.00198598 684 229.031)" fill="#F4F4F4"/>
<circle cx="7" cy="7" r="7" transform="matrix(0.00198598 -0.999998 -0.999998 -0.00198598 641 229.031)" fill="#F4F4F4"/>
<circle cx="7" cy="7" r="7" transform="matrix(0.00198598 -0.999998 -0.999998 -0.00198598 727 229.031)" fill="#F4F4F4"/>
<circle cx="7" cy="7" r="7" transform="matrix(0.00198598 -0.999998 -0.999998 -0.00198598 770 229.031)" fill="#F4F4F4"/>
<circle cx="7" cy="7" r="7" transform="matrix(0.00198598 -0.999998 -0.999998 -0.00198598 813 229.031)" fill="#F4F4F4"/>
<circle cx="7" cy="7" r="7" transform="matrix(0.00198598 -0.999998 -0.999998 -0.00198598 856 229.031)" fill="#F4F4F4"/>
<circle cx="7" cy="7" r="7" transform="matrix(0.00198598 -0.999998 -0.999998 -0.00198598 899 229.031)" fill="#F4F4F4"/>
<circle cx="7" cy="7" r="7" transform="matrix(0.00198598 -0.999998 -0.999998 -0.00198598 942 229.031)" fill="#F4F4F4"/>
<circle cx="7" cy="7" r="7" transform="matrix(0.00198598 -0.999998 -0.999998 -0.00198598 985 229.031)" fill="#F4F4F4"/>
<circle cx="7" cy="7" r="7" transform="matrix(0.00198598 -0.999998 -0.999998 -0.00198598 1028 229.031)" fill="#F4F4F4"/>
<circle cx="7" cy="7" r="7" transform="matrix(0.00198598 -0.999998 -0.999998 -0.00198598 1071 229.031)" fill="#F4F4F4"/>
<circle cx="7" cy="7" r="7" transform="matrix(0.00198598 -0.999998 -0.999998 -0.00198598 1114 229.031)" fill="#F4F4F4"/>
<circle cx="7" cy="7" r="7" transform="matrix(0.00198598 -0.999998 -0.999998 -0.00198598 1157 229.031)" fill="#F4F4F4"/>
<circle cx="7" cy="7" r="7" transform="matrix(0.00198598 -0.999998 -0.999998 -0.00198598 1200 229.031)" fill="#F4F4F4"/>
<circle cx="7" cy="7" r="7" transform="matrix(0.00198598 -0.999998 -0.999998 -0.00198598 1243 229.031)" fill="#F4F4F4"/>
<circle cx="7" cy="7" r="7" transform="matrix(0.00198598 -0.999998 -0.999998 -0.00198598 1286 229.031)" fill="#F4F4F4"/>
<circle cx="7" cy="7" r="7" transform="matrix(0.00198598 -0.999998 -0.999998 -0.00198598 1329 229.031)" fill="#F4F4F4"/>
<circle cx="7" cy="7" r="7" transform="matrix(0.00198598 -0.999998 -0.999998 -0.00198598 1372 229.031)" fill="#F4F4F4"/>
<circle cx="7" cy="7" r="7" transform="matrix(0.00198598 -0.999998 -0.999998 -0.00198598 1415 229.031)" fill="#F4F4F4"/>
<circle cx="7" cy="7" r="7" transform="matrix(0.00198598 -0.999998 -0.999998 -0.00198598 39 272.031)" fill="#F4F4F4"/>
<circle cx="7" cy="7" r="7" transform="matrix(0.00198598 -0.999998 -0.999998 -0.00198598 125 272.031)" fill="#F4F4F4"/>
<circle cx="7" cy="7" r="7" transform="matrix(0.00198598 -0.999998 -0.999998 -0.00198598 82 272.031)" fill="#F4F4F4"/>
<circle cx="7" cy="7" r="7" transform="matrix(0.00198598 -0.999998 -0.999998 -0.00198598 168 272.031)" fill="#F4F4F4"/>
<circle cx="7" cy="7" r="7" transform="matrix(0.00198598 -0.999998 -0.999998 -0.00198598 211 272.031)" fill="#F4F4F4"/>
<circle cx="7" cy="7" r="7" transform="matrix(0.00198598 -0.999998 -0.999998 -0.00198598 254 272.031)" fill="#F4F4F4"/>
<circle cx="7" cy="7" r="7" transform="matrix(0.00198598 -0.999998 -0.999998 -0.00198598 297 272.031)" fill="#F4F4F4"/>
<circle cx="7" cy="7" r="7" transform="matrix(0.00198598 -0.999998 -0.999998 -0.00198598 340 272.031)" fill="#F4F4F4"/>
<circle cx="7" cy="7" r="7" transform="matrix(0.00198598 -0.999998 -0.999998 -0.00198598 383 272.031)" fill="#F4F4F4"/>
<circle cx="7" cy="7" r="7" transform="matrix(0.00198598 -0.999998 -0.999998 -0.00198598 426 272.031)" fill="#F4F4F4"/>
<circle cx="7" cy="7" r="7" transform="matrix(0.00198598 -0.999998 -0.999998 -0.00198598 469 272.031)" fill="#F4F4F4"/>
<circle cx="7" cy="7" r="7" transform="matrix(0.00198598 -0.999998 -0.999998 -0.00198598 512 272.031)" fill="#F4F4F4"/>
<circle cx="7" cy="7" r="7" transform="matrix(0.00198598 -0.999998 -0.999998 -0.00198598 555 272.031)" fill="#F4F4F4"/>
<circle cx="7" cy="7" r="7" transform="matrix(0.00198598 -0.999998 -0.999998 -0.00198598 598 272.031)" fill="#F4F4F4"/>
<circle cx="7" cy="7" r="7" transform="matrix(0.00198598 -0.999998 -0.999998 -0.00198598 684 272.031)" fill="#F4F4F4"/>
<circle cx="7" cy="7" r="7" transform="matrix(0.00198598 -0.999998 -0.999998 -0.00198598 641 272.031)" fill="#F4F4F4"/>
<circle cx="7" cy="7" r="7" transform="matrix(0.00198598 -0.999998 -0.999998 -0.00198598 727 272.031)" fill="#F4F4F4"/>
<circle cx="7" cy="7" r="7" transform="matrix(0.00198598 -0.999998 -0.999998 -0.00198598 770 272.031)" fill="#F4F4F4"/>
<circle cx="7" cy="7" r="7" transform="matrix(0.00198598 -0.999998 -0.999998 -0.00198598 813 272.031)" fill="#F4F4F4"/>
<circle cx="7" cy="7" r="7" transform="matrix(0.00198598 -0.999998 -0.999998 -0.00198598 856 272.031)" fill="#F4F4F4"/>
<circle cx="7" cy="7" r="7" transform="matrix(0.00198598 -0.999998 -0.999998 -0.00198598 899 272.031)" fill="#F4F4F4"/>
<circle cx="7" cy="7" r="7" transform="matrix(0.00198598 -0.999998 -0.999998 -0.00198598 942 272.031)" fill="#F4F4F4"/>
<circle cx="7" cy="7" r="7" transform="matrix(0.00198598 -0.999998 -0.999998 -0.00198598 985 272.031)" fill="#F4F4F4"/>
<circle cx="7" cy="7" r="7" transform="matrix(0.00198598 -0.999998 -0.999998 -0.00198598 1028 272.031)" fill="#F4F4F4"/>
<circle cx="7" cy="7" r="7" transform="matrix(0.00198598 -0.999998 -0.999998 -0.00198598 1071 272.031)" fill="#F4F4F4"/>
<circle cx="7" cy="7" r="7" transform="matrix(0.00198598 -0.999998 -0.999998 -0.00198598 1114 272.031)" fill="#F4F4F4"/>
<circle cx="7" cy="7" r="7" transform="matrix(0.00198598 -0.999998 -0.999998 -0.00198598 1157 272.031)" fill="#F4F4F4"/>
<circle cx="7" cy="7" r="7" transform="matrix(0.00198598 -0.999998 -0.999998 -0.00198598 1200 272.031)" fill="#F4F4F4"/>
<circle cx="7" cy="7" r="7" transform="matrix(0.00198598 -0.999998 -0.999998 -0.00198598 1243 272.031)" fill="#F4F4F4"/>
<circle cx="7" cy="7" r="7" transform="matrix(0.00198598 -0.999998 -0.999998 -0.00198598 1286 272.031)" fill="#F4F4F4"/>
<circle cx="7" cy="7" r="7" transform="matrix(0.00198598 -0.999998 -0.999998 -0.00198598 1329 272.031)" fill="#F4F4F4"/>
<circle cx="7" cy="7" r="7" transform="matrix(0.00198598 -0.999998 -0.999998 -0.00198598 1372 272.031)" fill="#F4F4F4"/>
<circle cx="7" cy="7" r="7" transform="matrix(0.00198598 -0.999998 -0.999998 -0.00198598 1415 272.031)" fill="#F4F4F4"/>
<circle cx="7" cy="7" r="7" transform="matrix(0.00198598 -0.999998 -0.999998 -0.00198598 39 315.031)" fill="#F4F4F4"/>
<circle cx="7" cy="7" r="7" transform="matrix(0.00198598 -0.999998 -0.999998 -0.00198598 125 315.031)" fill="#F4F4F4"/>
<circle cx="7" cy="7" r="7" transform="matrix(0.00198598 -0.999998 -0.999998 -0.00198598 82 315.031)" fill="#F4F4F4"/>
<circle cx="7" cy="7" r="7" transform="matrix(0.00198598 -0.999998 -0.999998 -0.00198598 168 315.031)" fill="#F4F4F4"/>
<circle cx="7" cy="7" r="7" transform="matrix(0.00198598 -0.999998 -0.999998 -0.00198598 211 315.031)" fill="#F4F4F4"/>
<circle cx="7" cy="7" r="7" transform="matrix(0.00198598 -0.999998 -0.999998 -0.00198598 254 315.031)" fill="#F4F4F4"/>
<circle cx="7" cy="7" r="7" transform="matrix(0.00198598 -0.999998 -0.999998 -0.00198598 297 315.031)" fill="#F4F4F4"/>
<circle cx="7" cy="7" r="7" transform="matrix(0.00198598 -0.999998 -0.999998 -0.00198598 340 315.031)" fill="#F4F4F4"/>
<circle cx="7" cy="7" r="7" transform="matrix(0.00198598 -0.999998 -0.999998 -0.00198598 383 315.031)" fill="#F4F4F4"/>
<circle cx="7" cy="7" r="7" transform="matrix(0.00198598 -0.999998 -0.999998 -0.00198598 426 315.031)" fill="#F4F4F4"/>
<circle cx="7" cy="7" r="7" transform="matrix(0.00198598 -0.999998 -0.999998 -0.00198598 469 315.031)" fill="#F4F4F4"/>
<circle cx="7" cy="7" r="7" transform="matrix(0.00198598 -0.999998 -0.999998 -0.00198598 512 315.031)" fill="#F4F4F4"/>
<circle cx="7" cy="7" r="7" transform="matrix(0.00198598 -0.999998 -0.999998 -0.00198598 555 315.031)" fill="#F4F4F4"/>
<circle cx="7" cy="7" r="7" transform="matrix(0.00198598 -0.999998 -0.999998 -0.00198598 598 315.031)" fill="#F4F4F4"/>
<circle cx="7" cy="7" r="7" transform="matrix(0.00198598 -0.999998 -0.999998 -0.00198598 684 315.031)" fill="#F4F4F4"/>
<circle cx="7" cy="7" r="7" transform="matrix(0.00198598 -0.999998 -0.999998 -0.00198598 641 315.031)" fill="#F4F4F4"/>
<circle cx="7" cy="7" r="7" transform="matrix(0.00198598 -0.999998 -0.999998 -0.00198598 727 315.031)" fill="#F4F4F4"/>
<circle cx="7" cy="7" r="7" transform="matrix(0.00198598 -0.999998 -0.999998 -0.00198598 770 315.031)" fill="#F4F4F4"/>
<circle cx="7" cy="7" r="7" transform="matrix(0.00198598 -0.999998 -0.999998 -0.00198598 813 315.031)" fill="#F4F4F4"/>
<circle cx="7" cy="7" r="7" transform="matrix(0.00198598 -0.999998 -0.999998 -0.00198598 856 315.031)" fill="#F4F4F4"/>
<circle cx="7" cy="7" r="7" transform="matrix(0.00198598 -0.999998 -0.999998 -0.00198598 899 315.031)" fill="#F4F4F4"/>
<circle cx="7" cy="7" r="7" transform="matrix(0.00198598 -0.999998 -0.999998 -0.00198598 942 315.031)" fill="#F4F4F4"/>
<circle cx="7" cy="7" r="7" transform="matrix(0.00198598 -0.999998 -0.999998 -0.00198598 985 315.031)" fill="#F4F4F4"/>
<circle cx="7" cy="7" r="7" transform="matrix(0.00198598 -0.999998 -0.999998 -0.00198598 1028 315.031)" fill="#F4F4F4"/>
<circle cx="7" cy="7" r="7" transform="matrix(0.00198598 -0.999998 -0.999998 -0.00198598 1071 315.031)" fill="#F4F4F4"/>
<circle cx="7" cy="7" r="7" transform="matrix(0.00198598 -0.999998 -0.999998 -0.00198598 1114 315.031)" fill="#F4F4F4"/>
<circle cx="7" cy="7" r="7" transform="matrix(0.00198598 -0.999998 -0.999998 -0.00198598 1157 315.031)" fill="#F4F4F4"/>
<circle cx="7" cy="7" r="7" transform="matrix(0.00198598 -0.999998 -0.999998 -0.00198598 1200 315.031)" fill="#F4F4F4"/>
<circle cx="7" cy="7" r="7" transform="matrix(0.00198598 -0.999998 -0.999998 -0.00198598 1243 315.031)" fill="#F4F4F4"/>
<circle cx="7" cy="7" r="7" transform="matrix(0.00198598 -0.999998 -0.999998 -0.00198598 1286 315.031)" fill="#F4F4F4"/>
<circle cx="7" cy="7" r="7" transform="matrix(0.00198598 -0.999998 -0.999998 -0.00198598 1329 315.031)" fill="#F4F4F4"/>
<circle cx="7" cy="7" r="7" transform="matrix(0.00198598 -0.999998 -0.999998 -0.00198598 1372 315.031)" fill="#F4F4F4"/>
<circle cx="7" cy="7" r="7" transform="matrix(0.00198598 -0.999998 -0.999998 -0.00198598 1415 315.031)" fill="#F4F4F4"/>
<circle cx="7" cy="7" r="7" transform="matrix(0.00198598 -0.999998 -0.999998 -0.00198598 39 358.031)" fill="#F4F4F4"/>
<circle cx="7" cy="7" r="7" transform="matrix(0.00198598 -0.999998 -0.999998 -0.00198598 125 358.031)" fill="#F4F4F4"/>
<circle cx="7" cy="7" r="7" transform="matrix(0.00198598 -0.999998 -0.999998 -0.00198598 82 358.031)" fill="#F4F4F4"/>
<circle cx="7" cy="7" r="7" transform="matrix(0.00198598 -0.999998 -0.999998 -0.00198598 168 358.031)" fill="#F4F4F4"/>
<circle cx="7" cy="7" r="7" transform="matrix(0.00198598 -0.999998 -0.999998 -0.00198598 211 358.031)" fill="#F4F4F4"/>
<circle cx="7" cy="7" r="7" transform="matrix(0.00198598 -0.999998 -0.999998 -0.00198598 254 358.031)" fill="#F4F4F4"/>
<circle cx="7" cy="7" r="7" transform="matrix(0.00198598 -0.999998 -0.999998 -0.00198598 297 358.031)" fill="#F4F4F4"/>
<circle cx="7" cy="7" r="7" transform="matrix(0.00198598 -0.999998 -0.999998 -0.00198598 340 358.031)" fill="#F4F4F4"/>
<circle cx="7" cy="7" r="7" transform="matrix(0.00198598 -0.999998 -0.999998 -0.00198598 383 358.031)" fill="#F4F4F4"/>
<circle cx="7" cy="7" r="7" transform="matrix(0.00198598 -0.999998 -0.999998 -0.00198598 426 358.031)" fill="#F4F4F4"/>
<circle cx="7" cy="7" r="7" transform="matrix(0.00198598 -0.999998 -0.999998 -0.00198598 469 358.031)" fill="#F4F4F4"/>
<circle cx="7" cy="7" r="7" transform="matrix(0.00198598 -0.999998 -0.999998 -0.00198598 512 358.031)" fill="#F4F4F4"/>
<circle cx="7" cy="7" r="7" transform="matrix(0.00198598 -0.999998 -0.999998 -0.00198598 555 358.031)" fill="#F4F4F4"/>
<circle cx="7" cy="7" r="7" transform="matrix(0.00198598 -0.999998 -0.999998 -0.00198598 598 358.031)" fill="#F4F4F4"/>
<circle cx="7" cy="7" r="7" transform="matrix(0.00198598 -0.999998 -0.999998 -0.00198598 684 358.031)" fill="#F4F4F4"/>
<circle cx="7" cy="7" r="7" transform="matrix(0.00198598 -0.999998 -0.999998 -0.00198598 641 358.031)" fill="#F4F4F4"/>
<circle cx="7" cy="7" r="7" transform="matrix(0.00198598 -0.999998 -0.999998 -0.00198598 727 358.031)" fill="#F4F4F4"/>
<circle cx="7" cy="7" r="7" transform="matrix(0.00198598 -0.999998 -0.999998 -0.00198598 770 358.031)" fill="#F4F4F4"/>
<circle cx="7" cy="7" r="7" transform="matrix(0.00198598 -0.999998 -0.999998 -0.00198598 813 358.031)" fill="#F4F4F4"/>
<circle cx="7" cy="7" r="7" transform="matrix(0.00198598 -0.999998 -0.999998 -0.00198598 856 358.031)" fill="#F4F4F4"/>
<circle cx="7" cy="7" r="7" transform="matrix(0.00198598 -0.999998 -0.999998 -0.00198598 899 358.031)" fill="#F4F4F4"/>
<circle cx="7" cy="7" r="7" transform="matrix(0.00198598 -0.999998 -0.999998 -0.00198598 942 358.031)" fill="#F4F4F4"/>
<circle cx="7" cy="7" r="7" transform="matrix(0.00198598 -0.999998 -0.999998 -0.00198598 985 358.031)" fill="#F4F4F4"/>
<circle cx="7" cy="7" r="7" transform="matrix(0.00198598 -0.999998 -0.999998 -0.00198598 1028 358.031)" fill="#F4F4F4"/>
<circle cx="7" cy="7" r="7" transform="matrix(0.00198598 -0.999998 -0.999998 -0.00198598 1071 358.031)" fill="#F4F4F4"/>
<circle cx="7" cy="7" r="7" transform="matrix(0.00198598 -0.999998 -0.999998 -0.00198598 1114 358.031)" fill="#F4F4F4"/>
<circle cx="7" cy="7" r="7" transform="matrix(0.00198598 -0.999998 -0.999998 -0.00198598 1157 358.031)" fill="#F4F4F4"/>
<circle cx="7" cy="7" r="7" transform="matrix(0.00198598 -0.999998 -0.999998 -0.00198598 1200 358.031)" fill="#F4F4F4"/>
<circle cx="7" cy="7" r="7" transform="matrix(0.00198598 -0.999998 -0.999998 -0.00198598 1243 358.031)" fill="#F4F4F4"/>
<circle cx="7" cy="7" r="7" transform="matrix(0.00198598 -0.999998 -0.999998 -0.00198598 1286 358.031)" fill="#F4F4F4"/>
<circle cx="7" cy="7" r="7" transform="matrix(0.00198598 -0.999998 -0.999998 -0.00198598 1329 358.031)" fill="#F4F4F4"/>
<circle cx="7" cy="7" r="7" transform="matrix(0.00198598 -0.999998 -0.999998 -0.00198598 1372 358.031)" fill="#F4F4F4"/>
<circle cx="7" cy="7" r="7" transform="matrix(0.00198598 -0.999998 -0.999998 -0.00198598 1415 358.031)" fill="#F4F4F4"/>
<circle cx="7" cy="7" r="7" transform="matrix(0.00198598 -0.999998 -0.999998 -0.00198598 39 401.062)" fill="#F4F4F4"/>
<circle cx="7" cy="7" r="7" transform="matrix(0.00198598 -0.999998 -0.999998 -0.00198598 125 401.062)" fill="#F4F4F4"/>
<circle cx="7" cy="7" r="7" transform="matrix(0.00198598 -0.999998 -0.999998 -0.00198598 82 401.062)" fill="#F4F4F4"/>
<circle cx="7" cy="7" r="7" transform="matrix(0.00198598 -0.999998 -0.999998 -0.00198598 168 401.062)" fill="#F4F4F4"/>
<circle cx="7" cy="7" r="7" transform="matrix(0.00198598 -0.999998 -0.999998 -0.00198598 211 401.062)" fill="#F4F4F4"/>
<circle cx="7" cy="7" r="7" transform="matrix(0.00198598 -0.999998 -0.999998 -0.00198598 254 401.062)" fill="#F4F4F4"/>
<circle cx="7" cy="7" r="7" transform="matrix(0.00198598 -0.999998 -0.999998 -0.00198598 297 401.062)" fill="#F4F4F4"/>
<circle cx="7" cy="7" r="7" transform="matrix(0.00198598 -0.999998 -0.999998 -0.00198598 340 401.062)" fill="#F4F4F4"/>
<circle cx="7" cy="7" r="7" transform="matrix(0.00198598 -0.999998 -0.999998 -0.00198598 383 401.062)" fill="#F4F4F4"/>
<circle cx="7" cy="7" r="7" transform="matrix(0.00198598 -0.999998 -0.999998 -0.00198598 426 401.062)" fill="#F4F4F4"/>
<circle cx="7" cy="7" r="7" transform="matrix(0.00198598 -0.999998 -0.999998 -0.00198598 469 401.062)" fill="#F4F4F4"/>
<circle cx="7" cy="7" r="7" transform="matrix(0.00198598 -0.999998 -0.999998 -0.00198598 512 401.062)" fill="#F4F4F4"/>
<circle cx="7" cy="7" r="7" transform="matrix(0.00198598 -0.999998 -0.999998 -0.00198598 555 401.062)" fill="#F4F4F4"/>
<circle cx="7" cy="7" r="7" transform="matrix(0.00198598 -0.999998 -0.999998 -0.00198598 598 401.062)" fill="#F4F4F4"/>
<circle cx="7" cy="7" r="7" transform="matrix(0.00198598 -0.999998 -0.999998 -0.00198598 684 401.062)" fill="#F4F4F4"/>
<circle cx="7" cy="7" r="7" transform="matrix(0.00198598 -0.999998 -0.999998 -0.00198598 641 401.062)" fill="#F4F4F4"/>
<circle cx="7" cy="7" r="7" transform="matrix(0.00198598 -0.999998 -0.999998 -0.00198598 727 401.062)" fill="#F4F4F4"/>
<circle cx="7" cy="7" r="7" transform="matrix(0.00198598 -0.999998 -0.999998 -0.00198598 770 401.062)" fill="#F4F4F4"/>
<circle cx="7" cy="7" r="7" transform="matrix(0.00198598 -0.999998 -0.999998 -0.00198598 813 401.062)" fill="#F4F4F4"/>
<circle cx="7" cy="7" r="7" transform="matrix(0.00198598 -0.999998 -0.999998 -0.00198598 856 401.062)" fill="#F4F4F4"/>
<circle cx="7" cy="7" r="7" transform="matrix(0.00198598 -0.999998 -0.999998 -0.00198598 899 401.062)" fill="#F4F4F4"/>
<circle cx="7" cy="7" r="7" transform="matrix(0.00198598 -0.999998 -0.999998 -0.00198598 942 401.062)" fill="#F4F4F4"/>
<circle cx="7" cy="7" r="7" transform="matrix(0.00198598 -0.999998 -0.999998 -0.00198598 985 401.062)" fill="#F4F4F4"/>
<circle cx="7" cy="7" r="7" transform="matrix(0.00198598 -0.999998 -0.999998 -0.00198598 1028 401.062)" fill="#F4F4F4"/>
<circle cx="7" cy="7" r="7" transform="matrix(0.00198598 -0.999998 -0.999998 -0.00198598 1071 401.062)" fill="#F4F4F4"/>
<circle cx="7" cy="7" r="7" transform="matrix(0.00198598 -0.999998 -0.999998 -0.00198598 1114 401.062)" fill="#F4F4F4"/>
<circle cx="7" cy="7" r="7" transform="matrix(0.00198598 -0.999998 -0.999998 -0.00198598 1157 401.062)" fill="#F4F4F4"/>
<circle cx="7" cy="7" r="7" transform="matrix(0.00198598 -0.999998 -0.999998 -0.00198598 1200 401.062)" fill="#F4F4F4"/>
<circle cx="7" cy="7" r="7" transform="matrix(0.00198598 -0.999998 -0.999998 -0.00198598 1243 401.062)" fill="#F4F4F4"/>
<circle cx="7" cy="7" r="7" transform="matrix(0.00198598 -0.999998 -0.999998 -0.00198598 1286 401.062)" fill="#F4F4F4"/>
<circle cx="7" cy="7" r="7" transform="matrix(0.00198598 -0.999998 -0.999998 -0.00198598 1329 401.062)" fill="#F4F4F4"/>
<circle cx="7" cy="7" r="7" transform="matrix(0.00198598 -0.999998 -0.999998 -0.00198598 1372 401.062)" fill="#F4F4F4"/>
<circle cx="7" cy="7" r="7" transform="matrix(0.00198598 -0.999998 -0.999998 -0.00198598 1415 401.062)" fill="#F4F4F4"/>
</svg>
