<svg width="1440" height="445" viewBox="0 0 1440 445" fill="none" xmlns="http://www.w3.org/2000/svg">
<g opacity="0.6">
<circle cx="7" cy="7" r="7" transform="matrix(0.00198598 -0.999998 -0.999998 -0.00198598 14 14.0312)" fill="#F4F4F4"/>
<circle cx="7" cy="7" r="7" transform="matrix(0.00198598 -0.999998 -0.999998 -0.00198598 57 14.0312)" fill="#F4F4F4"/>
<circle cx="7" cy="7" r="7" transform="matrix(0.00198598 -0.999998 -0.999998 -0.00198598 100 14.0312)" fill="#F4F4F4"/>
<circle opacity="0.4" cx="7" cy="7" r="7" transform="matrix(0.00198598 -0.999998 -0.999998 -0.00198598 143 14.0312)" fill="#F4F4F4"/>
<circle opacity="0.4" cx="7" cy="7" r="7" transform="matrix(0.00198598 -0.999998 -0.999998 -0.00198598 186 14.0312)" fill="#F4F4F4"/>
<circle opacity="0.4" cx="7" cy="7" r="7" transform="matrix(0.00198598 -0.999998 -0.999998 -0.00198598 229 14.0312)" fill="#F4F4F4"/>
<circle opacity="0.4" cx="7" cy="7" r="7" transform="matrix(0.00198598 -0.999998 -0.999998 -0.00198598 272 14.0312)" fill="#F4F4F4"/>
<circle opacity="0.4" cx="7" cy="7" r="7" transform="matrix(0.00198598 -0.999998 -0.999998 -0.00198598 315 14.0312)" fill="#F4F4F4"/>
<circle cx="7" cy="7" r="7" transform="matrix(0.00198598 -0.999998 -0.999998 -0.00198598 358 14.0312)" fill="#F4F4F4"/>
<circle cx="7" cy="7" r="7" transform="matrix(0.00198598 -0.999998 -0.999998 -0.00198598 401 14.0312)" fill="#F4F4F4"/>
<circle cx="7" cy="7" r="7" transform="matrix(0.00198598 -0.999998 -0.999998 -0.00198598 444 14.0312)" fill="#F4F4F4"/>
<circle cx="7" cy="7" r="7" transform="matrix(0.00198598 -0.999998 -0.999998 -0.00198598 487 14.0312)" fill="#F4F4F4"/>
<circle cx="7" cy="7" r="7" transform="matrix(0.00198598 -0.999998 -0.999998 -0.00198598 530 14.0312)" fill="#F4F4F4"/>
<circle cx="7" cy="7" r="7" transform="matrix(0.00198598 -0.999998 -0.999998 -0.00198598 573 14.0312)" fill="#F4F4F4"/>
<circle cx="7" cy="7" r="7" transform="matrix(0.00198598 -0.999998 -0.999998 -0.00198598 616 14.0312)" fill="#F4F4F4"/>
<circle cx="7" cy="7" r="7" transform="matrix(0.00198598 -0.999998 -0.999998 -0.00198598 702 14.0312)" fill="#F4F4F4"/>
<circle cx="7" cy="7" r="7" transform="matrix(0.00198598 -0.999998 -0.999998 -0.00198598 659 14.0312)" fill="#F4F4F4"/>
<circle cx="7" cy="7" r="7" transform="matrix(0.00198598 -0.999998 -0.999998 -0.00198598 745 14.0312)" fill="#F4F4F4"/>
<circle cx="7" cy="7" r="7" transform="matrix(0.00198598 -0.999998 -0.999998 -0.00198598 788 14.0312)" fill="#F4F4F4"/>
<circle cx="7" cy="7" r="7" transform="matrix(0.00198598 -0.999998 -0.999998 -0.00198598 831 14.0312)" fill="#F4F4F4"/>
<circle cx="7" cy="7" r="7" transform="matrix(0.00198598 -0.999998 -0.999998 -0.00198598 874 14.0312)" fill="#F4F4F4"/>
<circle cx="7" cy="7" r="7" transform="matrix(0.00198598 -0.999998 -0.999998 -0.00198598 917 14.0312)" fill="#F4F4F4"/>
<circle cx="7" cy="7" r="7" transform="matrix(0.00198598 -0.999998 -0.999998 -0.00198598 960 14.0312)" fill="#F4F4F4"/>
<circle cx="7" cy="7" r="7" transform="matrix(0.00198598 -0.999998 -0.999998 -0.00198598 1003 14.0312)" fill="#F4F4F4"/>
<circle cx="7" cy="7" r="7" transform="matrix(0.00198598 -0.999998 -0.999998 -0.00198598 1046 14.0312)" fill="#F4F4F4"/>
<circle cx="7" cy="7" r="7" transform="matrix(0.00198598 -0.999998 -0.999998 -0.00198598 1089 14.0312)" fill="#F4F4F4"/>
<circle cx="7" cy="7" r="7" transform="matrix(0.00198598 -0.999998 -0.999998 -0.00198598 1132 14.0312)" fill="#F4F4F4"/>
<circle cx="7" cy="7" r="7" transform="matrix(0.00198598 -0.999998 -0.999998 -0.00198598 1175 14.0312)" fill="#F4F4F4"/>
<circle cx="7" cy="7" r="7" transform="matrix(0.00198598 -0.999998 -0.999998 -0.00198598 1218 14.0312)" fill="#F4F4F4"/>
<circle cx="7" cy="7" r="7" transform="matrix(0.00198598 -0.999998 -0.999998 -0.00198598 1261 14.0312)" fill="#F4F4F4"/>
<circle cx="7" cy="7" r="7" transform="matrix(0.00198598 -0.999998 -0.999998 -0.00198598 1304 14.0312)" fill="#F4F4F4"/>
<circle cx="7" cy="7" r="7" transform="matrix(0.00198598 -0.999998 -0.999998 -0.00198598 1347 14.0312)" fill="#F4F4F4"/>
<circle cx="7" cy="7" r="7" transform="matrix(0.00198598 -0.999998 -0.999998 -0.00198598 1390 14.0312)" fill="#F4F4F4"/>
<circle cx="7" cy="7" r="7" transform="matrix(0.00198598 -0.999998 -0.999998 -0.00198598 1433 14.0312)" fill="#F4F4F4"/>
<circle cx="7" cy="7" r="7" transform="matrix(0.00198598 -0.999998 -0.999998 -0.00198598 14 57.0312)" fill="#F4F4F4"/>
<circle cx="7" cy="7" r="7" transform="matrix(0.00198598 -0.999998 -0.999998 -0.00198598 57 57.0312)" fill="#F4F4F4"/>
<circle opacity="0.4" cx="7" cy="7" r="7" transform="matrix(0.00198598 -0.999998 -0.999998 -0.00198598 143 57.0312)" fill="#F4F4F4"/>
<circle cx="7" cy="7" r="7" transform="matrix(0.00198598 -0.999998 -0.999998 -0.00198598 100 57.0312)" fill="#F4F4F4"/>
<circle opacity="0.4" cx="7" cy="7" r="7" transform="matrix(0.00198598 -0.999998 -0.999998 -0.00198598 186 57.0312)" fill="#F4F4F4"/>
<circle opacity="0.4" cx="7" cy="7" r="7" transform="matrix(0.00198598 -0.999998 -0.999998 -0.00198598 229 57.0312)" fill="#F4F4F4"/>
<circle opacity="0.4" cx="7" cy="7" r="7" transform="matrix(0.00198598 -0.999998 -0.999998 -0.00198598 272 57.0312)" fill="#F4F4F4"/>
<circle opacity="0.4" cx="7" cy="7" r="7" transform="matrix(0.00198598 -0.999998 -0.999998 -0.00198598 315 57.0312)" fill="#F4F4F4"/>
<circle opacity="0.4" cx="7" cy="7" r="7" transform="matrix(0.00198598 -0.999998 -0.999998 -0.00198598 358 57.0312)" fill="#F4F4F4"/>
<circle opacity="0.4" cx="7" cy="7" r="7" transform="matrix(0.00198598 -0.999998 -0.999998 -0.00198598 401 57.0312)" fill="#F4F4F4"/>
<circle opacity="0.4" cx="7" cy="7" r="7" transform="matrix(0.00198598 -0.999998 -0.999998 -0.00198598 444 57.0312)" fill="#F4F4F4"/>
<circle opacity="0.4" cx="7" cy="7" r="7" transform="matrix(0.00198598 -0.999998 -0.999998 -0.00198598 487 57.0312)" fill="#F4F4F4"/>
<circle opacity="0.4" cx="7" cy="7" r="7" transform="matrix(0.00198598 -0.999998 -0.999998 -0.00198598 530 57.0312)" fill="#F4F4F4"/>
<circle cx="7" cy="7" r="7" transform="matrix(0.00198598 -0.999998 -0.999998 -0.00198598 573 57.0312)" fill="#F4F4F4"/>
<circle cx="7" cy="7" r="7" transform="matrix(0.00198598 -0.999998 -0.999998 -0.00198598 616 57.0312)" fill="#F4F4F4"/>
<circle cx="7" cy="7" r="7" transform="matrix(0.00198598 -0.999998 -0.999998 -0.00198598 702 57.0312)" fill="#F4F4F4"/>
<circle cx="7" cy="7" r="7" transform="matrix(0.00198598 -0.999998 -0.999998 -0.00198598 659 57.0312)" fill="#F4F4F4"/>
<circle cx="7" cy="7" r="7" transform="matrix(0.00198598 -0.999998 -0.999998 -0.00198598 745 57.0312)" fill="#F4F4F4"/>
<circle cx="7" cy="7" r="7" transform="matrix(0.00198598 -0.999998 -0.999998 -0.00198598 788 57.0312)" fill="#F4F4F4"/>
<circle cx="7" cy="7" r="7" transform="matrix(0.00198598 -0.999998 -0.999998 -0.00198598 831 57.0312)" fill="#F4F4F4"/>
<circle cx="7" cy="7" r="7" transform="matrix(0.00198598 -0.999998 -0.999998 -0.00198598 874 57.0312)" fill="#F4F4F4"/>
<circle cx="7" cy="7" r="7" transform="matrix(0.00198598 -0.999998 -0.999998 -0.00198598 917 57.0312)" fill="#F4F4F4"/>
<circle cx="7" cy="7" r="7" transform="matrix(0.00198598 -0.999998 -0.999998 -0.00198598 960 57.0312)" fill="#F4F4F4"/>
<circle cx="7" cy="7" r="7" transform="matrix(0.00198598 -0.999998 -0.999998 -0.00198598 1003 57.0312)" fill="#F4F4F4"/>
<circle cx="7" cy="7" r="7" transform="matrix(0.00198598 -0.999998 -0.999998 -0.00198598 1046 57.0312)" fill="#F4F4F4"/>
<circle cx="7" cy="7" r="7" transform="matrix(0.00198598 -0.999998 -0.999998 -0.00198598 1089 57.0312)" fill="#F4F4F4"/>
<circle cx="7" cy="7" r="7" transform="matrix(0.00198598 -0.999998 -0.999998 -0.00198598 1132 57.0312)" fill="#F4F4F4"/>
<circle cx="7" cy="7" r="7" transform="matrix(0.00198598 -0.999998 -0.999998 -0.00198598 1175 57.0312)" fill="#F4F4F4"/>
<circle cx="7" cy="7" r="7" transform="matrix(0.00198598 -0.999998 -0.999998 -0.00198598 1218 57.0312)" fill="#F4F4F4"/>
<circle cx="7" cy="7" r="7" transform="matrix(0.00198598 -0.999998 -0.999998 -0.00198598 1261 57.0312)" fill="#F4F4F4"/>
<circle cx="7" cy="7" r="7" transform="matrix(0.00198598 -0.999998 -0.999998 -0.00198598 1304 57.0312)" fill="#F4F4F4"/>
<circle cx="7" cy="7" r="7" transform="matrix(0.00198598 -0.999998 -0.999998 -0.00198598 1347 57.0312)" fill="#F4F4F4"/>
<circle cx="7" cy="7" r="7" transform="matrix(0.00198598 -0.999998 -0.999998 -0.00198598 1390 57.0312)" fill="#F4F4F4"/>
<circle cx="7" cy="7" r="7" transform="matrix(0.00198598 -0.999998 -0.999998 -0.00198598 1433 57.0312)" fill="#F4F4F4"/>
<circle cx="7" cy="7" r="7" transform="matrix(0.00198598 -0.999998 -0.999998 -0.00198598 14 100.031)" fill="#F4F4F4"/>
<circle cx="7" cy="7" r="7" transform="matrix(0.00198598 -0.999998 -0.999998 -0.00198598 57 100.031)" fill="#F4F4F4"/>
<circle opacity="0.4" cx="7" cy="7" r="7" transform="matrix(0.00198598 -0.999998 -0.999998 -0.00198598 143 100.031)" fill="#F4F4F4"/>
<circle cx="7" cy="7" r="7" transform="matrix(0.00198598 -0.999998 -0.999998 -0.00198598 100 100.031)" fill="#F4F4F4"/>
<circle opacity="0.4" cx="7" cy="7" r="7" transform="matrix(0.00198598 -0.999998 -0.999998 -0.00198598 186 100.031)" fill="#F4F4F4"/>
<circle opacity="0.4" cx="7" cy="7" r="7" transform="matrix(0.00198598 -0.999998 -0.999998 -0.00198598 229 100.031)" fill="#F4F4F4"/>
<circle opacity="0.4" cx="7" cy="7" r="7" transform="matrix(0.00198598 -0.999998 -0.999998 -0.00198598 272 100.031)" fill="#F4F4F4"/>
<circle opacity="0.4" cx="7" cy="7" r="7" transform="matrix(0.00198598 -0.999998 -0.999998 -0.00198598 315 100.031)" fill="#F4F4F4"/>
<circle opacity="0.4" cx="7" cy="7" r="7" transform="matrix(0.00198598 -0.999998 -0.999998 -0.00198598 358 100.031)" fill="#F4F4F4"/>
<circle opacity="0.4" cx="7" cy="7" r="7" transform="matrix(0.00198598 -0.999998 -0.999998 -0.00198598 401 100.031)" fill="#F4F4F4"/>
<circle opacity="0.4" cx="7" cy="7" r="7" transform="matrix(0.00198598 -0.999998 -0.999998 -0.00198598 444 100.031)" fill="#F4F4F4"/>
<circle opacity="0.4" cx="7" cy="7" r="7" transform="matrix(0.00198598 -0.999998 -0.999998 -0.00198598 487 100.031)" fill="#F4F4F4"/>
<circle opacity="0.4" cx="7" cy="7" r="7" transform="matrix(0.00198598 -0.999998 -0.999998 -0.00198598 530 100.031)" fill="#F4F4F4"/>
<circle cx="7" cy="7" r="7" transform="matrix(0.00198598 -0.999998 -0.999998 -0.00198598 573 100.031)" fill="#F4F4F4"/>
<circle cx="7" cy="7" r="7" transform="matrix(0.00198598 -0.999998 -0.999998 -0.00198598 616 100.031)" fill="#F4F4F4"/>
<circle cx="7" cy="7" r="7" transform="matrix(0.00198598 -0.999998 -0.999998 -0.00198598 702 100.031)" fill="#F4F4F4"/>
<circle cx="7" cy="7" r="7" transform="matrix(0.00198598 -0.999998 -0.999998 -0.00198598 659 100.031)" fill="#F4F4F4"/>
<circle cx="7" cy="7" r="7" transform="matrix(0.00198598 -0.999998 -0.999998 -0.00198598 745 100.031)" fill="#F4F4F4"/>
<circle cx="7" cy="7" r="7" transform="matrix(0.00198598 -0.999998 -0.999998 -0.00198598 788 100.031)" fill="#F4F4F4"/>
<circle cx="7" cy="7" r="7" transform="matrix(0.00198598 -0.999998 -0.999998 -0.00198598 831 100.031)" fill="#F4F4F4"/>
<circle cx="7" cy="7" r="7" transform="matrix(0.00198598 -0.999998 -0.999998 -0.00198598 874 100.031)" fill="#F4F4F4"/>
<circle cx="7" cy="7" r="7" transform="matrix(0.00198598 -0.999998 -0.999998 -0.00198598 917 100.031)" fill="#F4F4F4"/>
<circle cx="7" cy="7" r="7" transform="matrix(0.00198598 -0.999998 -0.999998 -0.00198598 960 100.031)" fill="#F4F4F4"/>
<circle cx="7" cy="7" r="7" transform="matrix(0.00198598 -0.999998 -0.999998 -0.00198598 1003 100.031)" fill="#F4F4F4"/>
<circle cx="7" cy="7" r="7" transform="matrix(0.00198598 -0.999998 -0.999998 -0.00198598 1046 100.031)" fill="#F4F4F4"/>
<circle cx="7" cy="7" r="7" transform="matrix(0.00198598 -0.999998 -0.999998 -0.00198598 1089 100.031)" fill="#F4F4F4"/>
<circle cx="7" cy="7" r="7" transform="matrix(0.00198598 -0.999998 -0.999998 -0.00198598 1132 100.031)" fill="#F4F4F4"/>
<circle cx="7" cy="7" r="7" transform="matrix(0.00198598 -0.999998 -0.999998 -0.00198598 1175 100.031)" fill="#F4F4F4"/>
<circle cx="7" cy="7" r="7" transform="matrix(0.00198598 -0.999998 -0.999998 -0.00198598 1218 100.031)" fill="#F4F4F4"/>
<circle cx="7" cy="7" r="7" transform="matrix(0.00198598 -0.999998 -0.999998 -0.00198598 1261 100.031)" fill="#F4F4F4"/>
<circle cx="7" cy="7" r="7" transform="matrix(0.00198598 -0.999998 -0.999998 -0.00198598 1304 100.031)" fill="#F4F4F4"/>
<circle cx="7" cy="7" r="7" transform="matrix(0.00198598 -0.999998 -0.999998 -0.00198598 1347 100.031)" fill="#F4F4F4"/>
<circle cx="7" cy="7" r="7" transform="matrix(0.00198598 -0.999998 -0.999998 -0.00198598 1390 100.031)" fill="#F4F4F4"/>
<circle cx="7" cy="7" r="7" transform="matrix(0.00198598 -0.999998 -0.999998 -0.00198598 1433 100.031)" fill="#F4F4F4"/>
<circle cx="7" cy="7" r="7" transform="matrix(0.00198598 -0.999998 -0.999998 -0.00198598 14 143.031)" fill="#F4F4F4"/>
<circle cx="7" cy="7" r="7" transform="matrix(0.00198598 -0.999998 -0.999998 -0.00198598 57 143.031)" fill="#F4F4F4"/>
<circle opacity="0.4" cx="7" cy="7" r="7" transform="matrix(0.00198598 -0.999998 -0.999998 -0.00198598 143 143.031)" fill="#F4F4F4"/>
<circle cx="7" cy="7" r="7" transform="matrix(0.00198598 -0.999998 -0.999998 -0.00198598 100 143.031)" fill="#F4F4F4"/>
<circle opacity="0.4" cx="7" cy="7" r="7" transform="matrix(0.00198598 -0.999998 -0.999998 -0.00198598 186 143.031)" fill="#F4F4F4"/>
<circle opacity="0.4" cx="7" cy="7" r="7" transform="matrix(0.00198598 -0.999998 -0.999998 -0.00198598 229 143.031)" fill="#F4F4F4"/>
<circle opacity="0.4" cx="7" cy="7" r="7" transform="matrix(0.00198598 -0.999998 -0.999998 -0.00198598 272 143.031)" fill="#F4F4F4"/>
<circle opacity="0.4" cx="7" cy="7" r="7" transform="matrix(0.00198598 -0.999998 -0.999998 -0.00198598 315 143.031)" fill="#F4F4F4"/>
<circle opacity="0.4" cx="7" cy="7" r="7" transform="matrix(0.00198598 -0.999998 -0.999998 -0.00198598 358 143.031)" fill="#F4F4F4"/>
<circle opacity="0.4" cx="7" cy="7" r="7" transform="matrix(0.00198598 -0.999998 -0.999998 -0.00198598 401 143.031)" fill="#F4F4F4"/>
<circle opacity="0.4" cx="7" cy="7" r="7" transform="matrix(0.00198598 -0.999998 -0.999998 -0.00198598 444 143.031)" fill="#F4F4F4"/>
<circle opacity="0.4" cx="7" cy="7" r="7" transform="matrix(0.00198598 -0.999998 -0.999998 -0.00198598 487 143.031)" fill="#F4F4F4"/>
<circle opacity="0.4" cx="7" cy="7" r="7" transform="matrix(0.00198598 -0.999998 -0.999998 -0.00198598 530 143.031)" fill="#F4F4F4"/>
<circle cx="7" cy="7" r="7" transform="matrix(0.00198598 -0.999998 -0.999998 -0.00198598 573 143.031)" fill="#F4F4F4"/>
<circle cx="7" cy="7" r="7" transform="matrix(0.00198598 -0.999998 -0.999998 -0.00198598 616 143.031)" fill="#F4F4F4"/>
<circle cx="7" cy="7" r="7" transform="matrix(0.00198598 -0.999998 -0.999998 -0.00198598 702 143.031)" fill="#F4F4F4"/>
<circle cx="7" cy="7" r="7" transform="matrix(0.00198598 -0.999998 -0.999998 -0.00198598 659 143.031)" fill="#F4F4F4"/>
<circle cx="7" cy="7" r="7" transform="matrix(0.00198598 -0.999998 -0.999998 -0.00198598 745 143.031)" fill="#F4F4F4"/>
<circle cx="7" cy="7" r="7" transform="matrix(0.00198598 -0.999998 -0.999998 -0.00198598 788 143.031)" fill="#F4F4F4"/>
<circle cx="7" cy="7" r="7" transform="matrix(0.00198598 -0.999998 -0.999998 -0.00198598 831 143.031)" fill="#F4F4F4"/>
<circle cx="7" cy="7" r="7" transform="matrix(0.00198598 -0.999998 -0.999998 -0.00198598 874 143.031)" fill="#F4F4F4"/>
<circle cx="7" cy="7" r="7" transform="matrix(0.00198598 -0.999998 -0.999998 -0.00198598 917 143.031)" fill="#F4F4F4"/>
<circle cx="7" cy="7" r="7" transform="matrix(0.00198598 -0.999998 -0.999998 -0.00198598 960 143.031)" fill="#F4F4F4"/>
<circle cx="7" cy="7" r="7" transform="matrix(0.00198598 -0.999998 -0.999998 -0.00198598 1003 143.031)" fill="#F4F4F4"/>
<circle cx="7" cy="7" r="7" transform="matrix(0.00198598 -0.999998 -0.999998 -0.00198598 1046 143.031)" fill="#F4F4F4"/>
<circle cx="7" cy="7" r="7" transform="matrix(0.00198598 -0.999998 -0.999998 -0.00198598 1089 143.031)" fill="#F4F4F4"/>
<circle cx="7" cy="7" r="7" transform="matrix(0.00198598 -0.999998 -0.999998 -0.00198598 1132 143.031)" fill="#F4F4F4"/>
<circle cx="7" cy="7" r="7" transform="matrix(0.00198598 -0.999998 -0.999998 -0.00198598 1175 143.031)" fill="#F4F4F4"/>
<circle cx="7" cy="7" r="7" transform="matrix(0.00198598 -0.999998 -0.999998 -0.00198598 1218 143.031)" fill="#F4F4F4"/>
<circle cx="7" cy="7" r="7" transform="matrix(0.00198598 -0.999998 -0.999998 -0.00198598 1261 143.031)" fill="#F4F4F4"/>
<circle cx="7" cy="7" r="7" transform="matrix(0.00198598 -0.999998 -0.999998 -0.00198598 1304 143.031)" fill="#F4F4F4"/>
<circle cx="7" cy="7" r="7" transform="matrix(0.00198598 -0.999998 -0.999998 -0.00198598 1347 143.031)" fill="#F4F4F4"/>
<circle cx="7" cy="7" r="7" transform="matrix(0.00198598 -0.999998 -0.999998 -0.00198598 1390 143.031)" fill="#F4F4F4"/>
<circle cx="7" cy="7" r="7" transform="matrix(0.00198598 -0.999998 -0.999998 -0.00198598 1433 143.031)" fill="#F4F4F4"/>
<circle cx="7" cy="7" r="7" transform="matrix(0.00198598 -0.999998 -0.999998 -0.00198598 14 186.031)" fill="#F4F4F4"/>
<circle cx="7" cy="7" r="7" transform="matrix(0.00198598 -0.999998 -0.999998 -0.00198598 57 186.031)" fill="#F4F4F4"/>
<circle opacity="0.4" cx="7" cy="7" r="7" transform="matrix(0.00198598 -0.999998 -0.999998 -0.00198598 143 186.031)" fill="#F4F4F4"/>
<circle cx="7" cy="7" r="7" transform="matrix(0.00198598 -0.999998 -0.999998 -0.00198598 100 186.031)" fill="#F4F4F4"/>
<circle opacity="0.4" cx="7" cy="7" r="7" transform="matrix(0.00198598 -0.999998 -0.999998 -0.00198598 186 186.031)" fill="#F4F4F4"/>
<circle opacity="0.4" cx="7" cy="7" r="7" transform="matrix(0.00198598 -0.999998 -0.999998 -0.00198598 229 186.031)" fill="#F4F4F4"/>
<circle opacity="0.4" cx="7" cy="7" r="7" transform="matrix(0.00198598 -0.999998 -0.999998 -0.00198598 272 186.031)" fill="#F4F4F4"/>
<circle opacity="0.4" cx="7" cy="7" r="7" transform="matrix(0.00198598 -0.999998 -0.999998 -0.00198598 315 186.031)" fill="#F4F4F4"/>
<circle opacity="0.4" cx="7" cy="7" r="7" transform="matrix(0.00198598 -0.999998 -0.999998 -0.00198598 358 186.031)" fill="#F4F4F4"/>
<circle opacity="0.4" cx="7" cy="7" r="7" transform="matrix(0.00198598 -0.999998 -0.999998 -0.00198598 401 186.031)" fill="#F4F4F4"/>
<circle opacity="0.4" cx="7" cy="7" r="7" transform="matrix(0.00198598 -0.999998 -0.999998 -0.00198598 444 186.031)" fill="#F4F4F4"/>
<circle opacity="0.4" cx="7" cy="7" r="7" transform="matrix(0.00198598 -0.999998 -0.999998 -0.00198598 487 186.031)" fill="#F4F4F4"/>
<circle opacity="0.4" cx="7" cy="7" r="7" transform="matrix(0.00198598 -0.999998 -0.999998 -0.00198598 530 186.031)" fill="#F4F4F4"/>
<circle cx="7" cy="7" r="7" transform="matrix(0.00198598 -0.999998 -0.999998 -0.00198598 573 186.031)" fill="#F4F4F4"/>
<circle cx="7" cy="7" r="7" transform="matrix(0.00198598 -0.999998 -0.999998 -0.00198598 616 186.031)" fill="#F4F4F4"/>
<circle cx="7" cy="7" r="7" transform="matrix(0.00198598 -0.999998 -0.999998 -0.00198598 702 186.031)" fill="#F4F4F4"/>
<circle cx="7" cy="7" r="7" transform="matrix(0.00198598 -0.999998 -0.999998 -0.00198598 659 186.031)" fill="#F4F4F4"/>
<circle cx="7" cy="7" r="7" transform="matrix(0.00198598 -0.999998 -0.999998 -0.00198598 745 186.031)" fill="#F4F4F4"/>
<circle cx="7" cy="7" r="7" transform="matrix(0.00198598 -0.999998 -0.999998 -0.00198598 788 186.031)" fill="#F4F4F4"/>
<circle cx="7" cy="7" r="7" transform="matrix(0.00198598 -0.999998 -0.999998 -0.00198598 831 186.031)" fill="#F4F4F4"/>
<circle cx="7" cy="7" r="7" transform="matrix(0.00198598 -0.999998 -0.999998 -0.00198598 874 186.031)" fill="#F4F4F4"/>
<circle cx="7" cy="7" r="7" transform="matrix(0.00198598 -0.999998 -0.999998 -0.00198598 917 186.031)" fill="#F4F4F4"/>
<circle cx="7" cy="7" r="7" transform="matrix(0.00198598 -0.999998 -0.999998 -0.00198598 960 186.031)" fill="#F4F4F4"/>
<circle cx="7" cy="7" r="7" transform="matrix(0.00198598 -0.999998 -0.999998 -0.00198598 1003 186.031)" fill="#F4F4F4"/>
<circle cx="7" cy="7" r="7" transform="matrix(0.00198598 -0.999998 -0.999998 -0.00198598 1046 186.031)" fill="#F4F4F4"/>
<circle cx="7" cy="7" r="7" transform="matrix(0.00198598 -0.999998 -0.999998 -0.00198598 1089 186.031)" fill="#F4F4F4"/>
<circle cx="7" cy="7" r="7" transform="matrix(0.00198598 -0.999998 -0.999998 -0.00198598 1132 186.031)" fill="#F4F4F4"/>
<circle cx="7" cy="7" r="7" transform="matrix(0.00198598 -0.999998 -0.999998 -0.00198598 1175 186.031)" fill="#F4F4F4"/>
<circle cx="7" cy="7" r="7" transform="matrix(0.00198598 -0.999998 -0.999998 -0.00198598 1218 186.031)" fill="#F4F4F4"/>
<circle cx="7" cy="7" r="7" transform="matrix(0.00198598 -0.999998 -0.999998 -0.00198598 1261 186.031)" fill="#F4F4F4"/>
<circle cx="7" cy="7" r="7" transform="matrix(0.00198598 -0.999998 -0.999998 -0.00198598 1304 186.031)" fill="#F4F4F4"/>
<circle cx="7" cy="7" r="7" transform="matrix(0.00198598 -0.999998 -0.999998 -0.00198598 1347 186.031)" fill="#F4F4F4"/>
<circle cx="7" cy="7" r="7" transform="matrix(0.00198598 -0.999998 -0.999998 -0.00198598 1390 186.031)" fill="#F4F4F4"/>
<circle cx="7" cy="7" r="7" transform="matrix(0.00198598 -0.999998 -0.999998 -0.00198598 1433 186.031)" fill="#F4F4F4"/>
<circle cx="7" cy="7" r="7" transform="matrix(0.00198598 -0.999998 -0.999998 -0.00198598 14 229.062)" fill="#F4F4F4"/>
<circle cx="7" cy="7" r="7" transform="matrix(0.00198598 -0.999998 -0.999998 -0.00198598 57 229.062)" fill="#F4F4F4"/>
<circle opacity="0.4" cx="7" cy="7" r="7" transform="matrix(0.00198598 -0.999998 -0.999998 -0.00198598 143 229.062)" fill="#F4F4F4"/>
<circle cx="7" cy="7" r="7" transform="matrix(0.00198598 -0.999998 -0.999998 -0.00198598 100 229.062)" fill="#F4F4F4"/>
<circle opacity="0.4" cx="7" cy="7" r="7" transform="matrix(0.00198598 -0.999998 -0.999998 -0.00198598 186 229.062)" fill="#F4F4F4"/>
<circle opacity="0.4" cx="7" cy="7" r="7" transform="matrix(0.00198598 -0.999998 -0.999998 -0.00198598 229 229.062)" fill="#F4F4F4"/>
<circle opacity="0.4" cx="7" cy="7" r="7" transform="matrix(0.00198598 -0.999998 -0.999998 -0.00198598 272 229.062)" fill="#F4F4F4"/>
<circle opacity="0.4" cx="7" cy="7" r="7" transform="matrix(0.00198598 -0.999998 -0.999998 -0.00198598 315 229.062)" fill="#F4F4F4"/>
<circle opacity="0.4" cx="7" cy="7" r="7" transform="matrix(0.00198598 -0.999998 -0.999998 -0.00198598 358 229.062)" fill="#F4F4F4"/>
<circle opacity="0.4" cx="7" cy="7" r="7" transform="matrix(0.00198598 -0.999998 -0.999998 -0.00198598 401 229.062)" fill="#F4F4F4"/>
<circle opacity="0.4" cx="7" cy="7" r="7" transform="matrix(0.00198598 -0.999998 -0.999998 -0.00198598 444 229.062)" fill="#F4F4F4"/>
<circle opacity="0.4" cx="7" cy="7" r="7" transform="matrix(0.00198598 -0.999998 -0.999998 -0.00198598 487 229.062)" fill="#F4F4F4"/>
<circle opacity="0.4" cx="7" cy="7" r="7" transform="matrix(0.00198598 -0.999998 -0.999998 -0.00198598 530 229.062)" fill="#F4F4F4"/>
<circle cx="7" cy="7" r="7" transform="matrix(0.00198598 -0.999998 -0.999998 -0.00198598 573 229.062)" fill="#F4F4F4"/>
<circle cx="7" cy="7" r="7" transform="matrix(0.00198598 -0.999998 -0.999998 -0.00198598 616 229.062)" fill="#F4F4F4"/>
<circle cx="7" cy="7" r="7" transform="matrix(0.00198598 -0.999998 -0.999998 -0.00198598 702 229.062)" fill="#F4F4F4"/>
<circle cx="7" cy="7" r="7" transform="matrix(0.00198598 -0.999998 -0.999998 -0.00198598 659 229.062)" fill="#F4F4F4"/>
<circle cx="7" cy="7" r="7" transform="matrix(0.00198598 -0.999998 -0.999998 -0.00198598 745 229.062)" fill="#F4F4F4"/>
<circle cx="7" cy="7" r="7" transform="matrix(0.00198598 -0.999998 -0.999998 -0.00198598 788 229.062)" fill="#F4F4F4"/>
<circle cx="7" cy="7" r="7" transform="matrix(0.00198598 -0.999998 -0.999998 -0.00198598 831 229.062)" fill="#F4F4F4"/>
<circle cx="7" cy="7" r="7" transform="matrix(0.00198598 -0.999998 -0.999998 -0.00198598 874 229.062)" fill="#F4F4F4"/>
<circle cx="7" cy="7" r="7" transform="matrix(0.00198598 -0.999998 -0.999998 -0.00198598 917 229.062)" fill="#F4F4F4"/>
<circle cx="7" cy="7" r="7" transform="matrix(0.00198598 -0.999998 -0.999998 -0.00198598 960 229.062)" fill="#F4F4F4"/>
<circle cx="7" cy="7" r="7" transform="matrix(0.00198598 -0.999998 -0.999998 -0.00198598 1003 229.062)" fill="#F4F4F4"/>
<circle cx="7" cy="7" r="7" transform="matrix(0.00198598 -0.999998 -0.999998 -0.00198598 1046 229.062)" fill="#F4F4F4"/>
<circle cx="7" cy="7" r="7" transform="matrix(0.00198598 -0.999998 -0.999998 -0.00198598 1089 229.062)" fill="#F4F4F4"/>
<circle cx="7" cy="7" r="7" transform="matrix(0.00198598 -0.999998 -0.999998 -0.00198598 1132 229.062)" fill="#F4F4F4"/>
<circle cx="7" cy="7" r="7" transform="matrix(0.00198598 -0.999998 -0.999998 -0.00198598 1175 229.062)" fill="#F4F4F4"/>
<circle cx="7" cy="7" r="7" transform="matrix(0.00198598 -0.999998 -0.999998 -0.00198598 1218 229.062)" fill="#F4F4F4"/>
<circle cx="7" cy="7" r="7" transform="matrix(0.00198598 -0.999998 -0.999998 -0.00198598 1261 229.062)" fill="#F4F4F4"/>
<circle cx="7" cy="7" r="7" transform="matrix(0.00198598 -0.999998 -0.999998 -0.00198598 1304 229.062)" fill="#F4F4F4"/>
<circle cx="7" cy="7" r="7" transform="matrix(0.00198598 -0.999998 -0.999998 -0.00198598 1347 229.062)" fill="#F4F4F4"/>
<circle cx="7" cy="7" r="7" transform="matrix(0.00198598 -0.999998 -0.999998 -0.00198598 1390 229.062)" fill="#F4F4F4"/>
<circle cx="7" cy="7" r="7" transform="matrix(0.00198598 -0.999998 -0.999998 -0.00198598 1433 229.062)" fill="#F4F4F4"/>
<circle cx="7" cy="7" r="7" transform="matrix(0.00198598 -0.999998 -0.999998 -0.00198598 14 272.031)" fill="#F4F4F4"/>
<circle cx="7" cy="7" r="7" transform="matrix(0.00198598 -0.999998 -0.999998 -0.00198598 57 272.031)" fill="#F4F4F4"/>
<circle opacity="0.4" cx="7" cy="7" r="7" transform="matrix(0.00198598 -0.999998 -0.999998 -0.00198598 143 272.031)" fill="#F4F4F4"/>
<circle cx="7" cy="7" r="7" transform="matrix(0.00198598 -0.999998 -0.999998 -0.00198598 100 272.031)" fill="#F4F4F4"/>
<circle opacity="0.4" cx="7" cy="7" r="7" transform="matrix(0.00198598 -0.999998 -0.999998 -0.00198598 186 272.031)" fill="#F4F4F4"/>
<circle opacity="0.4" cx="7" cy="7" r="7" transform="matrix(0.00198598 -0.999998 -0.999998 -0.00198598 229 272.031)" fill="#F4F4F4"/>
<circle opacity="0.4" cx="7" cy="7" r="7" transform="matrix(0.00198598 -0.999998 -0.999998 -0.00198598 272 272.031)" fill="#F4F4F4"/>
<circle opacity="0.4" cx="7" cy="7" r="7" transform="matrix(0.00198598 -0.999998 -0.999998 -0.00198598 315 272.031)" fill="#F4F4F4"/>
<circle opacity="0.4" cx="7" cy="7" r="7" transform="matrix(0.00198598 -0.999998 -0.999998 -0.00198598 358 272.031)" fill="#F4F4F4"/>
<circle cx="7" cy="7" r="7" transform="matrix(0.00198598 -0.999998 -0.999998 -0.00198598 401 272.031)" fill="#F4F4F4"/>
<circle cx="7" cy="7" r="7" transform="matrix(0.00198598 -0.999998 -0.999998 -0.00198598 444 272.031)" fill="#F4F4F4"/>
<circle cx="7" cy="7" r="7" transform="matrix(0.00198598 -0.999998 -0.999998 -0.00198598 487 272.031)" fill="#F4F4F4"/>
<circle cx="7" cy="7" r="7" transform="matrix(0.00198598 -0.999998 -0.999998 -0.00198598 530 272.031)" fill="#F4F4F4"/>
<circle cx="7" cy="7" r="7" transform="matrix(0.00198598 -0.999998 -0.999998 -0.00198598 573 272.031)" fill="#F4F4F4"/>
<circle cx="7" cy="7" r="7" transform="matrix(0.00198598 -0.999998 -0.999998 -0.00198598 616 272.031)" fill="#F4F4F4"/>
<circle cx="7" cy="7" r="7" transform="matrix(0.00198598 -0.999998 -0.999998 -0.00198598 702 272.031)" fill="#F4F4F4"/>
<circle cx="7" cy="7" r="7" transform="matrix(0.00198598 -0.999998 -0.999998 -0.00198598 659 272.031)" fill="#F4F4F4"/>
<circle cx="7" cy="7" r="7" transform="matrix(0.00198598 -0.999998 -0.999998 -0.00198598 745 272.031)" fill="#F4F4F4"/>
<circle cx="7" cy="7" r="7" transform="matrix(0.00198598 -0.999998 -0.999998 -0.00198598 788 272.031)" fill="#F4F4F4"/>
<circle cx="7" cy="7" r="7" transform="matrix(0.00198598 -0.999998 -0.999998 -0.00198598 831 272.031)" fill="#F4F4F4"/>
<circle cx="7" cy="7" r="7" transform="matrix(0.00198598 -0.999998 -0.999998 -0.00198598 874 272.031)" fill="#F4F4F4"/>
<circle cx="7" cy="7" r="7" transform="matrix(0.00198598 -0.999998 -0.999998 -0.00198598 917 272.031)" fill="#F4F4F4"/>
<circle cx="7" cy="7" r="7" transform="matrix(0.00198598 -0.999998 -0.999998 -0.00198598 960 272.031)" fill="#F4F4F4"/>
<circle cx="7" cy="7" r="7" transform="matrix(0.00198598 -0.999998 -0.999998 -0.00198598 1003 272.031)" fill="#F4F4F4"/>
<circle cx="7" cy="7" r="7" transform="matrix(0.00198598 -0.999998 -0.999998 -0.00198598 1046 272.031)" fill="#F4F4F4"/>
<circle cx="7" cy="7" r="7" transform="matrix(0.00198598 -0.999998 -0.999998 -0.00198598 1089 272.031)" fill="#F4F4F4"/>
<circle cx="7" cy="7" r="7" transform="matrix(0.00198598 -0.999998 -0.999998 -0.00198598 1132 272.031)" fill="#F4F4F4"/>
<circle cx="7" cy="7" r="7" transform="matrix(0.00198598 -0.999998 -0.999998 -0.00198598 1175 272.031)" fill="#F4F4F4"/>
<circle cx="7" cy="7" r="7" transform="matrix(0.00198598 -0.999998 -0.999998 -0.00198598 1218 272.031)" fill="#F4F4F4"/>
<circle cx="7" cy="7" r="7" transform="matrix(0.00198598 -0.999998 -0.999998 -0.00198598 1261 272.031)" fill="#F4F4F4"/>
<circle cx="7" cy="7" r="7" transform="matrix(0.00198598 -0.999998 -0.999998 -0.00198598 1304 272.031)" fill="#F4F4F4"/>
<circle cx="7" cy="7" r="7" transform="matrix(0.00198598 -0.999998 -0.999998 -0.00198598 1347 272.031)" fill="#F4F4F4"/>
<circle cx="7" cy="7" r="7" transform="matrix(0.00198598 -0.999998 -0.999998 -0.00198598 1390 272.031)" fill="#F4F4F4"/>
<circle cx="7" cy="7" r="7" transform="matrix(0.00198598 -0.999998 -0.999998 -0.00198598 1433 272.031)" fill="#F4F4F4"/>
<circle cx="7" cy="7" r="7" transform="matrix(0.00198598 -0.999998 -0.999998 -0.00198598 14 315.031)" fill="#F4F4F4"/>
<circle cx="7" cy="7" r="7" transform="matrix(0.00198598 -0.999998 -0.999998 -0.00198598 57 315.031)" fill="#F4F4F4"/>
<circle opacity="0.4" cx="7" cy="7" r="7" transform="matrix(0.00198598 -0.999998 -0.999998 -0.00198598 143 315.031)" fill="#F4F4F4"/>
<circle cx="7" cy="7" r="7" transform="matrix(0.00198598 -0.999998 -0.999998 -0.00198598 100 315.031)" fill="#F4F4F4"/>
<circle opacity="0.4" cx="7" cy="7" r="7" transform="matrix(0.00198598 -0.999998 -0.999998 -0.00198598 186 315.031)" fill="#F4F4F4"/>
<circle opacity="0.4" cx="7" cy="7" r="7" transform="matrix(0.00198598 -0.999998 -0.999998 -0.00198598 229 315.031)" fill="#F4F4F4"/>
<circle opacity="0.4" cx="7" cy="7" r="7" transform="matrix(0.00198598 -0.999998 -0.999998 -0.00198598 272 315.031)" fill="#F4F4F4"/>
<circle opacity="0.4" cx="7" cy="7" r="7" transform="matrix(0.00198598 -0.999998 -0.999998 -0.00198598 315 315.031)" fill="#F4F4F4"/>
<circle opacity="0.4" cx="7" cy="7" r="7" transform="matrix(0.00198598 -0.999998 -0.999998 -0.00198598 358 315.031)" fill="#F4F4F4"/>
<circle cx="7" cy="7" r="7" transform="matrix(0.00198598 -0.999998 -0.999998 -0.00198598 401 315.031)" fill="#F4F4F4"/>
<circle cx="7" cy="7" r="7" transform="matrix(0.00198598 -0.999998 -0.999998 -0.00198598 444 315.031)" fill="#F4F4F4"/>
<circle cx="7" cy="7" r="7" transform="matrix(0.00198598 -0.999998 -0.999998 -0.00198598 487 315.031)" fill="#F4F4F4"/>
<circle cx="7" cy="7" r="7" transform="matrix(0.00198598 -0.999998 -0.999998 -0.00198598 530 315.031)" fill="#F4F4F4"/>
<circle cx="7" cy="7" r="7" transform="matrix(0.00198598 -0.999998 -0.999998 -0.00198598 573 315.031)" fill="#F4F4F4"/>
<circle cx="7" cy="7" r="7" transform="matrix(0.00198598 -0.999998 -0.999998 -0.00198598 616 315.031)" fill="#F4F4F4"/>
<circle cx="7" cy="7" r="7" transform="matrix(0.00198598 -0.999998 -0.999998 -0.00198598 702 315.031)" fill="#F4F4F4"/>
<circle cx="7" cy="7" r="7" transform="matrix(0.00198598 -0.999998 -0.999998 -0.00198598 659 315.031)" fill="#F4F4F4"/>
<circle cx="7" cy="7" r="7" transform="matrix(0.00198598 -0.999998 -0.999998 -0.00198598 745 315.031)" fill="#F4F4F4"/>
<circle cx="7" cy="7" r="7" transform="matrix(0.00198598 -0.999998 -0.999998 -0.00198598 788 315.031)" fill="#F4F4F4"/>
<circle cx="7" cy="7" r="7" transform="matrix(0.00198598 -0.999998 -0.999998 -0.00198598 831 315.031)" fill="#F4F4F4"/>
<circle cx="7" cy="7" r="7" transform="matrix(0.00198598 -0.999998 -0.999998 -0.00198598 874 315.031)" fill="#F4F4F4"/>
<circle cx="7" cy="7" r="7" transform="matrix(0.00198598 -0.999998 -0.999998 -0.00198598 917 315.031)" fill="#F4F4F4"/>
<circle cx="7" cy="7" r="7" transform="matrix(0.00198598 -0.999998 -0.999998 -0.00198598 960 315.031)" fill="#F4F4F4"/>
<circle cx="7" cy="7" r="7" transform="matrix(0.00198598 -0.999998 -0.999998 -0.00198598 1003 315.031)" fill="#F4F4F4"/>
<circle cx="7" cy="7" r="7" transform="matrix(0.00198598 -0.999998 -0.999998 -0.00198598 1046 315.031)" fill="#F4F4F4"/>
<circle cx="7" cy="7" r="7" transform="matrix(0.00198598 -0.999998 -0.999998 -0.00198598 1089 315.031)" fill="#F4F4F4"/>
<circle cx="7" cy="7" r="7" transform="matrix(0.00198598 -0.999998 -0.999998 -0.00198598 1132 315.031)" fill="#F4F4F4"/>
<circle cx="7" cy="7" r="7" transform="matrix(0.00198598 -0.999998 -0.999998 -0.00198598 1175 315.031)" fill="#F4F4F4"/>
<circle cx="7" cy="7" r="7" transform="matrix(0.00198598 -0.999998 -0.999998 -0.00198598 1218 315.031)" fill="#F4F4F4"/>
<circle cx="7" cy="7" r="7" transform="matrix(0.00198598 -0.999998 -0.999998 -0.00198598 1261 315.031)" fill="#F4F4F4"/>
<circle cx="7" cy="7" r="7" transform="matrix(0.00198598 -0.999998 -0.999998 -0.00198598 1304 315.031)" fill="#F4F4F4"/>
<circle cx="7" cy="7" r="7" transform="matrix(0.00198598 -0.999998 -0.999998 -0.00198598 1347 315.031)" fill="#F4F4F4"/>
<circle cx="7" cy="7" r="7" transform="matrix(0.00198598 -0.999998 -0.999998 -0.00198598 1390 315.031)" fill="#F4F4F4"/>
<circle cx="7" cy="7" r="7" transform="matrix(0.00198598 -0.999998 -0.999998 -0.00198598 1433 315.031)" fill="#F4F4F4"/>
<circle cx="7" cy="7" r="7" transform="matrix(0.00198598 -0.999998 -0.999998 -0.00198598 14 358.031)" fill="#F4F4F4"/>
<circle cx="7" cy="7" r="7" transform="matrix(0.00198598 -0.999998 -0.999998 -0.00198598 57 358.031)" fill="#F4F4F4"/>
<circle opacity="0.4" cx="7" cy="7" r="7" transform="matrix(0.00198598 -0.999998 -0.999998 -0.00198598 143 358.031)" fill="#F4F4F4"/>
<circle cx="7" cy="7" r="7" transform="matrix(0.00198598 -0.999998 -0.999998 -0.00198598 100 358.031)" fill="#F4F4F4"/>
<circle opacity="0.4" cx="7" cy="7" r="7" transform="matrix(0.00198598 -0.999998 -0.999998 -0.00198598 186 358.031)" fill="#F4F4F4"/>
<circle opacity="0.4" cx="7" cy="7" r="7" transform="matrix(0.00198598 -0.999998 -0.999998 -0.00198598 229 358.031)" fill="#F4F4F4"/>
<circle opacity="0.4" cx="7" cy="7" r="7" transform="matrix(0.00198598 -0.999998 -0.999998 -0.00198598 272 358.031)" fill="#F4F4F4"/>
<circle opacity="0.4" cx="7" cy="7" r="7" transform="matrix(0.00198598 -0.999998 -0.999998 -0.00198598 315 358.031)" fill="#F4F4F4"/>
<circle opacity="0.4" cx="7" cy="7" r="7" transform="matrix(0.00198598 -0.999998 -0.999998 -0.00198598 358 358.031)" fill="#F4F4F4"/>
<circle cx="7" cy="7" r="7" transform="matrix(0.00198598 -0.999998 -0.999998 -0.00198598 401 358.031)" fill="#F4F4F4"/>
<circle cx="7" cy="7" r="7" transform="matrix(0.00198598 -0.999998 -0.999998 -0.00198598 444 358.031)" fill="#F4F4F4"/>
<circle cx="7" cy="7" r="7" transform="matrix(0.00198598 -0.999998 -0.999998 -0.00198598 487 358.031)" fill="#F4F4F4"/>
<circle cx="7" cy="7" r="7" transform="matrix(0.00198598 -0.999998 -0.999998 -0.00198598 530 358.031)" fill="#F4F4F4"/>
<circle cx="7" cy="7" r="7" transform="matrix(0.00198598 -0.999998 -0.999998 -0.00198598 573 358.031)" fill="#F4F4F4"/>
<circle cx="7" cy="7" r="7" transform="matrix(0.00198598 -0.999998 -0.999998 -0.00198598 616 358.031)" fill="#F4F4F4"/>
<circle cx="7" cy="7" r="7" transform="matrix(0.00198598 -0.999998 -0.999998 -0.00198598 702 358.031)" fill="#F4F4F4"/>
<circle cx="7" cy="7" r="7" transform="matrix(0.00198598 -0.999998 -0.999998 -0.00198598 659 358.031)" fill="#F4F4F4"/>
<circle cx="7" cy="7" r="7" transform="matrix(0.00198598 -0.999998 -0.999998 -0.00198598 745 358.031)" fill="#F4F4F4"/>
<circle cx="7" cy="7" r="7" transform="matrix(0.00198598 -0.999998 -0.999998 -0.00198598 788 358.031)" fill="#F4F4F4"/>
<circle cx="7" cy="7" r="7" transform="matrix(0.00198598 -0.999998 -0.999998 -0.00198598 831 358.031)" fill="#F4F4F4"/>
<circle cx="7" cy="7" r="7" transform="matrix(0.00198598 -0.999998 -0.999998 -0.00198598 874 358.031)" fill="#F4F4F4"/>
<circle cx="7" cy="7" r="7" transform="matrix(0.00198598 -0.999998 -0.999998 -0.00198598 917 358.031)" fill="#F4F4F4"/>
<circle cx="7" cy="7" r="7" transform="matrix(0.00198598 -0.999998 -0.999998 -0.00198598 960 358.031)" fill="#F4F4F4"/>
<circle cx="7" cy="7" r="7" transform="matrix(0.00198598 -0.999998 -0.999998 -0.00198598 1003 358.031)" fill="#F4F4F4"/>
<circle cx="7" cy="7" r="7" transform="matrix(0.00198598 -0.999998 -0.999998 -0.00198598 1046 358.031)" fill="#F4F4F4"/>
<circle cx="7" cy="7" r="7" transform="matrix(0.00198598 -0.999998 -0.999998 -0.00198598 1089 358.031)" fill="#F4F4F4"/>
<circle cx="7" cy="7" r="7" transform="matrix(0.00198598 -0.999998 -0.999998 -0.00198598 1132 358.031)" fill="#F4F4F4"/>
<circle cx="7" cy="7" r="7" transform="matrix(0.00198598 -0.999998 -0.999998 -0.00198598 1175 358.031)" fill="#F4F4F4"/>
<circle cx="7" cy="7" r="7" transform="matrix(0.00198598 -0.999998 -0.999998 -0.00198598 1218 358.031)" fill="#F4F4F4"/>
<circle cx="7" cy="7" r="7" transform="matrix(0.00198598 -0.999998 -0.999998 -0.00198598 1261 358.031)" fill="#F4F4F4"/>
<circle cx="7" cy="7" r="7" transform="matrix(0.00198598 -0.999998 -0.999998 -0.00198598 1304 358.031)" fill="#F4F4F4"/>
<circle cx="7" cy="7" r="7" transform="matrix(0.00198598 -0.999998 -0.999998 -0.00198598 1347 358.031)" fill="#F4F4F4"/>
<circle cx="7" cy="7" r="7" transform="matrix(0.00198598 -0.999998 -0.999998 -0.00198598 1390 358.031)" fill="#F4F4F4"/>
<circle cx="7" cy="7" r="7" transform="matrix(0.00198598 -0.999998 -0.999998 -0.00198598 1433 358.031)" fill="#F4F4F4"/>
<circle cx="7" cy="7" r="7" transform="matrix(0.00198598 -0.999998 -0.999998 -0.00198598 14 401.031)" fill="#F4F4F4"/>
<circle cx="7" cy="7" r="7" transform="matrix(0.00198598 -0.999998 -0.999998 -0.00198598 57 401.031)" fill="#F4F4F4"/>
<circle opacity="0.4" cx="7" cy="7" r="7" transform="matrix(0.00198598 -0.999998 -0.999998 -0.00198598 143 401.031)" fill="#F4F4F4"/>
<circle cx="7" cy="7" r="7" transform="matrix(0.00198598 -0.999998 -0.999998 -0.00198598 100 401.031)" fill="#F4F4F4"/>
<circle opacity="0.4" cx="7" cy="7" r="7" transform="matrix(0.00198598 -0.999998 -0.999998 -0.00198598 186 401.031)" fill="#F4F4F4"/>
<circle opacity="0.4" cx="7" cy="7" r="7" transform="matrix(0.00198598 -0.999998 -0.999998 -0.00198598 229 401.031)" fill="#F4F4F4"/>
<circle opacity="0.4" cx="7" cy="7" r="7" transform="matrix(0.00198598 -0.999998 -0.999998 -0.00198598 272 401.031)" fill="#F4F4F4"/>
<circle opacity="0.4" cx="7" cy="7" r="7" transform="matrix(0.00198598 -0.999998 -0.999998 -0.00198598 315 401.031)" fill="#F4F4F4"/>
<circle opacity="0.4" cx="7" cy="7" r="7" transform="matrix(0.00198598 -0.999998 -0.999998 -0.00198598 358 401.031)" fill="#F4F4F4"/>
<circle cx="7" cy="7" r="7" transform="matrix(0.00198598 -0.999998 -0.999998 -0.00198598 401 401.031)" fill="#F4F4F4"/>
<circle cx="7" cy="7" r="7" transform="matrix(0.00198598 -0.999998 -0.999998 -0.00198598 444 401.031)" fill="#F4F4F4"/>
<circle cx="7" cy="7" r="7" transform="matrix(0.00198598 -0.999998 -0.999998 -0.00198598 487 401.031)" fill="#F4F4F4"/>
<circle cx="7" cy="7" r="7" transform="matrix(0.00198598 -0.999998 -0.999998 -0.00198598 530 401.031)" fill="#F4F4F4"/>
<circle cx="7" cy="7" r="7" transform="matrix(0.00198598 -0.999998 -0.999998 -0.00198598 573 401.031)" fill="#F4F4F4"/>
<circle cx="7" cy="7" r="7" transform="matrix(0.00198598 -0.999998 -0.999998 -0.00198598 616 401.031)" fill="#F4F4F4"/>
<circle cx="7" cy="7" r="7" transform="matrix(0.00198598 -0.999998 -0.999998 -0.00198598 702 401.031)" fill="#F4F4F4"/>
<circle cx="7" cy="7" r="7" transform="matrix(0.00198598 -0.999998 -0.999998 -0.00198598 659 401.031)" fill="#F4F4F4"/>
<circle cx="7" cy="7" r="7" transform="matrix(0.00198598 -0.999998 -0.999998 -0.00198598 745 401.031)" fill="#F4F4F4"/>
<circle cx="7" cy="7" r="7" transform="matrix(0.00198598 -0.999998 -0.999998 -0.00198598 788 401.031)" fill="#F4F4F4"/>
<circle cx="7" cy="7" r="7" transform="matrix(0.00198598 -0.999998 -0.999998 -0.00198598 831 401.031)" fill="#F4F4F4"/>
<circle cx="7" cy="7" r="7" transform="matrix(0.00198598 -0.999998 -0.999998 -0.00198598 874 401.031)" fill="#F4F4F4"/>
<circle cx="7" cy="7" r="7" transform="matrix(0.00198598 -0.999998 -0.999998 -0.00198598 917 401.031)" fill="#F4F4F4"/>
<circle cx="7" cy="7" r="7" transform="matrix(0.00198598 -0.999998 -0.999998 -0.00198598 960 401.031)" fill="#F4F4F4"/>
<circle cx="7" cy="7" r="7" transform="matrix(0.00198598 -0.999998 -0.999998 -0.00198598 1003 401.031)" fill="#F4F4F4"/>
<circle cx="7" cy="7" r="7" transform="matrix(0.00198598 -0.999998 -0.999998 -0.00198598 1046 401.031)" fill="#F4F4F4"/>
<circle cx="7" cy="7" r="7" transform="matrix(0.00198598 -0.999998 -0.999998 -0.00198598 1089 401.031)" fill="#F4F4F4"/>
<circle cx="7" cy="7" r="7" transform="matrix(0.00198598 -0.999998 -0.999998 -0.00198598 1132 401.031)" fill="#F4F4F4"/>
<circle cx="7" cy="7" r="7" transform="matrix(0.00198598 -0.999998 -0.999998 -0.00198598 1175 401.031)" fill="#F4F4F4"/>
<circle cx="7" cy="7" r="7" transform="matrix(0.00198598 -0.999998 -0.999998 -0.00198598 1218 401.031)" fill="#F4F4F4"/>
<circle cx="7" cy="7" r="7" transform="matrix(0.00198598 -0.999998 -0.999998 -0.00198598 1261 401.031)" fill="#F4F4F4"/>
<circle cx="7" cy="7" r="7" transform="matrix(0.00198598 -0.999998 -0.999998 -0.00198598 1304 401.031)" fill="#F4F4F4"/>
<circle cx="7" cy="7" r="7" transform="matrix(0.00198598 -0.999998 -0.999998 -0.00198598 1347 401.031)" fill="#F4F4F4"/>
<circle cx="7" cy="7" r="7" transform="matrix(0.00198598 -0.999998 -0.999998 -0.00198598 1390 401.031)" fill="#F4F4F4"/>
<circle cx="7" cy="7" r="7" transform="matrix(0.00198598 -0.999998 -0.999998 -0.00198598 1433 401.031)" fill="#F4F4F4"/>
<circle cx="7" cy="7" r="7" transform="matrix(0.00198598 -0.999998 -0.999998 -0.00198598 14 444.062)" fill="#F4F4F4"/>
<circle cx="7" cy="7" r="7" transform="matrix(0.00198598 -0.999998 -0.999998 -0.00198598 57 444.062)" fill="#F4F4F4"/>
<circle opacity="0.4" cx="7" cy="7" r="7" transform="matrix(0.00198598 -0.999998 -0.999998 -0.00198598 143 444.062)" fill="#F4F4F4"/>
<circle cx="7" cy="7" r="7" transform="matrix(0.00198598 -0.999998 -0.999998 -0.00198598 100 444.062)" fill="#F4F4F4"/>
<circle opacity="0.4" cx="7" cy="7" r="7" transform="matrix(0.00198598 -0.999998 -0.999998 -0.00198598 186 444.062)" fill="#F4F4F4"/>
<circle opacity="0.4" cx="7" cy="7" r="7" transform="matrix(0.00198598 -0.999998 -0.999998 -0.00198598 229 444.062)" fill="#F4F4F4"/>
<circle opacity="0.4" cx="7" cy="7" r="7" transform="matrix(0.00198598 -0.999998 -0.999998 -0.00198598 272 444.062)" fill="#F4F4F4"/>
<circle opacity="0.4" cx="7" cy="7" r="7" transform="matrix(0.00198598 -0.999998 -0.999998 -0.00198598 315 444.062)" fill="#F4F4F4"/>
<circle opacity="0.4" cx="7" cy="7" r="7" transform="matrix(0.00198598 -0.999998 -0.999998 -0.00198598 358 444.062)" fill="#F4F4F4"/>
<circle cx="7" cy="7" r="7" transform="matrix(0.00198598 -0.999998 -0.999998 -0.00198598 401 444.062)" fill="#F4F4F4"/>
<circle cx="7" cy="7" r="7" transform="matrix(0.00198598 -0.999998 -0.999998 -0.00198598 444 444.062)" fill="#F4F4F4"/>
<circle cx="7" cy="7" r="7" transform="matrix(0.00198598 -0.999998 -0.999998 -0.00198598 487 444.062)" fill="#F4F4F4"/>
<circle cx="7" cy="7" r="7" transform="matrix(0.00198598 -0.999998 -0.999998 -0.00198598 530 444.062)" fill="#F4F4F4"/>
<circle cx="7" cy="7" r="7" transform="matrix(0.00198598 -0.999998 -0.999998 -0.00198598 573 444.062)" fill="#F4F4F4"/>
<circle cx="7" cy="7" r="7" transform="matrix(0.00198598 -0.999998 -0.999998 -0.00198598 616 444.062)" fill="#F4F4F4"/>
<circle cx="7" cy="7" r="7" transform="matrix(0.00198598 -0.999998 -0.999998 -0.00198598 702 444.062)" fill="#F4F4F4"/>
<circle cx="7" cy="7" r="7" transform="matrix(0.00198598 -0.999998 -0.999998 -0.00198598 659 444.062)" fill="#F4F4F4"/>
<circle cx="7" cy="7" r="7" transform="matrix(0.00198598 -0.999998 -0.999998 -0.00198598 745 444.062)" fill="#F4F4F4"/>
<circle cx="7" cy="7" r="7" transform="matrix(0.00198598 -0.999998 -0.999998 -0.00198598 788 444.062)" fill="#F4F4F4"/>
<circle cx="7" cy="7" r="7" transform="matrix(0.00198598 -0.999998 -0.999998 -0.00198598 831 444.062)" fill="#F4F4F4"/>
<circle cx="7" cy="7" r="7" transform="matrix(0.00198598 -0.999998 -0.999998 -0.00198598 874 444.062)" fill="#F4F4F4"/>
<circle cx="7" cy="7" r="7" transform="matrix(0.00198598 -0.999998 -0.999998 -0.00198598 917 444.062)" fill="#F4F4F4"/>
<circle cx="7" cy="7" r="7" transform="matrix(0.00198598 -0.999998 -0.999998 -0.00198598 960 444.062)" fill="#F4F4F4"/>
<circle cx="7" cy="7" r="7" transform="matrix(0.00198598 -0.999998 -0.999998 -0.00198598 1003 444.062)" fill="#F4F4F4"/>
<circle cx="7" cy="7" r="7" transform="matrix(0.00198598 -0.999998 -0.999998 -0.00198598 1046 444.062)" fill="#F4F4F4"/>
<circle cx="7" cy="7" r="7" transform="matrix(0.00198598 -0.999998 -0.999998 -0.00198598 1089 444.062)" fill="#F4F4F4"/>
<circle cx="7" cy="7" r="7" transform="matrix(0.00198598 -0.999998 -0.999998 -0.00198598 1132 444.062)" fill="#F4F4F4"/>
<circle cx="7" cy="7" r="7" transform="matrix(0.00198598 -0.999998 -0.999998 -0.00198598 1175 444.062)" fill="#F4F4F4"/>
<circle cx="7" cy="7" r="7" transform="matrix(0.00198598 -0.999998 -0.999998 -0.00198598 1218 444.062)" fill="#F4F4F4"/>
<circle cx="7" cy="7" r="7" transform="matrix(0.00198598 -0.999998 -0.999998 -0.00198598 1261 444.062)" fill="#F4F4F4"/>
<circle cx="7" cy="7" r="7" transform="matrix(0.00198598 -0.999998 -0.999998 -0.00198598 1304 444.062)" fill="#F4F4F4"/>
<circle cx="7" cy="7" r="7" transform="matrix(0.00198598 -0.999998 -0.999998 -0.00198598 1347 444.062)" fill="#F4F4F4"/>
<circle cx="7" cy="7" r="7" transform="matrix(0.00198598 -0.999998 -0.999998 -0.00198598 1390 444.062)" fill="#F4F4F4"/>
<circle cx="7" cy="7" r="7" transform="matrix(0.00198598 -0.999998 -0.999998 -0.00198598 1433 444.062)" fill="#F4F4F4"/>
</g>
</svg>
