<svg width="385" height="402" viewBox="0 0 385 402" fill="none" xmlns="http://www.w3.org/2000/svg">
<circle cx="7" cy="7" r="7" transform="matrix(0.00198598 -0.999998 -0.999998 -0.00198598 14 14.0312)" fill="#F4F4F4"/>
<circle cx="7" cy="7" r="7" transform="matrix(0.00198598 -0.999998 -0.999998 -0.00198598 57 14.0312)" fill="#F4F4F4"/>
<circle cx="7" cy="7" r="7" transform="matrix(0.00198598 -0.999998 -0.999998 -0.00198598 143 14.0312)" fill="#F4F4F4"/>
<circle cx="7" cy="7" r="7" transform="matrix(0.00198598 -0.999998 -0.999998 -0.00198598 100 14.0312)" fill="#F4F4F4"/>
<circle cx="7" cy="7" r="7" transform="matrix(0.00198598 -0.999998 -0.999998 -0.00198598 186 14.0312)" fill="#F4F4F4"/>
<circle cx="7" cy="7" r="7" transform="matrix(0.00198598 -0.999998 -0.999998 -0.00198598 229 14.0312)" fill="#F4F4F4"/>
<circle cx="7" cy="7" r="7" transform="matrix(0.00198598 -0.999998 -0.999998 -0.00198598 272 14.0312)" fill="#F4F4F4"/>
<circle cx="7" cy="7" r="7" transform="matrix(0.00198598 -0.999998 -0.999998 -0.00198598 315 14.0312)" fill="#F4F4F4"/>
<circle cx="7" cy="7" r="7" transform="matrix(0.00198598 -0.999998 -0.999998 -0.00198598 358 14.0312)" fill="#F4F4F4"/>
<circle cx="7" cy="7" r="7" transform="matrix(0.00198598 -0.999998 -0.999998 -0.00198598 14 57.0312)" fill="#F4F4F4"/>
<circle cx="7" cy="7" r="7" transform="matrix(0.00198598 -0.999998 -0.999998 -0.00198598 57 57.0312)" fill="#F4F4F4"/>
<circle cx="7" cy="7" r="7" transform="matrix(0.00198598 -0.999998 -0.999998 -0.00198598 143 57.0312)" fill="#F4F4F4"/>
<circle cx="7" cy="7" r="7" transform="matrix(0.00198598 -0.999998 -0.999998 -0.00198598 100 57.0312)" fill="#F4F4F4"/>
<circle cx="7" cy="7" r="7" transform="matrix(0.00198598 -0.999998 -0.999998 -0.00198598 186 57.0312)" fill="#F4F4F4"/>
<circle cx="7" cy="7" r="7" transform="matrix(0.00198598 -0.999998 -0.999998 -0.00198598 229 57.0312)" fill="#F4F4F4"/>
<circle cx="7" cy="7" r="7" transform="matrix(0.00198598 -0.999998 -0.999998 -0.00198598 272 57.0312)" fill="#F4F4F4"/>
<circle cx="7" cy="7" r="7" transform="matrix(0.00198598 -0.999998 -0.999998 -0.00198598 315 57.0312)" fill="#F4F4F4"/>
<circle cx="7" cy="7" r="7" transform="matrix(0.00198598 -0.999998 -0.999998 -0.00198598 358 57.0312)" fill="#F4F4F4"/>
<circle cx="7" cy="7" r="7" transform="matrix(0.00198598 -0.999998 -0.999998 -0.00198598 14 100.031)" fill="#F4F4F4"/>
<circle cx="7" cy="7" r="7" transform="matrix(0.00198598 -0.999998 -0.999998 -0.00198598 57 100.031)" fill="#F4F4F4"/>
<circle cx="7" cy="7" r="7" transform="matrix(0.00198598 -0.999998 -0.999998 -0.00198598 143 100.031)" fill="#F4F4F4"/>
<circle cx="7" cy="7" r="7" transform="matrix(0.00198598 -0.999998 -0.999998 -0.00198598 100 100.031)" fill="#F4F4F4"/>
<circle cx="7" cy="7" r="7" transform="matrix(0.00198598 -0.999998 -0.999998 -0.00198598 186 100.031)" fill="#F4F4F4"/>
<circle cx="7" cy="7" r="7" transform="matrix(0.00198598 -0.999998 -0.999998 -0.00198598 229 100.031)" fill="#F4F4F4"/>
<circle cx="7" cy="7" r="7" transform="matrix(0.00198598 -0.999998 -0.999998 -0.00198598 272 100.031)" fill="#F4F4F4"/>
<circle cx="7" cy="7" r="7" transform="matrix(0.00198598 -0.999998 -0.999998 -0.00198598 315 100.031)" fill="#F4F4F4"/>
<circle cx="7" cy="7" r="7" transform="matrix(0.00198598 -0.999998 -0.999998 -0.00198598 358 100.031)" fill="#F4F4F4"/>
<circle cx="7" cy="7" r="7" transform="matrix(0.00198598 -0.999998 -0.999998 -0.00198598 14 143.031)" fill="#F4F4F4"/>
<circle cx="7" cy="7" r="7" transform="matrix(0.00198598 -0.999998 -0.999998 -0.00198598 57 143.031)" fill="#F4F4F4"/>
<circle cx="7" cy="7" r="7" transform="matrix(0.00198598 -0.999998 -0.999998 -0.00198598 143 143.031)" fill="#F4F4F4"/>
<circle cx="7" cy="7" r="7" transform="matrix(0.00198598 -0.999998 -0.999998 -0.00198598 100 143.031)" fill="#F4F4F4"/>
<circle cx="7" cy="7" r="7" transform="matrix(0.00198598 -0.999998 -0.999998 -0.00198598 186 143.031)" fill="#F4F4F4"/>
<circle cx="7" cy="7" r="7" transform="matrix(0.00198598 -0.999998 -0.999998 -0.00198598 229 143.031)" fill="#F4F4F4"/>
<circle cx="7" cy="7" r="7" transform="matrix(0.00198598 -0.999998 -0.999998 -0.00198598 272 143.031)" fill="#F4F4F4"/>
<circle cx="7" cy="7" r="7" transform="matrix(0.00198598 -0.999998 -0.999998 -0.00198598 315 143.031)" fill="#F4F4F4"/>
<circle cx="7" cy="7" r="7" transform="matrix(0.00198598 -0.999998 -0.999998 -0.00198598 358 143.031)" fill="#F4F4F4"/>
<circle cx="7" cy="7" r="7" transform="matrix(0.00198598 -0.999998 -0.999998 -0.00198598 14 186.062)" fill="#F4F4F4"/>
<circle cx="7" cy="7" r="7" transform="matrix(0.00198598 -0.999998 -0.999998 -0.00198598 57 186.062)" fill="#F4F4F4"/>
<circle cx="7" cy="7" r="7" transform="matrix(0.00198598 -0.999998 -0.999998 -0.00198598 143 186.062)" fill="#F4F4F4"/>
<circle cx="7" cy="7" r="7" transform="matrix(0.00198598 -0.999998 -0.999998 -0.00198598 100 186.062)" fill="#F4F4F4"/>
<circle cx="7" cy="7" r="7" transform="matrix(0.00198598 -0.999998 -0.999998 -0.00198598 186 186.062)" fill="#F4F4F4"/>
<circle cx="7" cy="7" r="7" transform="matrix(0.00198598 -0.999998 -0.999998 -0.00198598 229 186.062)" fill="#F4F4F4"/>
<circle cx="7" cy="7" r="7" transform="matrix(0.00198598 -0.999998 -0.999998 -0.00198598 272 186.062)" fill="#F4F4F4"/>
<circle cx="7" cy="7" r="7" transform="matrix(0.00198598 -0.999998 -0.999998 -0.00198598 315 186.062)" fill="#F4F4F4"/>
<circle cx="7" cy="7" r="7" transform="matrix(0.00198598 -0.999998 -0.999998 -0.00198598 358 186.062)" fill="#F4F4F4"/>
<circle cx="7" cy="7" r="7" transform="matrix(0.00198598 -0.999998 -0.999998 -0.00198598 14 229.031)" fill="#F4F4F4"/>
<circle cx="7" cy="7" r="7" transform="matrix(0.00198598 -0.999998 -0.999998 -0.00198598 57 229.031)" fill="#F4F4F4"/>
<circle cx="7" cy="7" r="7" transform="matrix(0.00198598 -0.999998 -0.999998 -0.00198598 143 229.031)" fill="#F4F4F4"/>
<circle cx="7" cy="7" r="7" transform="matrix(0.00198598 -0.999998 -0.999998 -0.00198598 100 229.031)" fill="#F4F4F4"/>
<circle cx="7" cy="7" r="7" transform="matrix(0.00198598 -0.999998 -0.999998 -0.00198598 186 229.031)" fill="#F4F4F4"/>
<circle cx="7" cy="7" r="7" transform="matrix(0.00198598 -0.999998 -0.999998 -0.00198598 229 229.031)" fill="#F4F4F4"/>
<circle cx="7" cy="7" r="7" transform="matrix(0.00198598 -0.999998 -0.999998 -0.00198598 272 229.031)" fill="#F4F4F4"/>
<circle cx="7" cy="7" r="7" transform="matrix(0.00198598 -0.999998 -0.999998 -0.00198598 315 229.031)" fill="#F4F4F4"/>
<circle cx="7" cy="7" r="7" transform="matrix(0.00198598 -0.999998 -0.999998 -0.00198598 358 229.031)" fill="#F4F4F4"/>
<circle cx="7" cy="7" r="7" transform="matrix(0.00198598 -0.999998 -0.999998 -0.00198598 14 272.031)" fill="#F4F4F4"/>
<circle cx="7" cy="7" r="7" transform="matrix(0.00198598 -0.999998 -0.999998 -0.00198598 57 272.031)" fill="#F4F4F4"/>
<circle cx="7" cy="7" r="7" transform="matrix(0.00198598 -0.999998 -0.999998 -0.00198598 143 272.031)" fill="#F4F4F4"/>
<circle cx="7" cy="7" r="7" transform="matrix(0.00198598 -0.999998 -0.999998 -0.00198598 100 272.031)" fill="#F4F4F4"/>
<circle cx="7" cy="7" r="7" transform="matrix(0.00198598 -0.999998 -0.999998 -0.00198598 186 272.031)" fill="#F4F4F4"/>
<circle cx="7" cy="7" r="7" transform="matrix(0.00198598 -0.999998 -0.999998 -0.00198598 229 272.031)" fill="#F4F4F4"/>
<circle cx="7" cy="7" r="7" transform="matrix(0.00198598 -0.999998 -0.999998 -0.00198598 272 272.031)" fill="#F4F4F4"/>
<circle cx="7" cy="7" r="7" transform="matrix(0.00198598 -0.999998 -0.999998 -0.00198598 315 272.031)" fill="#F4F4F4"/>
<circle cx="7" cy="7" r="7" transform="matrix(0.00198598 -0.999998 -0.999998 -0.00198598 358 272.031)" fill="#F4F4F4"/>
<circle cx="7" cy="7" r="7" transform="matrix(0.00198598 -0.999998 -0.999998 -0.00198598 14 315.031)" fill="#F4F4F4"/>
<circle cx="7" cy="7" r="7" transform="matrix(0.00198598 -0.999998 -0.999998 -0.00198598 57 315.031)" fill="#F4F4F4"/>
<circle cx="7" cy="7" r="7" transform="matrix(0.00198598 -0.999998 -0.999998 -0.00198598 143 315.031)" fill="#F4F4F4"/>
<circle cx="7" cy="7" r="7" transform="matrix(0.00198598 -0.999998 -0.999998 -0.00198598 100 315.031)" fill="#F4F4F4"/>
<circle cx="7" cy="7" r="7" transform="matrix(0.00198598 -0.999998 -0.999998 -0.00198598 186 315.031)" fill="#F4F4F4"/>
<circle cx="7" cy="7" r="7" transform="matrix(0.00198598 -0.999998 -0.999998 -0.00198598 229 315.031)" fill="#F4F4F4"/>
<circle cx="7" cy="7" r="7" transform="matrix(0.00198598 -0.999998 -0.999998 -0.00198598 272 315.031)" fill="#F4F4F4"/>
<circle cx="7" cy="7" r="7" transform="matrix(0.00198598 -0.999998 -0.999998 -0.00198598 315 315.031)" fill="#F4F4F4"/>
<circle cx="7" cy="7" r="7" transform="matrix(0.00198598 -0.999998 -0.999998 -0.00198598 358 315.031)" fill="#F4F4F4"/>
<circle cx="7" cy="7" r="7" transform="matrix(0.00198598 -0.999998 -0.999998 -0.00198598 14 358.031)" fill="#F4F4F4"/>
<circle cx="7" cy="7" r="7" transform="matrix(0.00198598 -0.999998 -0.999998 -0.00198598 57 358.031)" fill="#F4F4F4"/>
<circle cx="7" cy="7" r="7" transform="matrix(0.00198598 -0.999998 -0.999998 -0.00198598 143 358.031)" fill="#F4F4F4"/>
<circle cx="7" cy="7" r="7" transform="matrix(0.00198598 -0.999998 -0.999998 -0.00198598 100 358.031)" fill="#F4F4F4"/>
<circle cx="7" cy="7" r="7" transform="matrix(0.00198598 -0.999998 -0.999998 -0.00198598 186 358.031)" fill="#F4F4F4"/>
<circle cx="7" cy="7" r="7" transform="matrix(0.00198598 -0.999998 -0.999998 -0.00198598 229 358.031)" fill="#F4F4F4"/>
<circle cx="7" cy="7" r="7" transform="matrix(0.00198598 -0.999998 -0.999998 -0.00198598 272 358.031)" fill="#F4F4F4"/>
<circle cx="7" cy="7" r="7" transform="matrix(0.00198598 -0.999998 -0.999998 -0.00198598 315 358.031)" fill="#F4F4F4"/>
<circle cx="7" cy="7" r="7" transform="matrix(0.00198598 -0.999998 -0.999998 -0.00198598 358 358.031)" fill="#F4F4F4"/>
<circle cx="7" cy="7" r="7" transform="matrix(0.00198598 -0.999998 -0.999998 -0.00198598 14 401.062)" fill="#F4F4F4"/>
<circle cx="7" cy="7" r="7" transform="matrix(0.00198598 -0.999998 -0.999998 -0.00198598 57 401.062)" fill="#F4F4F4"/>
<circle cx="7" cy="7" r="7" transform="matrix(0.00198598 -0.999998 -0.999998 -0.00198598 143 401.062)" fill="#F4F4F4"/>
<circle cx="7" cy="7" r="7" transform="matrix(0.00198598 -0.999998 -0.999998 -0.00198598 100 401.062)" fill="#F4F4F4"/>
<circle cx="7" cy="7" r="7" transform="matrix(0.00198598 -0.999998 -0.999998 -0.00198598 186 401.062)" fill="#F4F4F4"/>
<circle cx="7" cy="7" r="7" transform="matrix(0.00198598 -0.999998 -0.999998 -0.00198598 229 401.062)" fill="#F4F4F4"/>
<circle cx="7" cy="7" r="7" transform="matrix(0.00198598 -0.999998 -0.999998 -0.00198598 272 401.062)" fill="#F4F4F4"/>
<circle cx="7" cy="7" r="7" transform="matrix(0.00198598 -0.999998 -0.999998 -0.00198598 315 401.062)" fill="#F4F4F4"/>
<circle cx="7" cy="7" r="7" transform="matrix(0.00198598 -0.999998 -0.999998 -0.00198598 358 401.062)" fill="#F4F4F4"/>
</svg>
