<svg width="73" height="73" viewBox="0 0 73 73" fill="none" xmlns="http://www.w3.org/2000/svg">
<g clip-path="url(#clip0_121_5302)">
<path d="M22.4919 7.39062C20.5836 7.39063 18.7536 8.14949 17.4042 9.50027C16.0549 10.8511 15.2969 12.6831 15.2969 14.5934V57.8101C15.2969 59.7204 16.0549 61.5524 17.4042 62.9032C18.7536 64.254 20.5836 65.0129 22.4919 65.0129H51.2719C53.1801 65.0129 55.0102 64.254 56.3595 62.9032C57.7089 61.5524 58.4669 59.7204 58.4669 57.8101V26.8885C58.4656 25.4563 57.8963 24.0832 56.884 23.0711L42.8034 8.97163C41.7918 7.95958 40.4202 7.39093 38.99 7.39062H22.4919ZM18.8944 14.5934C18.8944 13.6383 19.2734 12.7222 19.9481 12.0468C20.6227 11.3714 21.5378 10.992 22.4919 10.992H36.8819V23.5969C36.8819 25.0296 37.4504 26.4036 38.4624 27.4167C39.4744 28.4298 40.847 28.999 42.2781 28.999H54.8694V57.8101C54.8694 58.7652 54.4904 59.6813 53.8157 60.3566C53.141 61.032 52.226 61.4115 51.2719 61.4115H22.4919C21.5378 61.4115 20.6227 61.032 19.9481 60.3566C19.2734 59.6813 18.8944 58.7652 18.8944 57.8101V14.5934ZM54.1247 25.3976H42.2781C41.8011 25.3976 41.3436 25.2079 41.0062 24.8702C40.6689 24.5325 40.4794 24.0744 40.4794 23.5969V11.7375L54.1247 25.3976Z" fill="black"/>
</g>
<rect x="11.8984" y="36.2031" width="40.2301" height="17.8133" fill="#F82828"/>
<path d="M23.5018 50.2031H22.3594V39.5951H24.8237C25.6724 39.5951 26.3143 39.7964 26.7495 40.199C27.1956 40.6015 27.4186 41.1618 27.4186 41.8799V44.6543C27.4186 45.3833 27.201 45.949 26.7658 46.3516C26.3306 46.7433 25.6833 46.9391 24.8237 46.9391H23.5018V50.2031ZM26.2762 44.6543V41.8799C26.2762 41.4665 26.1511 41.1455 25.9009 40.917C25.6506 40.6886 25.2916 40.5743 24.8237 40.5743H23.5018V45.9599H24.8237C25.7921 45.9599 26.2762 45.5247 26.2762 44.6543ZM32.6567 50.2031H30.0292V39.5951H32.6567C33.5053 39.5951 34.1473 39.7964 34.5825 40.199C35.0285 40.6015 35.2516 41.1618 35.2516 41.8799V47.9183C35.2516 48.6473 35.034 49.213 34.5988 49.6156C34.1636 50.0073 33.5162 50.2031 32.6567 50.2031ZM34.1092 47.9183V41.8799C34.1092 41.5318 33.9786 41.2271 33.7175 40.966C33.4673 40.7049 33.1137 40.5743 32.6567 40.5743H31.1716V49.2239H32.6567C33.1137 49.2239 33.4673 49.0988 33.7175 48.8486C33.9786 48.5874 34.1092 48.2774 34.1092 47.9183ZM39.4113 50.2031H38.2689V39.5951H42.7569V40.5743H39.4113V44.3279H42.1041V45.3071H39.4113V50.2031Z" fill="white"/>
<defs>
<clipPath id="clip0_121_5302">
<rect width="71.95" height="72.0278" fill="white" transform="translate(0.90625 0.1875)"/>
</clipPath>
</defs>
</svg>
