<svg width="73" height="72" viewBox="0 0 73 72" fill="none" xmlns="http://www.w3.org/2000/svg">
<path d="M21.6922 7.19531C19.7826 7.19531 17.9513 7.95388 16.601 9.30414C15.2508 10.6544 14.4922 12.4858 14.4922 14.3953V57.5953C14.4922 59.5049 15.2508 61.3362 16.601 62.6865C17.9513 64.0367 19.7826 64.7953 21.6922 64.7953H50.4922C52.4017 64.7953 54.2331 64.0367 55.5834 62.6865C56.9336 61.3362 57.6922 59.5049 57.6922 57.5953V26.6857C57.6909 25.254 57.1212 23.8814 56.1082 22.8697L42.0178 8.77571C41.0055 7.76405 39.633 7.19562 38.2018 7.19531H21.6922ZM18.0922 14.3953C18.0922 13.4405 18.4715 12.5249 19.1466 11.8497C19.8217 11.1746 20.7374 10.7953 21.6922 10.7953H36.0922V23.3953C36.0922 24.8275 36.6611 26.201 37.6738 27.2137C38.6865 28.2264 40.06 28.7953 41.4922 28.7953H54.0922V57.5953C54.0922 58.5501 53.7129 59.4658 53.0378 60.1409C52.3626 60.816 51.447 61.1953 50.4922 61.1953H21.6922C20.7374 61.1953 19.8217 60.816 19.1466 60.1409C18.4715 59.4658 18.0922 58.5501 18.0922 57.5953V14.3953ZM53.347 25.1953H41.4922C41.0148 25.1953 40.557 25.0057 40.2194 24.6681C39.8818 24.3305 39.6922 23.8727 39.6922 23.3953V11.5405L53.347 25.1953Z" fill="black"/>
<rect x="10.9297" y="35.6094" width="40.2581" height="17.8065" fill="#9ED3FA"/>
<path d="M22.8301 50.6094H20.2024V40.0008H22.8301C23.6787 40.0008 24.3207 40.2021 24.7559 40.6047C25.202 41.0073 25.4251 41.5676 25.4251 42.2857V48.3245C25.4251 49.0535 25.2075 49.6192 24.7722 50.0218C24.337 50.4135 23.6896 50.6094 22.8301 50.6094ZM24.2826 48.3245V42.2857C24.2826 41.9376 24.152 41.6329 23.8909 41.3718C23.6407 41.1106 23.287 40.9801 22.8301 40.9801H21.3449V49.6301H22.8301C23.287 49.6301 23.6407 49.505 23.8909 49.2547C24.152 48.9936 24.2826 48.6835 24.2826 48.3245ZM33.7468 42.0409V48.5693C33.7468 49.2983 33.5128 49.8641 33.045 50.2666C32.588 50.6583 31.8971 50.8542 30.9722 50.8542C30.0583 50.8542 29.3674 50.6583 28.8995 50.2666C28.4316 49.8641 28.1977 49.2983 28.1977 48.5693V42.0409C28.1977 41.3119 28.4262 40.7516 28.8832 40.3599C29.351 39.9573 30.042 39.756 30.9559 39.756C31.8808 39.756 32.5771 39.9573 33.045 40.3599C33.5128 40.7516 33.7468 41.3119 33.7468 42.0409ZM32.6043 48.5693V42.0409C32.6043 41.1705 32.0603 40.7353 30.9722 40.7353C29.8842 40.7353 29.3402 41.1705 29.3402 42.0409V48.5693C29.3402 49.4397 29.8842 49.8749 30.9722 49.8749C32.0603 49.8749 32.6043 49.4397 32.6043 48.5693ZM40.7609 48.5693V47.6716H41.9034V48.5693C41.9034 49.2983 41.6803 49.8641 41.2342 50.2666C40.7881 50.6583 40.119 50.8542 39.2268 50.8542C38.3346 50.8542 37.66 50.6583 37.203 50.2666C36.746 49.8641 36.5175 49.2983 36.5175 48.5693V42.0409C36.5175 41.3119 36.7405 40.7516 37.1867 40.3599C37.6328 39.9573 38.3019 39.756 39.1941 39.756C40.0863 39.756 40.7609 39.9573 41.2179 40.3599C41.6749 40.7516 41.9034 41.3119 41.9034 42.0409V43.5914H40.7609V42.0409C40.7609 41.1705 40.2441 40.7353 39.2104 40.7353C38.1768 40.7353 37.66 41.1705 37.66 42.0409V48.5693C37.66 49.4397 38.1768 49.8749 39.2104 49.8749C40.2441 49.8749 40.7609 49.4397 40.7609 48.5693Z" fill="white"/>
</svg>
