<svg width="128" height="95" viewBox="0 0 128 95" fill="none" xmlns="http://www.w3.org/2000/svg">
<path d="M18.4241 95V66.2121H29.2675V85.7879H97.8786V66.2121H109.586V95H18.4241Z" fill="white"/>
<path d="M18.3281 30.899V42.798H29.2675V35.3131L63.5251 11.899L97.8786 35.3652V42.798H109.682V30.899L63.5251 0L18.3281 30.899Z" fill="white"/>
<path d="M25.5405 62.7852C25.5817 62.7852 25.6023 62.847 25.6023 62.9707C25.6023 63.0944 25.5817 63.1562 25.5405 63.1562C24.8602 63.1562 24.3139 63.1459 23.9017 63.1253L21.6754 63.0944L19.5109 63.1253C19.1399 63.1459 18.6142 63.1562 17.934 63.1562C17.8928 63.1562 17.8721 63.0944 17.8721 62.9707C17.8721 62.847 17.8928 62.7852 17.934 62.7852C18.841 62.7852 19.4491 62.6821 19.7583 62.476C20.0675 62.2699 20.2221 61.837 20.2221 61.1773L20.1912 60.6517L19.5728 47.5413L12.9867 62.9398C12.9455 63.0223 12.863 63.0635 12.7393 63.0635C12.6362 63.0635 12.5435 63.0223 12.461 62.9398L4.73086 47.665L4.45258 59.4148C4.43196 60.5074 4.6381 61.3422 5.07099 61.9194C5.52449 62.4966 6.19444 62.7852 7.08083 62.7852C7.14267 62.7852 7.17359 62.847 7.17359 62.9707C7.17359 63.0944 7.14267 63.1562 7.08083 63.1562C6.52426 63.1562 6.09137 63.1459 5.78216 63.1253L4.08153 63.0944L2.25721 63.1253C1.948 63.1459 1.51511 63.1562 0.958541 63.1562C0.896699 63.1562 0.865779 63.0944 0.865779 62.9707C0.865779 62.847 0.896699 62.7852 0.958541 62.7852C1.80371 62.7852 2.45304 62.4966 2.90654 61.9194C3.38066 61.3422 3.62802 60.5074 3.64864 59.4148L3.92692 46.119C3.55588 45.4593 3.1436 44.9749 2.6901 44.6657C2.25721 44.3565 1.75217 44.2019 1.17499 44.2019C1.11314 44.2019 1.08222 44.14 1.08222 44.0164C1.08222 43.8927 1.11314 43.8308 1.17499 43.8308L2.50457 43.8618C2.77255 43.8824 3.12299 43.8927 3.55588 43.8927L5.00915 43.8618C5.17406 43.8411 5.38019 43.8308 5.62756 43.8308C5.89554 43.8308 6.11198 43.9339 6.27689 44.14C6.4418 44.3256 6.69948 44.7585 7.04991 45.4387L13.8525 58.7037L20.0057 44.6039C20.1294 44.3153 20.2633 44.1194 20.4076 44.0164C20.5519 43.8927 20.7272 43.8308 20.9333 43.8308C21.0776 43.8308 21.2631 43.8411 21.4899 43.8618C21.7166 43.8824 21.9949 43.8927 22.3247 43.8927L23.9944 43.8618C24.2624 43.8411 24.6644 43.8308 25.2003 43.8308C25.2416 43.8308 25.2622 43.8927 25.2622 44.0164C25.2622 44.14 25.2416 44.2019 25.2003 44.2019C24.2109 44.2019 23.4894 44.3874 23.0359 44.7585C22.603 45.1089 22.4072 45.6964 22.4484 46.5209L23.1287 60.6517C23.1699 61.2907 23.2523 61.7545 23.376 62.0431C23.4997 62.3317 23.7161 62.5275 24.0254 62.6306C24.3346 62.7337 24.8396 62.7852 25.5405 62.7852ZM37.5874 63.5273C35.6704 63.5273 33.9594 63.0841 32.4546 62.1977C30.9704 61.2907 29.8161 60.0745 28.9915 58.5491C28.1876 57.003 27.7856 55.323 27.7856 53.509C27.7856 51.3858 28.3216 49.5718 29.3935 48.067C30.4654 46.5415 31.8362 45.3975 33.5059 44.6348C35.1962 43.8721 36.9175 43.4907 38.6697 43.4907C40.628 43.4907 42.3492 43.9545 43.8334 44.8821C45.3176 45.7891 46.4514 46.9951 47.2347 48.4999C48.0386 50.0047 48.4406 51.6022 48.4406 53.2926C48.4406 55.1684 47.9459 56.8897 46.9564 58.4563C45.9669 60.023 44.6374 61.2598 42.9676 62.1668C41.3185 63.0738 39.5251 63.5273 37.5874 63.5273ZM38.6387 62.7852C39.8756 62.7852 40.9784 62.4554 41.9473 61.7957C42.9367 61.1155 43.7097 60.126 44.2663 58.8274C44.8435 57.5287 45.1321 55.9827 45.1321 54.1893C45.1321 52.2928 44.8126 50.5922 44.1735 49.0873C43.5551 47.5825 42.6584 46.4076 41.4834 45.5624C40.3291 44.7172 38.9686 44.2946 37.4019 44.2946C35.4024 44.2946 33.846 45.0161 32.7329 46.4591C31.6404 47.8814 31.0941 49.8604 31.0941 52.3959C31.0941 54.3542 31.4136 56.127 32.0526 57.7142C32.7123 59.3015 33.609 60.5486 34.7427 61.4556C35.8971 62.342 37.1958 62.7852 38.6387 62.7852ZM70.7315 62.3523C70.917 62.3523 71.0201 62.3729 71.0407 62.4142C71.0819 62.4348 71.1025 62.5378 71.1025 62.7234C71.1025 62.847 71.0819 63.1356 71.0407 63.5891C70.8758 64.9703 70.7933 66.4854 70.7933 68.1345C70.7933 68.2375 70.7315 68.2891 70.6078 68.2891C70.5047 68.2891 70.4532 68.2375 70.4532 68.1345C70.4532 64.8157 68.3506 63.1562 64.1454 63.1562H56.3843C54.6321 63.1562 53.2819 63.5685 52.3337 64.3931C51.3855 65.2176 50.9114 66.4648 50.9114 68.1345C50.9114 68.2375 50.8495 68.2891 50.7258 68.2891C50.6021 68.2891 50.5403 68.2375 50.5403 68.1345C50.5403 66.4854 50.4682 65.063 50.3239 63.8674C50.262 63.4758 50.2311 63.0944 50.2311 62.7234C50.2311 62.5585 50.2414 62.4554 50.262 62.4142C50.3032 62.3729 50.396 62.3523 50.5403 62.3523H52.612L60.3422 43.6453C60.3834 43.5835 60.4658 43.5526 60.5895 43.5526C60.7544 43.5526 60.8472 43.5835 60.8678 43.6453L69.1545 62.3523H70.7315ZM53.5396 62.3523H65.877L59.4764 47.8505L53.5396 62.3523ZM89.3196 43.8308C89.3815 43.8308 89.4124 43.8927 89.4124 44.0164C89.4124 44.14 89.3815 44.2019 89.3196 44.2019C88.7425 44.2019 88.155 44.4492 87.5572 44.944C86.98 45.4181 86.5059 46.0674 86.1348 46.892L80.7237 58.7655C80.1877 60.0023 79.7961 60.9506 79.5487 61.6102C79.322 62.2492 79.1364 62.6718 78.9921 62.878C78.8478 63.0635 78.6417 63.1562 78.3737 63.1562H72.9008C72.8595 63.1562 72.8389 63.0944 72.8389 62.9707C72.8389 62.847 72.8595 62.7852 72.9008 62.7852C74.3025 62.7852 75.6424 62.4245 76.9205 61.703C78.2191 60.9609 79.188 59.9508 79.827 58.6728L73.0245 46.3973C72.571 45.5521 72.169 44.9749 71.8186 44.6657C71.4887 44.3565 71.0249 44.2019 70.4271 44.2019C70.3859 44.2019 70.3653 44.14 70.3653 44.0164C70.3653 43.8927 70.3859 43.8308 70.4271 43.8308L71.4475 43.8618C72.0659 43.903 72.7874 43.9236 73.6119 43.9236C74.8282 43.9236 75.9104 43.903 76.8586 43.8618C77.1266 43.8411 77.4667 43.8308 77.879 43.8308C77.9408 43.8308 77.9718 43.8927 77.9718 44.0164C77.9718 44.14 77.9408 44.2019 77.879 44.2019C76.6009 44.2019 75.9619 44.5214 75.9619 45.1604C75.9619 45.4078 76.0547 45.717 76.2402 46.088L81.3421 55.4261L85.269 46.8611C85.4752 46.4488 85.5782 46.0674 85.5782 45.717C85.5782 45.2429 85.3824 44.8718 84.9908 44.6039C84.5991 44.3359 84.0322 44.2019 83.2901 44.2019C83.2489 44.2019 83.2283 44.14 83.2283 44.0164C83.2283 43.8927 83.2489 43.8308 83.2901 43.8308L84.6506 43.8618C85.3927 43.903 86.073 43.9236 86.6914 43.9236C87.1037 43.9236 87.5572 43.903 88.0519 43.8618L89.3196 43.8308ZM109.492 62.7852C109.596 62.7852 109.647 62.847 109.647 62.9707C109.647 63.0944 109.596 63.1562 109.492 63.1562C109.101 63.1562 108.472 63.1356 107.606 63.0944C106.741 63.0532 106.112 63.0326 105.72 63.0326C105.205 63.0326 104.597 63.0532 103.896 63.0944C103.195 63.1356 102.649 63.1562 102.257 63.1562C102.175 63.1562 102.133 63.0944 102.133 62.9707C102.133 62.847 102.175 62.7852 102.257 62.7852C102.855 62.7852 103.288 62.7234 103.556 62.5997C103.844 62.4554 103.989 62.2286 103.989 61.9194C103.989 61.6102 103.813 61.0846 103.463 60.3425L97.186 47.6032L92.146 58.9201C91.878 59.5385 91.744 60.0951 91.744 60.5898C91.744 61.3113 92.0017 61.8576 92.517 62.2286C93.0324 62.5997 93.7539 62.7852 94.6815 62.7852C94.7845 62.7852 94.8361 62.847 94.8361 62.9707C94.8361 63.0944 94.7845 63.1562 94.6815 63.1562C94.3104 63.1562 93.7745 63.1356 93.0736 63.0944C92.2903 63.0532 91.61 63.0326 91.0328 63.0326C90.4763 63.0326 89.8269 63.0532 89.0848 63.0944C88.4252 63.1356 87.8789 63.1562 87.446 63.1562C87.343 63.1562 87.2914 63.0944 87.2914 62.9707C87.2914 62.847 87.343 62.7852 87.446 62.7852C88.0232 62.7852 88.5076 62.6718 88.8993 62.4451C89.291 62.2183 89.6723 61.8164 90.0434 61.2392C90.4144 60.6414 90.8576 59.7653 91.373 58.6109L98.0209 43.6453C98.0621 43.5835 98.1549 43.5526 98.2992 43.5526C98.4435 43.5526 98.5259 43.5835 98.5466 43.6453L106.122 58.9201C106.844 60.4043 107.441 61.4247 107.916 61.9813C108.41 62.5172 108.936 62.7852 109.492 62.7852ZM119.354 52.2413C121.457 52.2413 123.075 52.6638 124.209 53.509C125.343 54.3336 125.909 55.6013 125.909 57.3122C125.909 58.5078 125.621 59.5591 125.044 60.4662C124.487 61.3525 123.693 62.0431 122.663 62.5378C121.653 63.0326 120.488 63.2799 119.169 63.2799C118.653 63.2799 118.025 63.249 117.283 63.1872C115.551 63.1253 114.623 63.0944 114.5 63.0944L112.521 63.1253C112.108 63.1459 111.531 63.1562 110.789 63.1562C110.727 63.1562 110.696 63.0944 110.696 62.9707C110.696 62.847 110.727 62.7852 110.789 62.7852C111.511 62.7646 112.026 62.7131 112.335 62.6306C112.644 62.5275 112.861 62.342 112.985 62.074C113.108 61.7854 113.17 61.3113 113.17 60.6517V46.3354C113.17 45.6758 113.108 45.212 112.985 44.944C112.882 44.6554 112.675 44.4699 112.366 44.3874C112.057 44.305 111.542 44.2431 110.82 44.2019C110.779 44.2019 110.758 44.14 110.758 44.0164C110.758 43.8927 110.779 43.8308 110.82 43.8308L112.335 43.8618C113.242 43.903 114.005 43.9236 114.623 43.9236C115.262 43.9236 116.077 43.903 117.066 43.8618L118.736 43.8308C118.798 43.8308 118.829 43.8927 118.829 44.0164C118.829 44.14 118.798 44.2019 118.736 44.2019C117.952 44.2431 117.386 44.3153 117.035 44.4183C116.705 44.5008 116.468 44.6863 116.324 44.9749C116.2 45.2635 116.138 45.7376 116.138 46.3973V52.5195C117.21 52.334 118.282 52.2413 119.354 52.2413ZM118.612 62.5688C120.117 62.5688 121.189 62.1977 121.828 61.4556C122.467 60.6929 122.786 59.5076 122.786 57.8997C122.786 56.1888 122.436 54.952 121.735 54.1893C121.034 53.4059 119.921 53.0143 118.396 53.0143C117.839 53.0143 117.087 53.0864 116.138 53.2307V60.6517C116.138 61.3113 116.293 61.7957 116.602 62.1049C116.932 62.4142 117.602 62.5688 118.612 62.5688Z" fill="#4F356C"/>
</svg>
