<svg width="129" height="95" viewBox="0 0 129 95" fill="none" xmlns="http://www.w3.org/2000/svg">
<path d="M18.9472 95V66.2121H29.7531V85.7879H98.1268V66.2121H109.793V95H18.9472Z" fill="#4F356C"/>
<path d="M18.8516 30.899V42.798H29.7531V35.3131L63.8921 11.899L98.1268 35.3652V42.798H109.889V30.899L63.8921 0L18.8516 30.899Z" fill="#4F356C"/>
<path d="M4.54378 44.542L5.37864 44.6039L5.03851 59.4148C5.0179 60.5074 5.22404 61.3422 5.65693 61.9194C6.11043 62.4966 6.78038 62.7852 7.66677 62.7852C7.72861 62.7852 7.75953 62.847 7.75953 62.9707C7.75953 63.0944 7.72861 63.1562 7.66677 63.1562C7.1102 63.1562 6.67731 63.1459 6.3681 63.1253L4.66746 63.0944L2.84315 63.1253C2.53394 63.1459 2.10105 63.1562 1.54448 63.1562C1.48264 63.1562 1.45172 63.0944 1.45172 62.9707C1.45172 62.847 1.48264 62.7852 1.54448 62.7852C2.38964 62.7852 3.03898 62.4966 3.49248 61.9194C3.9666 61.3422 4.21396 60.5074 4.23458 59.4148L4.54378 44.542ZM26.1264 62.7852C26.1676 62.7852 26.1882 62.847 26.1882 62.9707C26.1882 63.0944 26.1676 63.1562 26.1264 63.1562C25.4461 63.1562 24.8999 63.1459 24.4876 63.1253L22.2613 63.0944L20.0969 63.1253C19.7258 63.1459 19.2002 63.1562 18.5199 63.1562C18.4787 63.1562 18.4581 63.0944 18.4581 62.9707C18.4581 62.847 18.4787 62.7852 18.5199 62.7852C19.2002 62.7852 19.7052 62.7337 20.035 62.6306C20.3649 62.5069 20.5813 62.3008 20.6844 62.0122C20.7874 61.7236 20.8184 61.2701 20.7771 60.6517L20.1278 46.5209L21.4883 44.3874L13.5726 62.9398C13.5314 63.0223 13.4489 63.0635 13.3253 63.0635C13.2222 63.0635 13.1294 63.0223 13.047 62.9398L4.66746 46.3973C4.29642 45.6345 3.87383 45.078 3.39972 44.7275C2.9256 44.3771 2.37934 44.2019 1.76092 44.2019C1.69908 44.2019 1.66816 44.14 1.66816 44.0164C1.66816 43.8927 1.69908 43.8308 1.76092 43.8308L3.09051 43.8618C3.35849 43.8824 3.70892 43.8927 4.14181 43.8927L5.56416 43.8618C5.74969 43.8411 5.96613 43.8308 6.2135 43.8308C6.48148 43.8308 6.69792 43.9339 6.86283 44.14C7.02774 44.3256 7.28541 44.7585 7.63585 45.4387L14.593 59.0747L13.2634 61.4247L20.5916 44.6039C20.7153 44.3153 20.8493 44.1194 20.9936 44.0164C21.1379 43.8927 21.3131 43.8308 21.5192 43.8308C21.6635 43.8308 21.849 43.8411 22.0758 43.8618C22.3025 43.8824 22.5808 43.8927 22.9107 43.8927L24.5804 43.8618C24.8483 43.8411 25.24 43.8308 25.7554 43.8308C25.8172 43.8308 25.8481 43.8927 25.8481 44.0164C25.8481 44.14 25.8172 44.2019 25.7554 44.2019C24.7865 44.2019 24.0753 44.3874 23.6218 44.7585C23.1889 45.1089 22.9931 45.6964 23.0343 46.5209L23.7146 60.6517C23.7558 61.2907 23.8383 61.7545 23.962 62.0431C24.0856 62.3317 24.3021 62.5275 24.6113 62.6306C24.9205 62.7337 25.4255 62.7852 26.1264 62.7852ZM38.1734 63.5273C36.2563 63.5273 34.5454 63.0841 33.0406 62.1977C31.5564 61.2907 30.402 60.0745 29.5774 58.5491C28.7735 57.003 28.3715 55.323 28.3715 53.509C28.3715 51.3858 28.9075 49.5718 29.9794 48.067C31.0513 46.5415 32.4221 45.3975 34.0919 44.6348C35.7822 43.8721 37.5034 43.4907 39.2556 43.4907C41.2139 43.4907 42.9352 43.9545 44.4194 44.8821C45.9035 45.7891 47.0373 46.9951 47.8206 48.4999C48.6246 50.0047 49.0265 51.6022 49.0265 53.2926C49.0265 55.1684 48.5318 56.8897 47.5423 58.4563C46.5529 60.023 45.2233 61.2598 43.5536 62.1668C41.9045 63.0738 40.1111 63.5273 38.1734 63.5273ZM39.2247 62.7852C40.4615 62.7852 41.5643 62.4554 42.5332 61.7957C43.5227 61.1155 44.2957 60.126 44.8522 58.8274C45.4294 57.5287 45.718 55.9827 45.718 54.1893C45.718 52.2722 45.3985 50.5715 44.7595 49.0873C44.1411 47.5825 43.2444 46.4076 42.0694 45.5624C40.915 44.7172 39.5545 44.2946 37.9879 44.2946C35.9677 44.2946 34.4114 45.0161 33.3188 46.4591C32.2263 47.8814 31.68 49.8604 31.68 52.3959C31.68 54.3748 31.9996 56.1579 32.6386 57.7451C33.2776 59.3118 34.1743 60.5486 35.3287 61.4556C36.4831 62.342 37.7817 62.7852 39.2247 62.7852ZM60.9281 43.6453C60.9693 43.5835 61.0518 43.5526 61.1755 43.5526C61.3404 43.5526 61.4331 43.5835 61.4537 43.6453L70.0806 63.1562H66.8339L59.8459 47.294L61.1755 45.1295L53.7854 63.1562H52.8578L60.9281 43.6453ZM51.1262 68.1345C51.1262 66.4854 51.0541 65.063 50.9098 63.8674C50.848 63.4758 50.817 63.0944 50.817 62.7234C50.817 62.5585 50.8273 62.4554 50.848 62.4142C50.8892 62.3729 50.9819 62.3523 51.1262 62.3523H71.3174C71.4823 62.3523 71.5751 62.3729 71.5957 62.4142C71.6369 62.4348 71.6576 62.5378 71.6576 62.7234C71.6576 62.847 71.6369 63.1356 71.5957 63.5891C71.4514 64.7847 71.3793 66.2999 71.3793 68.1345C71.3793 68.2375 71.3174 68.2891 71.1938 68.2891C71.0701 68.2891 71.0082 68.2375 71.0082 68.1345C71.0082 64.8157 68.9159 63.1562 64.7313 63.1562H56.9702C55.2181 63.1562 53.8679 63.5582 52.9196 64.3622C51.9714 65.1867 51.4973 66.4441 51.4973 68.1345C51.4973 68.2375 51.4354 68.2891 51.3118 68.2891C51.1881 68.2891 51.1262 68.2375 51.1262 68.1345ZM85.855 46.8301C86.0611 46.4385 86.1642 46.0674 86.1642 45.717C86.1642 45.2429 85.9684 44.8718 85.5767 44.6039C85.185 44.3359 84.6181 44.2019 83.8761 44.2019C83.8348 44.2019 83.8142 44.14 83.8142 44.0164C83.8142 43.8927 83.8348 43.8308 83.8761 43.8308L85.2366 43.8618C85.9787 43.903 86.6589 43.9236 87.2773 43.9236C87.6896 43.9236 88.1431 43.903 88.6378 43.8618L89.9056 43.8308C89.9674 43.8308 89.9983 43.8927 89.9983 44.0164C89.9983 44.14 89.9674 44.2019 89.9056 44.2019C89.3284 44.2019 88.7512 44.4492 88.174 44.944C87.5968 45.4181 87.1124 46.0674 86.7208 46.892L81.2787 58.7655C80.9489 59.5076 80.5572 60.4662 80.1037 61.6411C79.8564 62.2802 79.6708 62.6924 79.5472 62.878C79.4235 63.0635 79.2276 63.1562 78.9597 63.1562H73.4867C73.4455 63.1562 73.4249 63.0944 73.4249 62.9707C73.4249 62.847 73.4455 62.7852 73.4867 62.7852C74.9503 62.7852 76.3314 62.3935 77.6301 61.6102C78.9494 60.8269 79.9182 59.7653 80.5366 58.4254L85.855 46.8301ZM73.6104 46.3973C73.1569 45.5521 72.7549 44.9749 72.4045 44.6657C72.0747 44.3565 71.6109 44.2019 71.0131 44.2019C70.9718 44.2019 70.9512 44.14 70.9512 44.0164C70.9512 43.8927 70.9718 43.8308 71.0131 43.8308L72.0334 43.8618C72.6519 43.903 73.3733 43.9236 74.1979 43.9236C75.4347 43.9236 76.5066 43.903 77.4136 43.8618C77.7022 43.8411 78.0527 43.8308 78.4649 43.8308C78.5062 43.8308 78.5268 43.8927 78.5268 44.0164C78.5268 44.14 78.5062 44.2019 78.4649 44.2019C77.1663 44.2019 76.5169 44.5214 76.5169 45.1604C76.5169 45.4284 76.62 45.7376 76.8261 46.088L82.2373 56.0136L80.6603 59.1675L73.6104 46.3973ZM88.032 63.1562C87.9289 63.1562 87.8774 63.0944 87.8774 62.9707C87.8774 62.847 87.9289 62.7852 88.032 62.7852C88.6092 62.7852 89.0936 62.6718 89.4852 62.4451C89.8769 62.2183 90.2583 61.8164 90.6293 61.2392C91.0004 60.6414 91.4436 59.7653 91.9589 58.6109L98.6068 43.6453C98.6481 43.5835 98.7408 43.5526 98.8851 43.5526C99.0294 43.5526 99.1119 43.5835 99.1325 43.6453L106.708 58.9201C107.409 60.4043 107.996 61.4247 108.471 61.9813C108.965 62.5172 109.501 62.7852 110.078 62.7852C110.161 62.7852 110.202 62.847 110.202 62.9707C110.202 63.0944 110.161 63.1562 110.078 63.1562C109.687 63.1562 109.058 63.1356 108.192 63.0944C107.326 63.0532 106.698 63.0326 106.306 63.0326C105.791 63.0326 105.183 63.0532 104.482 63.0944C103.781 63.1356 103.235 63.1562 102.843 63.1562C102.761 63.1562 102.719 63.0944 102.719 62.9707C102.719 62.847 102.761 62.7852 102.843 62.7852C103.461 62.7852 103.905 62.7234 104.173 62.5997C104.441 62.4554 104.575 62.2286 104.575 61.9194C104.575 61.6102 104.399 61.0846 104.049 60.3425L97.5865 47.2012L98.8542 45.1295L92.7319 58.9201C92.4639 59.5385 92.3299 60.0951 92.3299 60.5898C92.3299 61.3113 92.5876 61.8576 93.103 62.2286C93.6183 62.5997 94.3398 62.7852 95.2674 62.7852C95.3705 62.7852 95.422 62.847 95.422 62.9707C95.422 63.0944 95.3705 63.1562 95.2674 63.1562C94.8964 63.1562 94.3604 63.1356 93.6595 63.0944C92.8762 63.0532 92.196 63.0326 91.6188 63.0326C91.0622 63.0326 90.4129 63.0532 89.6708 63.0944C89.0111 63.1356 88.4649 63.1562 88.032 63.1562ZM119.755 63.2799C119.239 63.2799 118.611 63.249 117.868 63.1872C116.137 63.1253 115.209 63.0944 115.086 63.0944L113.107 63.1253C112.694 63.1459 112.117 63.1562 111.375 63.1562C111.313 63.1562 111.282 63.0944 111.282 62.9707C111.282 62.847 111.313 62.7852 111.375 62.7852C112.097 62.7646 112.612 62.7131 112.921 62.6306C113.23 62.5275 113.447 62.342 113.571 62.074C113.694 61.7854 113.756 61.3113 113.756 60.6517V46.3354C113.756 45.6758 113.694 45.212 113.571 44.944C113.467 44.6554 113.261 44.4699 112.952 44.3874C112.664 44.305 112.148 44.2431 111.406 44.2019C111.365 44.2019 111.344 44.14 111.344 44.0164C111.344 43.8927 111.365 43.8308 111.406 43.8308L112.921 43.8618C113.828 43.903 114.591 43.9236 115.209 43.9236C115.848 43.9236 116.663 43.903 117.652 43.8618L119.322 43.8308C119.363 43.8308 119.384 43.8927 119.384 44.0164C119.384 44.14 119.363 44.2019 119.322 44.2019C118.538 44.2431 117.972 44.3153 117.621 44.4183C117.291 44.5008 117.054 44.6863 116.91 44.9749C116.786 45.2635 116.724 45.7376 116.724 46.3973V60.6517C116.724 61.3113 116.879 61.7957 117.188 62.1049C117.518 62.4142 118.188 62.5688 119.198 62.5688C120.703 62.5688 121.775 62.1977 122.414 61.4556C123.053 60.6929 123.372 59.5076 123.372 57.8997C123.372 56.1888 123.022 54.952 122.321 54.1893C121.62 53.4059 120.507 53.0143 118.982 53.0143C118.013 53.0143 116.838 53.1689 115.457 53.4781L115.333 52.7978C116.817 52.4268 118.353 52.2413 119.94 52.2413C122.043 52.2413 123.661 52.6638 124.795 53.509C125.928 54.3336 126.495 55.6013 126.495 57.3122C126.495 58.5078 126.207 59.5591 125.63 60.4662C125.052 61.3525 124.248 62.0431 123.218 62.5378C122.208 63.0326 121.053 63.2799 119.755 63.2799Z" fill="white"/>
</svg>
