<svg width="60" height="68" viewBox="0 0 60 68" fill="none" xmlns="http://www.w3.org/2000/svg">
<g clip-path="url(#clip0_1313_3)">
<g filter="url(#filter0_f_1313_3)">
<path d="M30.51 56.523C30.5041 56.6516 30.4488 56.7729 30.3557 56.8618C30.2625 56.9506 30.1387 57.0001 30.01 57C29.72 57 29.5 56.79 29.49 56.523C29.345 53.355 27.734 51.306 24.658 50.376C14.53 47.968 7 38.863 7 28C7 15.297 17.297 5 30 5C42.703 5 53 15.297 53 28C53 38.863 45.47 47.968 35.342 50.376C32.266 51.306 30.655 53.356 30.512 56.523H30.51Z" fill="#FF4433"/>
</g>
<path d="M30.51 56.523C30.5041 56.6516 30.4488 56.7729 30.3557 56.8618C30.2625 56.9506 30.1387 57.0001 30.01 57C29.72 57 29.5 56.79 29.49 56.523C29.345 53.355 27.734 51.306 24.658 50.376C14.53 47.968 7 38.863 7 28C7 15.297 17.297 5 30 5C42.703 5 53 15.297 53 28C53 38.863 45.47 47.968 35.342 50.376C32.266 51.306 30.655 53.356 30.512 56.523H30.51Z" fill="#FF4433"/>
<path fill-rule="evenodd" clip-rule="evenodd" d="M28 32.2V37H39.4C39.4788 37 39.5568 36.9845 39.6296 36.9543C39.7024 36.9242 39.7685 36.88 39.8243 36.8243C39.88 36.7685 39.9242 36.7024 39.9543 36.6296C39.9845 36.5568 40 36.4788 40 36.4V22.6C40 22.5212 39.9845 22.4432 39.9543 22.3704C39.9242 22.2976 39.88 22.2315 39.8243 22.1757C39.7685 22.12 39.7024 22.0758 39.6296 22.0457C39.5568 22.0155 39.4788 22 39.4 22H34.446L34.288 24H38V25H34.21L34.051 27H38V28H33.972L33.599 32.715C33.5966 32.7549 33.5863 32.7939 33.5687 32.8299C33.5512 32.8658 33.5267 32.8978 33.4966 32.9242C33.4666 32.9506 33.4317 32.9708 33.3938 32.9837C33.3559 32.9965 33.3159 33.0017 33.276 32.999C33.1996 32.9915 33.1289 32.9555 33.0778 32.8983C33.0266 32.8411 32.9989 32.7667 33 32.69V16.4C33 16.2939 32.9579 16.1922 32.8828 16.1172C32.8078 16.0421 32.7061 16 32.6 16H32V15.4C32 15.2939 31.9579 15.1922 31.8828 15.1172C31.8078 15.0421 31.7061 15 31.6 15H21.4C21.2939 15 21.1922 15.0421 21.1172 15.1172C21.0421 15.1922 21 15.2939 21 15.4V16H20.4C20.2939 16 20.1922 16.0421 20.1172 16.1172C20.0421 16.1922 20 16.2939 20 16.4V36.4C20 36.5591 20.0632 36.7117 20.1757 36.8243C20.2883 36.9368 20.4409 37 20.6 37H25V32.2C25 32.09 25.09 32 25.2 32H27.8C27.91 32 28 32.09 28 32.2ZM23.5 29V23H25.5V29H23.5ZM27.5 23V29H29.5V23H27.5ZM23.5 21V18H25.5V21H23.5ZM27.5 18V21H29.5V18H27.5ZM35 31V30H38V31H35Z" fill="white"/>
<path d="M34.5234 21L34.6024 20H37.5974C37.8174 20 37.9974 20.18 37.9974 20.4V21H34.5234Z" fill="white"/>
<path d="M30 68C27.79 68 26 66.21 26 64C26 61.79 27.79 60 30 60C32.21 60 34 61.79 34 64C34 66.21 32.21 68 30 68Z" fill="white"/>
<path fill-rule="evenodd" clip-rule="evenodd" d="M30.0017 65.9995C30.268 66.0055 30.5329 65.9583 30.7807 65.8605C31.0285 65.7628 31.2543 65.6165 31.4448 65.4303C31.6354 65.2441 31.7867 65.0217 31.8901 64.7761C31.9935 64.5306 32.0468 64.2669 32.0469 64.0005C32.0469 63.7341 31.9938 63.4704 31.8905 63.2248C31.7873 62.9792 31.636 62.7567 31.4455 62.5704C31.2551 62.3841 31.0294 62.2377 30.7816 62.1399C30.5338 62.042 30.269 61.9946 30.0027 62.0005C29.4801 62.012 28.9828 62.2277 28.6173 62.6013C28.2518 62.9749 28.047 63.4768 28.0469 63.9995C28.0467 64.5222 28.2512 65.0242 28.6166 65.398C28.9819 65.7718 29.4791 65.9877 30.0017 65.9995Z" fill="#FF4433"/>
</g>
<defs>
<filter id="filter0_f_1313_3" x="1" y="-1" width="58" height="64" filterUnits="userSpaceOnUse" color-interpolation-filters="sRGB">
<feFlood flood-opacity="0" result="BackgroundImageFix"/>
<feBlend mode="normal" in="SourceGraphic" in2="BackgroundImageFix" result="shape"/>
<feGaussianBlur stdDeviation="3" result="effect1_foregroundBlur_1313_3"/>
</filter>
<clipPath id="clip0_1313_3">
<rect width="60" height="68" fill="white"/>
</clipPath>
</defs>
</svg>
