<svg width="50" height="50" viewBox="0 0 50 50" fill="none" xmlns="http://www.w3.org/2000/svg">
<g clip-path="url(#clip0_140_5580)">
<path fill-rule="evenodd" clip-rule="evenodd" d="M14.5215 5.14654C14.6667 5.00103 14.8391 4.88559 15.0289 4.80682C15.2188 4.72805 15.4223 4.6875 15.6278 4.6875C15.8333 4.6875 16.0368 4.72805 16.2266 4.80682C16.4165 4.88559 16.5889 5.00103 16.734 5.14654L35.484 23.8965C35.6296 24.0417 35.745 24.2141 35.8238 24.4039C35.9025 24.5938 35.9431 24.7973 35.9431 25.0028C35.9431 25.2083 35.9025 25.4118 35.8238 25.6016C35.745 25.7915 35.6296 25.9639 35.484 26.109L16.734 44.859C16.4406 45.1524 16.0427 45.3173 15.6278 45.3173C15.2129 45.3173 14.8149 45.1524 14.5215 44.859C14.2281 44.5656 14.0633 44.1677 14.0633 43.7528C14.0633 43.3379 14.2281 42.9399 14.5215 42.6465L32.1684 25.0028L14.5215 7.35904C14.376 7.2139 14.2606 7.04148 14.1818 6.85165C14.103 6.66182 14.0625 6.45832 14.0625 6.25279C14.0625 6.04727 14.103 5.84377 14.1818 5.65394C14.2606 5.46411 14.376 5.29169 14.5215 5.14654Z" fill="black" fill-opacity="0.5"/>
</g>
<defs>
<clipPath id="clip0_140_5580">
<rect width="50" height="50" fill="white"/>
</clipPath>
</defs>
</svg>
