<svg width="38" height="50" viewBox="0 0 38 50" fill="none" xmlns="http://www.w3.org/2000/svg">
<path d="M19 0C8.6582 0 0.25 8.4082 0.25 18.75C0.25 32.5781 17.5449 49.0234 18.2871 49.7168C18.4922 49.9023 18.7461 50 19 50C19.2539 50 19.5176 49.9023 19.7129 49.7168C20.4551 49.0234 37.75 32.5781 37.75 18.75C37.75 8.4082 29.3418 0 19 0ZM19 29.1699C13.2578 29.1699 8.58008 24.4922 8.58008 18.75C8.58008 13.0078 13.2578 8.33008 19 8.33008C24.7422 8.33008 29.4199 13.0078 29.4199 18.75C29.4199 24.4922 24.7422 29.1699 19 29.1699Z" fill="#f43"/>
</svg>
