<svg width="50" height="50" viewBox="0 0 50 50" fill="none" xmlns="http://www.w3.org/2000/svg">
<g clip-path="url(#clip0_140_5584)">
<path fill-rule="evenodd" clip-rule="evenodd" d="M35.4785 5.14654C35.3333 5.00103 35.1609 4.88559 34.9711 4.80682C34.7812 4.72805 34.5777 4.6875 34.3722 4.6875C34.1667 4.6875 33.9632 4.72805 33.7734 4.80682C33.5835 4.88559 33.4111 5.00103 33.266 5.14654L14.516 23.8965C14.3704 24.0417 14.255 24.2141 14.1762 24.4039C14.0975 24.5938 14.0569 24.7973 14.0569 25.0028C14.0569 25.2083 14.0975 25.4118 14.1762 25.6016C14.255 25.7915 14.3704 25.9639 14.516 26.109L33.266 44.859C33.5594 45.1524 33.9573 45.3173 34.3722 45.3173C34.7871 45.3173 35.1851 45.1524 35.4785 44.859C35.7719 44.5656 35.9367 44.1677 35.9367 43.7528C35.9367 43.3379 35.7719 42.9399 35.4785 42.6465L17.8316 25.0028L35.4785 7.35904C35.624 7.2139 35.7394 7.04148 35.8182 6.85165C35.897 6.66182 35.9375 6.45832 35.9375 6.25279C35.9375 6.04727 35.897 5.84377 35.8182 5.65394C35.7394 5.46411 35.624 5.29169 35.4785 5.14654Z" fill="black" fill-opacity="0.5"/>
</g>
<defs>
<clipPath id="clip0_140_5584">
<rect width="50" height="50" fill="white" transform="matrix(-1 0 0 1 50 0)"/>
</clipPath>
</defs>
</svg>
