<svg width="33" height="20" viewBox="0 0 33 20" fill="none" xmlns="http://www.w3.org/2000/svg">
<path d="M32.035 1.92066C32.2579 1.17767 32.035 0.632812 30.9809 0.632812H27.489C26.6005 0.632812 26.1944 1.10417 25.9715 1.62187C25.9715 1.62187 24.1961 5.96636 21.6803 8.78332C20.8682 9.60301 20.4972 9.86186 20.0545 9.86186C19.8332 9.86186 19.5115 9.60301 19.5115 8.86002V1.92066C19.5115 1.02907 19.2552 0.632812 18.5148 0.632812H13.0277C12.4736 0.632812 12.1392 1.04505 12.1392 1.43812C12.1392 2.28177 13.3971 2.4767 13.5261 4.85427V10.0121C13.5261 11.1417 13.3239 11.3478 12.878 11.3478C11.695 11.3478 8.81608 6.98737 7.10755 1.99576C6.77476 1.02588 6.43879 0.634411 5.5471 0.634411H2.05678C1.05841 0.634411 0.859375 1.10577 0.859375 1.62347C0.859375 2.5534 2.04245 7.15514 6.37032 13.2413C9.25556 17.3972 13.3175 19.6501 17.018 19.6501C19.2361 19.6501 19.51 19.15 19.51 18.2872V15.1459C19.51 14.1456 19.7217 13.9443 20.4239 13.9443C20.9398 13.9443 21.8283 14.2063 23.8999 16.2084C26.2661 18.5828 26.6578 19.6485 27.9873 19.6485H31.4777C32.4744 19.6485 32.9728 19.1484 32.6862 18.161C32.3725 17.1783 31.242 15.7482 29.7421 14.0561C28.9268 13.0911 27.7087 12.0525 27.3377 11.5332C26.8202 10.8637 26.9699 10.5681 27.3377 9.9737C27.3393 9.9753 31.5923 3.96428 32.035 1.92066Z" fill="#4F356C"/>
</svg>
